<mxfile host="Electron" modified="2024-01-10T15:27:01.707Z" agent="Mozilla/5.0 (Windows NT 10.0; Win64; x64) AppleWebKit/537.36 (KHTML, like Gecko) draw.io/22.1.16 Chrome/120.0.6099.109 Electron/28.1.0 Safari/537.36" etag="-mS2KWVfbiyyLMccFj9W" version="22.1.16" type="device">
  <diagram name="Page-1" id="MuZVvoodq-XPGNOuY06b">
    <mxGraphModel dx="3453" dy="2020" grid="1" gridSize="10" guides="1" tooltips="1" connect="1" arrows="1" fold="1" page="1" pageScale="1" pageWidth="850" pageHeight="1100" math="0" shadow="0">
      <root>
        <mxCell id="0" />
        <mxCell id="1" parent="0" />
        <mxCell id="IJ-TPsMU-gE83iM394Ot-2" value="" style="rounded=0;whiteSpace=wrap;html=1;fillColor=#FFFFFF;" vertex="1" parent="1">
          <mxGeometry x="180" y="260" width="2180" height="2890" as="geometry" />
        </mxCell>
        <mxCell id="IJ-TPsMU-gE83iM394Ot-1" value="" style="shape=image;aspect=fixed;image=data:image/svg+xml,PHN2ZyB4bWxucz0iaHR0cDovL3d3dy53My5vcmcvMjAwMC9zdmciIHhtbG5zOnhsaW5rPSJodHRwOi8vd3d3LnczLm9yZy8xOTk5L3hsaW5rIiB4bWxuczpsdWNpZD0ibHVjaWQiIHdpZHRoPSIxNTAwLjUiIGhlaWdodD0iMTU0MC41Ij48ZyB0cmFuc2Zvcm09InRyYW5zbGF0ZSg4MC41IC0zOS41KSIgbHVjaWQ6cGFnZS10YWItaWQ9IjBfMCI+PHBhdGggZD0iTTEzMCA4MjZhNiA2IDAgMCAxIDYtNmgyMjhhNiA2IDAgMCAxIDYgNnYxMjhhNiA2IDAgMCAxLTYgNkgxMzZhNiA2IDAgMCAxLTYtNnoiIHN0cm9rZT0iIzNhNDE0YSIgZmlsbD0iI2ZmZiIvPjx1c2UgeGxpbms6aHJlZj0iI2EiIHRyYW5zZm9ybT0ibWF0cml4KDEsMCwwLDEsMTQyLDgzMikgdHJhbnNsYXRlKDE5LjA0OTM4MjcxNjA0OTM5NCA1MC40MDI3Nzc3Nzc3Nzc3OCkiLz48dXNlIHhsaW5rOmhyZWY9IiNiIiB0cmFuc2Zvcm09Im1hdHJpeCgxLDAsMCwxLDE0Miw4MzIpIHRyYW5zbGF0ZSgxMTAuNzc3Nzc3Nzc3Nzc3NzcgNTAuNDAyNzc3Nzc3Nzc3NzgpIi8+PHVzZSB4bGluazpocmVmPSIjYyIgdHJhbnNmb3JtPSJtYXRyaXgoMSwwLDAsMSwxNDIsODMyKSB0cmFuc2xhdGUoNzkuMDE4NTE4NTE4NTE4NTIgNzcuMDY5NDQ0NDQ0NDQ0NDYpIi8+PHBhdGggZD0iTTE1OSAxMTg4Yy0xMjAuOTUgMC0yMTktMTExLjAzLTIxOS0yNDhDLTYwIDgzMC40My0uNyA3MzggOTEuMzIgNzA0LjE0IDg2IDM4MiA0NTEgMzIwIDU5NyA0NDRjNzMtMTg2IDQzOC0xMjQgNDM4IDYyIDIxOS02MiA0MzggMTg2IDI5MiA0OTYgMTQ2IDI0OCAwIDU1OC0yOTIgNDM0LTczIDE2MS4yLTM2NSAxNjEuMi00MzggMC0xNDYgMTI0LTQzOCA2Mi00MzgtMjQ4eiIgc3Ryb2tlPSIjM2E0MTRhIiBmaWxsPSIjZmZmIi8+PHBhdGggZD0iTTQ2MCAzNjZhNiA2IDAgMCAxIDYtNmgyMjhhNiA2IDAgMCAxIDYgNnYxMjhhNiA2IDAgMCAxLTYgNkg0NjZhNiA2IDAgMCAxLTYtNnoiIHN0cm9rZT0iIzNhNDE0YSIgZmlsbD0iI2ZmZiIvPjx1c2UgeGxpbms6aHJlZj0iI2QiIHRyYW5zZm9ybT0ibWF0cml4KDEsMCwwLDEsNDcyLDM3MikgdHJhbnNsYXRlKDQwLjQ2OTEzNTgwMjQ2OTE0IDYxLjI3Nzc3Nzc3Nzc3Nzc4KSIvPjxwYXRoIGQ9Ik04ODAgMzY2YTYgNiAwIDAgMSA2LTZoMjI4YTYgNiAwIDAgMSA2IDZ2MTI4YTYgNiAwIDAgMS02IDZIODg2YTYgNiAwIDAgMS02LTZ6IiBzdHJva2U9IiMzYTQxNGEiIGZpbGw9IiNmZmYiLz48dXNlIHhsaW5rOmhyZWY9IiNlIiB0cmFuc2Zvcm09Im1hdHJpeCgxLDAsMCwxLDg5MiwzNzIpIHRyYW5zbGF0ZSg0MC40NjkxMzU4MDI0NjkxNCA2MS4yNzc3Nzc3Nzc3Nzc3OCkiLz48cGF0aCBkPSJNNTMwLjQ1IDE4NS44QTcuOCA3LjggMCAwIDEgNTM4IDE4MGgxMTZhNC42IDQuNiAwIDAgMSA0LjQ1IDUuOGwtMjguOSAxMDguNEE3LjggNy44IDAgMCAxIDYyMiAzMDBINTA2YTQuNiA0LjYgMCAwIDEtNC40NS01Ljh6IiBzdHJva2U9IiMzYTQxNGEiIGZpbGw9IiNmZmYiLz48dXNlIHhsaW5rOmhyZWY9IiNmIiB0cmFuc2Zvcm09Im1hdHJpeCgxLDAsMCwxLDUwNSwxODUpIHRyYW5zbGF0ZSgxNy44ODE1NDMyMDk4NzY1MzMgNTkuMDI3Nzc3Nzc3Nzc3NzgpIi8+PHVzZSB4bGluazpocmVmPSIjZyIgdHJhbnNmb3JtPSJtYXRyaXgoMSwwLDAsMSw1MDUsMTg1KSB0cmFuc2xhdGUoODcuNDQ5NDQ0NDQ0NDQ0NDUgNTkuMDI3Nzc3Nzc3Nzc3NzgpIi8+PHBhdGggZD0iTTk1MC40NSAxNzEuM2E3LjggNy44IDAgMCAxIDcuNTUtNS44aDExNmE0LjYgNC42IDAgMCAxIDQuNDUgNS44bC0yOC45IDEwOC40YTcuOCA3LjggMCAwIDEtNy41NSA1LjhIOTI2YTQuNiA0LjYgMCAwIDEtNC40NS01Ljh6IiBzdHJva2U9IiMzYTQxNGEiIGZpbGw9IiNmZmYiLz48dXNlIHhsaW5rOmhyZWY9IiNoIiB0cmFuc2Zvcm09Im1hdHJpeCgxLDAsMCwxLDkyNSwxNzAuNDk5OTk5OTk5OTk5OTcpIHRyYW5zbGF0ZSg0Ni40OTg4MjcxNjA0OTM4MiA0NS4yNzc3Nzc3Nzc3Nzc3OCkiLz48dXNlIHhsaW5rOmhyZWY9IiNpIiB0cmFuc2Zvcm09Im1hdHJpeCgxLDAsMCwxLDkyNSwxNzAuNDk5OTk5OTk5OTk5OTcpIHRyYW5zbGF0ZSg0My4xMDk5MzgyNzE2MDQ5NCA3MS45NDQ0NDQ0NDQ0NDQ0NikiLz48cGF0aCBkPSJNNTgwIDMwMXY0Mi4xMiIgc3Ryb2tlPSIjM2E0MTRhIiBmaWxsPSJub25lIi8+PHBhdGggZD0iTTU4MC41IDMwMWgtMXYtLjVoMXoiIHN0cm9rZT0iIzNhNDE0YSIgc3Ryb2tlLXdpZHRoPSIuMDUiIGZpbGw9IiMzYTQxNGEiLz48cGF0aCBkPSJNNTgwIDM1Ny44OGwtNC42My0xNC4yNmg5LjI2eiIgc3Ryb2tlPSIjM2E0MTRhIiBmaWxsPSIjM2E0MTRhIi8+PHBhdGggZD0iTTEwMDAgMzU5di01Ni42MiIgc3Ryb2tlPSIjM2E0MTRhIiBmaWxsPSJub25lIi8+PHBhdGggZD0iTTEwMDAuNSAzNTkuNWgtMXYtLjVoMXoiIHN0cm9rZT0iIzNhNDE0YSIgc3Ryb2tlLXdpZHRoPSIuMDUiIGZpbGw9IiMzYTQxNGEiLz48cGF0aCBkPSJNMTAwMCAyODcuNjJsNC42MyAxNC4yNmgtOS4yNnoiIHN0cm9rZT0iIzNhNDE0YSIgZmlsbD0iIzNhNDE0YSIvPjxwYXRoIGQ9Ik02NDAgMTEwNmE2IDYgMCAwIDEgNi02aDIyOGE2IDYgMCAwIDEgNiA2djEyOGE2IDYgMCAwIDEtNiA2SDY0NmE2IDYgMCAwIDEtNi02eiIgc3Ryb2tlPSIjM2E0MTRhIiBmaWxsPSIjZmZmIi8+PHVzZSB4bGluazpocmVmPSIjaiIgdHJhbnNmb3JtPSJtYXRyaXgoMSwwLDAsMSw2NTIsMTExMikgdHJhbnNsYXRlKDU0LjcyODM5NTA2MTcyODQgNjEuMjc3Nzc3Nzc3Nzc3NzgpIi8+PHVzZSB4bGluazpocmVmPSIjayIgdHJhbnNmb3JtPSJtYXRyaXgoMSwwLDAsMSw2NTIsMTExMikgdHJhbnNsYXRlKDg2LjIwOTg3NjU0MzIwOTg3IDYxLjI3Nzc3Nzc3Nzc3Nzc4KSIvPjxwYXRoIGQ9Ik0xMTIxIDk3MGgzYTYgNiAwIDAgMSA2IDZ2MjA5Ljk1YTYgNiAwIDAgMS02IDZIODk2Ljg4IiBzdHJva2U9IiMzYTQxNGEiIGZpbGw9Im5vbmUiLz48cGF0aCBkPSJNMTEyMSA5NzAuNWgtLjV2LTFoLjV6IiBzdHJva2U9IiMzYTQxNGEiIHN0cm9rZS13aWR0aD0iLjA1IiBmaWxsPSIjM2E0MTRhIi8+PHBhdGggZD0iTTg4Mi4xMiAxMTkxLjk1bDE0LjI2LTQuNjR2OS4yOHoiIHN0cm9rZT0iIzNhNDE0YSIgZmlsbD0iIzNhNDE0YSIvPjx1c2UgeGxpbms6aHJlZj0iI2wiIHRyYW5zZm9ybT0ibWF0cml4KDEsMCwwLDEsOTEzLjk3MTgxMjY5ODMxOSwxMjAwLjU4MTMyMTE3Mjk4NTYpIHRyYW5zbGF0ZSgwIDE0LjIyMjIyMjIyMjIyMjIyMykiLz48dXNlIHhsaW5rOmhyZWY9IiNtIiB0cmFuc2Zvcm09Im1hdHJpeCgxLDAsMCwxLDkxMy45NzE4MTI2OTgzMTksMTIwMC41ODEzMjExNzI5ODU2KSB0cmFuc2xhdGUoMTE2LjI0NjkxMzU4MDI0NjkxIDE0LjIyMjIyMjIyMjIyMjIyMykiLz48dXNlIHhsaW5rOmhyZWY9IiNuIiB0cmFuc2Zvcm09Im1hdHJpeCgxLDAsMCwxLDkxMy45NzE4MTI2OTgzMTksMTIwMC41ODEzMjExNzI5ODU2KSB0cmFuc2xhdGUoMTkwLjcxNjA0OTM4MjcxNjA1IDE0LjIyMjIyMjIyMjIyMjIyMykiLz48dXNlIHhsaW5rOmhyZWY9IiNvIiB0cmFuc2Zvcm09Im1hdHJpeCgxLDAsMCwxLDkxMy45NzE4MTI2OTgzMTksMTIwMC41ODEzMjExNzI5ODU2KSB0cmFuc2xhdGUoMjU2LjI5NjI5NjI5NjI5NjMgMTQuMjIyMjIyMjIyMjIyMjIzKSIvPjx1c2UgeGxpbms6aHJlZj0iI3AiIHRyYW5zZm9ybT0ibWF0cml4KDEsMCwwLDEsOTEzLjk3MTgxMjY5ODMxOSwxMjAwLjU4MTMyMTE3Mjk4NTYpIHRyYW5zbGF0ZSgyOTguMTIzNDU2NzkwMTIzNDQgMTQuMjIyMjIyMjIyMjIyMjIzKSIvPjx1c2UgeGxpbms6aHJlZj0iI3EiIHRyYW5zZm9ybT0ibWF0cml4KDEsMCwwLDEsOTEzLjk3MTgxMjY5ODMxOSwxMjAwLjU4MTMyMTE3Mjk4NTYpIHRyYW5zbGF0ZSgzNDUuOTc1MzA4NjQxOTc1MyAxNC4yMjIyMjIyMjIyMjIyMjMpIi8+PHVzZSB4bGluazpocmVmPSIjciIgdHJhbnNmb3JtPSJtYXRyaXgoMSwwLDAsMSw5MTMuOTcxODEyNjk4MzE5LDEyMDAuNTgxMzIxMTcyOTg1NikgdHJhbnNsYXRlKDM2OS4xODUxODUxODUxODUxNiAxNC4yMjIyMjIyMjIyMjIyMjMpIi8+PHBhdGggZD0iTTg4MSAxMTcwaDExM2E2IDYgMCAwIDAgNi02di0xMDcuMTIiIHN0cm9rZT0iIzNhNDE0YSIgZmlsbD0ibm9uZSIvPjxwYXRoIGQ9Ik04ODEgMTE3MC41aC0uNXYtMWguNXoiIHN0cm9rZT0iIzNhNDE0YSIgc3Ryb2tlLXdpZHRoPSIuMDUiIGZpbGw9IiMzYTQxNGEiLz48cGF0aCBkPSJNMTAwMCAxMDQyLjEybDQuNjMgMTQuMjZoLTkuMjZ6IiBzdHJva2U9IiMzYTQxNGEiIGZpbGw9IiMzYTQxNGEiLz48cGF0aCBkPSJNMzU1LjEgMTAyMy40N2E4LjQ3IDguNDcgMCAwIDEgOS44IDBsMTEwLjIgNzguMDZhNC4yNSA0LjI1IDAgMCAxIDAgNi45NGwtMTEwLjIgNzguMDZhOC40NyA4LjQ3IDAgMCAxLTkuOCAwbC0xMTAuMi03OC4wNmE0LjI1IDQuMjUgMCAwIDEgMC02Ljk0eiIgc3Ryb2tlPSIjM2E0MTRhIiBmaWxsPSIjZmZmIi8+PHVzZSB4bGluazpocmVmPSIjcyIgdHJhbnNmb3JtPSJtYXRyaXgoMSwwLDAsMSwyNDUsMTAyNSkgdHJhbnNsYXRlKDUyLjQ3NDEzNTgwMjQ2OTEzNSA3Mi43Nzc3Nzc3Nzc3Nzc3NykiLz48dXNlIHhsaW5rOmhyZWY9IiN0IiB0cmFuc2Zvcm09Im1hdHJpeCgxLDAsMCwxLDI0NSwxMDI1KSB0cmFuc2xhdGUoMTE1Ljk5MjY1NDMyMDk4NzY1IDcyLjc3Nzc3Nzc3Nzc3Nzc3KSIvPjx1c2UgeGxpbms6aHJlZj0iI3UiIHRyYW5zZm9ybT0ibWF0cml4KDEsMCwwLDEsMjQ1LDEwMjUpIHRyYW5zbGF0ZSg2Ny4wMTExNzI4Mzk1MDYxNyA5OS40NDQ0NDQ0NDQ0NDQ0NikiLz48cGF0aCBkPSJNNTAwIDcwNmE2IDYgMCAwIDEgNi02aDE0OGE2IDYgMCAwIDEgNiA2djEwOGE2IDYgMCAwIDEtNiA2SDUwNmE2IDYgMCAwIDEtNi02eiIgc3Ryb2tlPSIjM2E0MTRhIiBmaWxsPSIjZmZmIi8+PHVzZSB4bGluazpocmVmPSIjdiIgdHJhbnNmb3JtPSJtYXRyaXgoMSwwLDAsMSw1MTIsNzEyKSB0cmFuc2xhdGUoNDguNDYyOTYyOTYyOTYyOTYgMzguNzc3Nzc3Nzc3Nzc3NzgpIi8+PHVzZSB4bGluazpocmVmPSIjdyIgdHJhbnNmb3JtPSJtYXRyaXgoMSwwLDAsMSw1MTIsNzEyKSB0cmFuc2xhdGUoNi40MjU5MjU5MjU5MjU5MzEgNjUuNDQ0NDQ0NDQ0NDQ0NDYpIi8+PHBhdGggZD0iTTM2MC41IDEyMDUuNThsLjA3Ljg4LjIuODQuMzMuOC40NS43My41Ni42Ni42Ny41NS43My40NS44LjMzLjg0LjIuODguMDdoMTA5LjQ0djFIMzY1Ljk4bC0xLS4wOC0xLS4yNC0uOTMtLjQtLjg3LS41Mi0uNzgtLjY2LS42Ni0uNzgtLjUzLS44Ny0uMzgtLjk0LS4yNC0uOTgtLjA4LTF2LTE2LjUzaDF6bTI2Mi42MiA1LjUydjFINTAxLjA0di0xeiIgc3Ryb2tlPSIjM2E0MTRhIiBzdHJva2Utd2lkdGg9Ii4wNSIgZmlsbD0iIzNhNDE0YSIvPjxwYXRoIGQ9Ik0zNjAgMTE4OC42bC41LS4wNHYuNTRoLTF2LS41NHoiIGZpbGw9IiMzYTQxNGEiLz48cGF0aCBkPSJNMzYwIDExODguNTdsLjUyLS4wNHYuNmgtMS4wNHYtLjZ6bS0uNDguNWguOTZ2LS40OGwtLjQ4LjAyLS40OC0uMDN6IiBzdHJva2U9IiMzYTQxNGEiIHN0cm9rZS13aWR0aD0iLjA1IiBmaWxsPSIjM2E0MTRhIi8+PHBhdGggZD0iTTYzNy44OCAxMjExLjZsLTE0LjI2IDQuNjN2LTkuMjd6IiBmaWxsPSIjM2E0MTRhIi8+PHBhdGggZD0iTTYzOS41IDEyMTEuNmwtMTYuMzggNS4zMnYtMTAuNjR6bS0xNS4zOCAzLjk1bDEyLjE0LTMuOTUtMTIuMTQtMy45NXoiIHN0cm9rZT0iIzNhNDE0YSIgc3Ryb2tlLXdpZHRoPSIuMDUiIGZpbGw9IiMzYTQxNGEiLz48dXNlIHhsaW5rOmhyZWY9IiN4IiB0cmFuc2Zvcm09Im1hdHJpeCgxLDAsMCwxLDQ3NS40NTYyNzE0MjAwMTA0LDEyMDAuOTMxODM0NjQ1NzQ1KSB0cmFuc2xhdGUoMCAxNC4yMjIyMjIyMjIyMjIyMjMpIi8+PHBhdGggZD0iTTUwMCA1NDZhNiA2IDAgMCAxIDYtNmgxNDhhNiA2IDAgMCAxIDYgNnYxMDhhNiA2IDAgMCAxLTYgNkg1MDZhNiA2IDAgMCAxLTYtNnoiIHN0cm9rZT0iIzNhNDE0YSIgZmlsbD0iI2ZmZiIvPjx1c2UgeGxpbms6aHJlZj0iI3kiIHRyYW5zZm9ybT0ibWF0cml4KDEsMCwwLDEsNTEyLDU1MikgdHJhbnNsYXRlKDQ3LjEwNDkzODI3MTYwNDk0IDM4Ljc3Nzc3Nzc3Nzc3Nzc4KSIvPjx1c2UgeGxpbms6aHJlZj0iI3oiIHRyYW5zZm9ybT0ibWF0cml4KDEsMCwwLDEsNTEyLDU1MikgdHJhbnNsYXRlKDIuMDQzMjA5ODc2NTQzMjE2IDY1LjQ0NDQ0NDQ0NDQ0NDQ2KSIvPjxwYXRoIGQ9Ik03MTAuNDUgMTMyNS44YTcuOCA3LjggMCAwIDEgNy41NS01LjhoMTE2YTQuNiA0LjYgMCAwIDEgNC40NSA1LjhsLTI4LjkgMTA4LjRhNy44IDcuOCAwIDAgMS03LjU1IDUuOEg2ODZhNC42IDQuNiAwIDAgMS00LjQ1LTUuOHoiIHN0cm9rZT0iIzNhNDE0YSIgZmlsbD0iI2ZmZiIvPjx1c2UgeGxpbms6aHJlZj0iI0EiIHRyYW5zZm9ybT0ibWF0cml4KDEsMCwwLDEsNjg1LDEzMjUpIHRyYW5zbGF0ZSg0MC4yODI3Nzc3Nzc3Nzc3OCAzMS41Mjc3Nzc3Nzc3Nzc3OCkiLz48dXNlIHhsaW5rOmhyZWY9IiNCIiB0cmFuc2Zvcm09Im1hdHJpeCgxLDAsMCwxLDY4NSwxMzI1KSB0cmFuc2xhdGUoOTIuNjkwMTg1MTg1MTg1MTkgMzEuNTI3Nzc3Nzc3Nzc3NzgpIi8+PHVzZSB4bGluazpocmVmPSIjQyIgdHJhbnNmb3JtPSJtYXRyaXgoMSwwLDAsMSw2ODUsMTMyNSkgdHJhbnNsYXRlKDMyLjQ0OTQ0NDQ0NDQ0NDQ0IDU4LjE5NDQ0NDQ0NDQ0NDQ1KSIvPjx1c2UgeGxpbms6aHJlZj0iI0QiIHRyYW5zZm9ybT0ibWF0cml4KDEsMCwwLDEsNjg1LDEzMjUpIHRyYW5zbGF0ZSgzMC42MzQ2Mjk2Mjk2Mjk2MyA4NC44NjExMTExMTExMTExMSkiLz48dXNlIHhsaW5rOmhyZWY9IiNFIiB0cmFuc2Zvcm09Im1hdHJpeCgxLDAsMCwxLDY4NSwxMzI1KSB0cmFuc2xhdGUoNjkuNDYxNzkwMTIzNDU2OCA4NC44NjExMTExMTExMTExMSkiLz48cGF0aCBkPSJNNzYwIDEyNDF2NjIuMTIiIHN0cm9rZT0iIzNhNDE0YSIgZmlsbD0ibm9uZSIvPjxwYXRoIGQ9Ik03NjAuNSAxMjQxaC0xdi0uNWgxeiIgc3Ryb2tlPSIjM2E0MTRhIiBzdHJva2Utd2lkdGg9Ii4wNSIgZmlsbD0iIzNhNDE0YSIvPjxwYXRoIGQ9Ik03NjAgMTMxNy44OGwtNC42My0xNC4yNmg5LjI2eiIgc3Ryb2tlPSIjM2E0MTRhIiBmaWxsPSIjM2E0MTRhIi8+PHBhdGggZD0iTTg4MCA5MDZhNiA2IDAgMCAxIDYtNmgyMjhhNiA2IDAgMCAxIDYgNnYxMjhhNiA2IDAgMCAxLTYgNkg4ODZhNiA2IDAgMCAxLTYtNnoiIHN0cm9rZT0iIzNhNDE0YSIgZmlsbD0iI2ZmZiIvPjx1c2UgeGxpbms6aHJlZj0iI0YiIHRyYW5zZm9ybT0ibWF0cml4KDEsMCwwLDEsODkyLDkxMikgdHJhbnNsYXRlKDMzLjQzMjA5ODc2NTQzMjEgMzUuOTAyNzc3Nzc3Nzc3NzgpIi8+PHVzZSB4bGluazpocmVmPSIjRyIgdHJhbnNmb3JtPSJtYXRyaXgoMSwwLDAsMSw4OTIsOTEyKSB0cmFuc2xhdGUoOTUuNzE2MDQ5MzgyNzE2MDUgMzUuOTAyNzc3Nzc3Nzc3NzgpIi8+PHVzZSB4bGluazpocmVmPSIjSCIgdHJhbnNmb3JtPSJtYXRyaXgoMSwwLDAsMSw4OTIsOTEyKSB0cmFuc2xhdGUoMTU2Ljc2NTQzMjA5ODc2NTQ0IDM1LjkwMjc3Nzc3Nzc3Nzc4KSIvPjx1c2UgeGxpbms6aHJlZj0iI0kiIHRyYW5zZm9ybT0ibWF0cml4KDEsMCwwLDEsODkyLDkxMikgdHJhbnNsYXRlKDM4LjcwOTg3NjU0MzIwOTg3IDYyLjU2OTQ0NDQ0NDQ0NDQ1KSIvPjx1c2UgeGxpbms6aHJlZj0iI0IiIHRyYW5zZm9ybT0ibWF0cml4KDEsMCwwLDEsODkyLDkxMikgdHJhbnNsYXRlKDE0NS4yNTMwODY0MTk3NTMwNiA2Mi41Njk0NDQ0NDQ0NDQ0NSkiLz48dXNlIHhsaW5rOmhyZWY9IiNKIiB0cmFuc2Zvcm09Im1hdHJpeCgxLDAsMCwxLDg5Miw5MTIpIHRyYW5zbGF0ZSg2NC44NTE4NTE4NTE4NTE4NSA4OS4yMzYxMTExMTExMTExMSkiLz48cGF0aCBkPSJNMTE0MCAxNDI4YzAgNi42My0yNi44NiAxMi02MCAxMnMtNjAtNS4zNy02MC0xMnYtOTZjMC02LjYzIDI2Ljg2LTEyIDYwLTEyczYwIDUuMzcgNjAgMTJ6IiBzdHJva2U9IiMzYTQxNGEiIGZpbGw9IiNmZmYiLz48cGF0aCBkPSJNMTE0MCAxMzMyYzAgNi42My0yNi44NiAxMi02MCAxMnMtNjAtNS4zNy02MC0xMiIgc3Ryb2tlPSIjM2E0MTRhIiBmaWxsPSJub25lIi8+PHVzZSB4bGluazpocmVmPSIjSyIgdHJhbnNmb3JtPSJtYXRyaXgoMSwwLDAsMSwxMDI1LDEzNDkpIHRyYW5zbGF0ZSgxNC40MTM1ODAyNDY5MTM1ODMgNDcuMzQwMjc3Nzc3Nzc3NzgpIi8+PHBhdGggZD0iTTgyNS4wMiAxMzgwaDE3OC4xIiBzdHJva2U9IiMzYTQxNGEiIGZpbGw9Im5vbmUiLz48cGF0aCBkPSJNODI1LjAzIDEzODAuNWgtLjY1bC4yNy0xaC4zOHoiIHN0cm9rZT0iIzNhNDE0YSIgc3Ryb2tlLXdpZHRoPSIuMDUiIGZpbGw9IiMzYTQxNGEiLz48cGF0aCBkPSJNMTAxNy44OCAxMzgwbC0xNC4yNiA0LjYzdi05LjI3eiIgc3Ryb2tlPSIjM2E0MTRhIiBmaWxsPSIjM2E0MTRhIi8+PHBhdGggZD0iTTExMDAgODI2YTYgNiAwIDAgMSA2LTZoMjI4YTYgNiAwIDAgMSA2IDZ2NDhhNiA2IDAgMCAxLTYgNmgtMjI4YTYgNiAwIDAgMS02LTZ6IiBzdHJva2U9IiMwMDAiIHN0cm9rZS1vcGFjaXR5PSIwIiBmaWxsPSIjZmZmIiBmaWxsLW9wYWNpdHk9IjAiLz48dXNlIHhsaW5rOmhyZWY9IiNMIiB0cmFuc2Zvcm09Im1hdHJpeCgxLDAsMCwxLDExMDUsODI1KSB0cmFuc2xhdGUoNzYuOTc1MzA4NjQxOTc1MzIgMzEuMTM4ODg4ODg4ODg4ODg2KSIvPjxwYXRoIGQ9Ik01MjAgNjZhNiA2IDAgMCAxIDYtNmg1MjhhNiA2IDAgMCAxIDYgNnYxMTlhNiA2IDAgMCAxLTYgNkg1MjZhNiA2IDAgMCAxLTYtNnoiIHN0cm9rZT0iIzAwMCIgc3Ryb2tlLW9wYWNpdHk9IjAiIGZpbGw9IiNmZmYiIGZpbGwtb3BhY2l0eT0iMCIvPjx1c2UgeGxpbms6aHJlZj0iI00iIHRyYW5zZm9ybT0ibWF0cml4KDEsMCwwLDEsNTI1LDY1KSB0cmFuc2xhdGUoNzYuMTExMTExMTExMTExMiA3MS4zNjQ1ODMzMzMzMzMzMSkiLz48dXNlIHhsaW5rOmhyZWY9IiNOIiB0cmFuc2Zvcm09Im1hdHJpeCgxLDAsMCwxLDUyNSw2NSkgdHJhbnNsYXRlKDI4MS44MzMzMzMzMzMzMzMzIDcxLjM2NDU4MzMzMzMzMzMxKSIvPjxwYXRoIGQ9Ik01MDAgOTA2YTYgNiAwIDAgMSA2LTZoMTQ4YTYgNiAwIDAgMSA2IDZ2MTA4YTYgNiAwIDAgMS02IDZINTA2YTYgNiAwIDAgMS02LTZ6IiBzdHJva2U9IiMzYTQxNGEiIGZpbGw9IiNmZmYiLz48dXNlIHhsaW5rOmhyZWY9IiNPIiB0cmFuc2Zvcm09Im1hdHJpeCgxLDAsMCwxLDUxMiw5MTIpIHRyYW5zbGF0ZSg4LjM3MDM3MDM3MDM3MDM2NyAzOC43Nzc3Nzc3Nzc3Nzc3OCkiLz48dXNlIHhsaW5rOmhyZWY9IiNQIiB0cmFuc2Zvcm09Im1hdHJpeCgxLDAsMCwxLDUxMiw5MTIpIHRyYW5zbGF0ZSgxMTQuMTExMTExMTExMTExMTEgMzguNzc3Nzc3Nzc3Nzc3NzgpIi8+PHVzZSB4bGluazpocmVmPSIjUSIgdHJhbnNmb3JtPSJtYXRyaXgoMSwwLDAsMSw1MTIsOTEyKSB0cmFuc2xhdGUoMjIuNDQ0NDQ0NDQ0NDQ0NDQzIDY1LjQ0NDQ0NDQ0NDQ0NDQ2KSIvPjxwYXRoIGQ9Ik01ODAgMTAyMXYxNDNhNiA2IDAgMCAwIDYgNmgzNy4xMiIgc3Ryb2tlPSIjM2E0MTRhIiBmaWxsPSJub25lIi8+PHBhdGggZD0iTTU4MC41IDEwMjFoLTF2LS41aDF6IiBzdHJva2U9IiMzYTQxNGEiIHN0cm9rZS13aWR0aD0iLjA1IiBmaWxsPSIjM2E0MTRhIi8+PHBhdGggZD0iTTYzNy44OCAxMTcwbC0xNC4yNiA0LjYzdi05LjI3eiIgc3Ryb2tlPSIjM2E0MTRhIiBmaWxsPSIjM2E0MTRhIi8+PHBhdGggZD0iTTkyMCA1NjZhNiA2IDAgMCAxIDYtNmgxNDhhNiA2IDAgMCAxIDYgNnYxMDhhNiA2IDAgMCAxLTYgNkg5MjZhNiA2IDAgMCAxLTYtNnoiIHN0cm9rZT0iIzNhNDE0YSIgZmlsbD0iI2ZmZiIvPjx1c2UgeGxpbms6aHJlZj0iI08iIHRyYW5zZm9ybT0ibWF0cml4KDEsMCwwLDEsOTMyLDU3MikgdHJhbnNsYXRlKDguMzcwMzcwMzcwMzcwMzY3IDM4Ljc3Nzc3Nzc3Nzc3Nzc4KSIvPjx1c2UgeGxpbms6aHJlZj0iI1AiIHRyYW5zZm9ybT0ibWF0cml4KDEsMCwwLDEsOTMyLDU3MikgdHJhbnNsYXRlKDExNC4xMTExMTExMTExMTExMSAzOC43Nzc3Nzc3Nzc3Nzc3OCkiLz48dXNlIHhsaW5rOmhyZWY9IiNRIiB0cmFuc2Zvcm09Im1hdHJpeCgxLDAsMCwxLDkzMiw1NzIpIHRyYW5zbGF0ZSgyMi40NDQ0NDQ0NDQ0NDQ0NDMgNjUuNDQ0NDQ0NDQ0NDQ0NDYpIi8+PHBhdGggZD0iTTEwMDAgNTU5di00Mi4xMiIgc3Ryb2tlPSIjM2E0MTRhIiBmaWxsPSJub25lIi8+PHBhdGggZD0iTTEwMDAuNSA1NTkuNWgtMXYtLjVoMXoiIHN0cm9rZT0iIzNhNDE0YSIgc3Ryb2tlLXdpZHRoPSIuMDUiIGZpbGw9IiMzYTQxNGEiLz48cGF0aCBkPSJNMTAwMCA1MDIuMTJsNC42MyAxNC4yNmgtOS4yNnoiIHN0cm9rZT0iIzNhNDE0YSIgZmlsbD0iIzNhNDE0YSIvPjxwYXRoIGQ9Ik05MjAgNzI2YTYgNiAwIDAgMSA2LTZoMTQ4YTYgNiAwIDAgMSA2IDZ2MTA4YTYgNiAwIDAgMS02IDZIOTI2YTYgNiAwIDAgMS02LTZ6IiBzdHJva2U9IiMzYTQxNGEiIGZpbGw9IiNmZmYiLz48dXNlIHhsaW5rOmhyZWY9IiNSIiB0cmFuc2Zvcm09Im1hdHJpeCgxLDAsMCwxLDkzMiw3MzIpIHRyYW5zbGF0ZSgxNS40MDc0MDc0MDc0MDc0MDUgMzguNzc3Nzc3Nzc3Nzc3NzgpIi8+PHVzZSB4bGluazpocmVmPSIjUyIgdHJhbnNmb3JtPSJtYXRyaXgoMSwwLDAsMSw5MzIsNzMyKSB0cmFuc2xhdGUoNzcuNTY3OTAxMjM0NTY3OSAzOC43Nzc3Nzc3Nzc3Nzc3OCkiLz48dXNlIHhsaW5rOmhyZWY9IiNUIiB0cmFuc2Zvcm09Im1hdHJpeCgxLDAsMCwxLDkzMiw3MzIpIHRyYW5zbGF0ZSg0MC4yNTMwODY0MTk3NTMwOSA2NS40NDQ0NDQ0NDQ0NDQ0NikiLz48cGF0aCBkPSJNMTAwMCA4OTl2LTQyLjEyIiBzdHJva2U9IiMzYTQxNGEiIGZpbGw9Im5vbmUiLz48cGF0aCBkPSJNMTAwMC41IDg5OS41aC0xdi0uNWgxeiIgc3Ryb2tlPSIjM2E0MTRhIiBzdHJva2Utd2lkdGg9Ii4wNSIgZmlsbD0iIzNhNDE0YSIvPjxwYXRoIGQ9Ik0xMDAwIDg0Mi4xMmw0LjYzIDE0LjI2aC05LjI2eiIgc3Ryb2tlPSIjM2E0MTRhIiBmaWxsPSIjM2E0MTRhIi8+PHBhdGggZD0iTTEwMDAgNzE5di0yMi4xMiIgc3Ryb2tlPSIjM2E0MTRhIiBmaWxsPSJub25lIi8+PHBhdGggZD0iTTEwMDAuNSA3MTkuNWgtMXYtLjVoMXoiIHN0cm9rZT0iIzNhNDE0YSIgc3Ryb2tlLXdpZHRoPSIuMDUiIGZpbGw9IiMzYTQxNGEiLz48cGF0aCBkPSJNMTAwMCA2ODIuMTJsNC42MyAxNC4yNmgtOS4yNnoiIHN0cm9rZT0iIzNhNDE0YSIgZmlsbD0iIzNhNDE0YSIvPjxwYXRoIGQ9Ik0xMDc0LjAyIDEyNzkuNWwxIC4wOCAxIC4yNC45My40Ljg3LjUyLjc4LjY2LjY2Ljc4LjUzLjg3LjM4Ljk0LjI0Ljk4LjA4IDFWMTMxOWgtMXYtMzIuOThsLS4wNy0uODgtLjItLjg0LS4zMy0uOC0uNDUtLjczLS41Ni0uNjYtLjY3LS41NS0uNzMtLjQ1LS44LS4zMy0uODQtLjItLjg4LS4wN2gtNDAuOHYtMXptLTI2MS45OC00LjY0bC4yLjg0LjMzLjguNDUuNzMuNTYuNjYuNjUuNTUuNzQuNDUuOC4zMy44NC4yLjkuMDdoNDAuNzh2MWgtNDAuODNsLTEtLjA4LTEtLjI0LS45NC0uNC0uODYtLjUyLS43Ny0uNjYtLjY2LS43OC0uNTMtLjg3LS40LS45NC0uMjMtLjk4LS4wNy0xdi0xNy4xNGgxdjE3LjF6IiBzdHJva2U9IiMzYTQxNGEiIHN0cm9rZS13aWR0aD0iLjA1IiBmaWxsPSIjM2E0MTRhIi8+PHBhdGggZD0iTTEwODAuNSAxMzE5LjUybC0uNS0uMDItLjUuMDJ2LS41M2gxeiIgZmlsbD0iIzNhNDE0YSIvPjxwYXRoIGQ9Ik0xMDgwLjUzIDEzMTkuNTVsLS41My0uMDJoLS41M3YtLjU3aDEuMDZ6bS0xLS41NHYuNWwuNDctLjAzLjQ3LjAydi0uNXoiIHN0cm9rZT0iIzNhNDE0YSIgc3Ryb2tlLXdpZHRoPSIuMDUiIGZpbGw9IiMzYTQxNGEiLz48cGF0aCBkPSJNODE2LjEgMTI1Ni4zOGgtOS4yN2w0LjY0LTE0LjI2eiIgZmlsbD0iIzNhNDE0YSIvPjxwYXRoIGQ9Ik04MTYuOCAxMjU2Ljg4aC0xMC42Nmw1LjMzLTE2LjM4em0tOS4yOC0xaDcuOWwtMy45NS0xMi4xNHoiIHN0cm9rZT0iIzNhNDE0YSIgc3Ryb2tlLXdpZHRoPSIuMDUiIGZpbGw9IiMzYTQxNGEiLz48dXNlIHhsaW5rOmhyZWY9IiNVIiB0cmFuc2Zvcm09Im1hdHJpeCgxLDAsMCwxLDg1OC4yNzY1NDIzODM4MzczLDEyNjkuMzMzMTUwODI4MzMzNCkgdHJhbnNsYXRlKDAgMTQuMjIyMjIyMjIyMjIyMjIzKSIvPjx1c2UgeGxpbms6aHJlZj0iI1YiIHRyYW5zZm9ybT0ibWF0cml4KDEsMCwwLDEsODU4LjI3NjU0MjM4MzgzNzMsMTI2OS4zMzMxNTA4MjgzMzM0KSB0cmFuc2xhdGUoMTE5LjgwMjQ2OTEzNTgwMjQ3IDE0LjIyMjIyMjIyMjIyMjIyMykiLz48cGF0aCBkPSJNNDgwIDEzMjZhNiA2IDAgMCAxIDYtNmgxNDhhNiA2IDAgMCAxIDYgNnYxMDhhNiA2IDAgMCAxLTYgNkg0ODZhNiA2IDAgMCAxLTYtNnoiIHN0cm9rZT0iIzNhNDE0YSIgZmlsbD0iI2ZmZiIvPjxnPjx1c2UgeGxpbms6aHJlZj0iI1ciIHRyYW5zZm9ybT0ibWF0cml4KDEsMCwwLDEsNDkyLDEzMzIpIHRyYW5zbGF0ZSgxNy4xNjY2NjY2NjY2NjY2NjQgMzguNzc3Nzc3Nzc3Nzc3NzgpIi8+PHVzZSB4bGluazpocmVmPSIjWCIgdHJhbnNmb3JtPSJtYXRyaXgoMSwwLDAsMSw0OTIsMTMzMikgdHJhbnNsYXRlKDQuNTc0MDc0MDc0MDc0MDc2IDY1LjQ0NDQ0NDQ0NDQ0NDQ2KSIvPjx1c2UgeGxpbms6aHJlZj0iI1kiIHRyYW5zZm9ybT0ibWF0cml4KDEsMCwwLDEsNDkyLDEzMzIpIHRyYW5zbGF0ZSgxMDAuMDY3OTAxMjM0NTY3OSA2NS40NDQ0NDQ0NDQ0NDQ0NikiLz48L2c+PHBhdGggZD0iTTY5Ni41IDEyNzQuMDJsLS4wOCAxLS4yNCAxLS40LjkzLS41Mi44Ny0uNjYuNzgtLjc4LjY2LS44Ny41My0uOTQuMzgtLjk4LjI0LTEgLjA4aC0xMjRsLS44OC4wNy0uODQuMi0uOC4zMy0uNzMuNDUtLjY2LjU2LS41NS42Ny0uNDUuNzMtLjMzLjgtLjIuODQtLjA3Ljg4VjEzMTloLTF2LTMzLjAybC4wOC0xIC4yNC0xIC40LS45My41Mi0uODcuNjYtLjc4Ljc4LS42Ni44Ny0uNTMuOTQtLjM4Ljk4LS4yNCAxLS4wOGgxMjRsLjg4LS4wNy44NC0uMi44LS4zMy43My0uNDUuNjYtLjU2LjU1LS42Ny40NS0uNzMuMzMtLjguMi0uODQuMDctLjg4di0xNy4xaDF6IiBzdHJva2U9IiMzYTQxNGEiIHN0cm9rZS13aWR0aD0iLjA1IiBmaWxsPSIjM2E0MTRhIi8+PHBhdGggZD0iTTU2MC41IDEzMTkuNWgtMXYtLjVoMXoiIGZpbGw9IiMzYTQxNGEiLz48cGF0aCBkPSJNNTYwLjUyIDEzMTkuNTNoLTEuMDR2LS41N2gxLjA0em0tMS0uNTJ2LjQ3aC45NnYtLjQ2eiIgc3Ryb2tlPSIjM2E0MTRhIiBzdHJva2Utd2lkdGg9Ii4wNSIgZmlsbD0iIzNhNDE0YSIvPjxwYXRoIGQ9Ik03MDAuNjMgMTI1Ni4zOGgtOS4yNmw0LjYzLTE0LjI2eiIgZmlsbD0iIzNhNDE0YSIvPjxwYXRoIGQ9Ik03MDEuMzIgMTI1Ni44OGgtMTAuNjRsNS4zMi0xNi4zOHptLTkuMjctMWg3LjlsLTMuOTUtMTIuMTR6IiBzdHJva2U9IiMzYTQxNGEiIHN0cm9rZS13aWR0aD0iLjA1IiBmaWxsPSIjM2E0MTRhIi8+PHBhdGggZD0iTTMwMCAxMzI2YTYgNiAwIDAgMSA2LTZoMTQ4YTYgNiAwIDAgMSA2IDZ2MTA4YTYgNiAwIDAgMS02IDZIMzA2YTYgNiAwIDAgMS02LTZ6IiBzdHJva2U9IiMzYTQxNGEiIGZpbGw9IiNmZmYiLz48Zz48dXNlIHhsaW5rOmhyZWY9IiNaIiB0cmFuc2Zvcm09Im1hdHJpeCgxLDAsMCwxLDMxMiwxMzMyKSB0cmFuc2xhdGUoMjQuOTc1MzA4NjQxOTc1MzEgMzguNzc3Nzc3Nzc3Nzc3NzgpIi8+PHVzZSB4bGluazpocmVmPSIjYWEiIHRyYW5zZm9ybT0ibWF0cml4KDEsMCwwLDEsMzEyLDEzMzIpIHRyYW5zbGF0ZSgzNS45MzIwOTg3NjU0MzIxIDY1LjQ0NDQ0NDQ0NDQ0NDQ2KSIvPjwvZz48cGF0aCBkPSJNMzgwLjUgMTMxOWgtMXYtNzEuMzhoMXptMjQzLjMyLTgxLjU1aC02MC4wNXYtMWg2MC4wNXoiIHN0cm9rZT0iIzNhNDE0YSIgc3Ryb2tlLXdpZHRoPSIuMDUiIGZpbGw9IiMzYTQxNGEiLz48cGF0aCBkPSJNMzgwLjUgMTMxOS41aC0xdi0uNWgxeiIgZmlsbD0iIzNhNDE0YSIvPjxwYXRoIGQ9Ik0zODAuNTIgMTMxOS41M2gtMS4wNHYtLjU3aDEuMDR6bS0xLS41MnYuNDdoLjk2di0uNDZ6IiBzdHJva2U9IiMzYTQxNGEiIHN0cm9rZS13aWR0aD0iLjA1IiBmaWxsPSIjM2E0MTRhIi8+PHBhdGggZD0iTTYzOC42IDEyMzYuOTVsLTE0LjI4IDQuNjR2LTkuMjh6IiBmaWxsPSIjM2E0MTRhIi8+PHBhdGggZD0iTTY0MC4yIDEyMzYuOTVsLTE2LjM4IDUuMzN2LTEwLjY1em0tMTUuMzggMy45NWwxMi4xNS0zLjk1LTEyLjE1LTMuOTR6IiBzdHJva2U9IiMzYTQxNGEiIHN0cm9rZS13aWR0aD0iLjA1IiBmaWxsPSIjM2E0MTRhIi8+PGc+PHVzZSB4bGluazpocmVmPSIjYWIiIHRyYW5zZm9ybT0ibWF0cml4KDEsMCwwLDEsMzczLjg5MTA4NDIyMDI3MTEsMTIyNi4yODQ5NjA0NDYxNzUpIHRyYW5zbGF0ZSgwIDE0LjIyMjIyMjIyMjIyMjIyMykiLz48dXNlIHhsaW5rOmhyZWY9IiNhYyIgdHJhbnNmb3JtPSJtYXRyaXgoMSwwLDAsMSwzNzMuODkxMDg0MjIwMjcxMSwxMjI2LjI4NDk2MDQ0NjE3NSkgdHJhbnNsYXRlKDEwNS45NzUzMDg2NDE5NzUzMiAxNC4yMjIyMjIyMjIyMjIyMjMpIi8+PC9nPjxwYXRoIGQ9Ik00OTkgOTYwSDM2NmE2IDYgMCAwIDAtNiA2djM5LjAyIiBzdHJva2U9IiMzYTQxNGEiIGZpbGw9Im5vbmUiLz48cGF0aCBkPSJNNDk5LjUgOTYwLjVoLS41di0xaC41eiIgc3Ryb2tlPSIjM2E0MTRhIiBzdHJva2Utd2lkdGg9Ii4wNSIgZmlsbD0iIzNhNDE0YSIvPjxwYXRoIGQ9Ik0zNjAgMTAxOS44bC00LjYzLTE0LjI3aDkuMjZ6IiBzdHJva2U9IiMzYTQxNGEiIGZpbGw9IiMzYTQxNGEiLz48cGF0aCBkPSJNNTgwIDMwMXYxNC41YTYgNiAwIDAgMS02IDZIMzY2YTYgNiAwIDAgMC02IDZ2Njc3LjUyIiBzdHJva2U9IiMzYTQxNGEiIGZpbGw9Im5vbmUiLz48cGF0aCBkPSJNNTgwLjUgMzAxaC0xdi0uNWgxeiIgc3Ryb2tlPSIjM2E0MTRhIiBzdHJva2Utd2lkdGg9Ii4wNSIgZmlsbD0iIzNhNDE0YSIvPjxwYXRoIGQ9Ik0zNjAgMTAxOS44bC00LjYzLTE0LjI3aDkuMjZ6IiBzdHJva2U9IiMzYTQxNGEiIGZpbGw9IiMzYTQxNGEiLz48cGF0aCBkPSJNNTgwIDUwMXYyMi4xMiIgc3Ryb2tlPSIjM2E0MTRhIiBmaWxsPSJub25lIi8+PHBhdGggZD0iTTU4MC41IDUwMWgtMXYtLjVoMXoiIHN0cm9rZT0iIzNhNDE0YSIgc3Ryb2tlLXdpZHRoPSIuMDUiIGZpbGw9IiMzYTQxNGEiLz48cGF0aCBkPSJNNTgwIDUzNy44OGwtNC42My0xNC4yNmg5LjI2eiIgc3Ryb2tlPSIjM2E0MTRhIiBmaWxsPSIjM2E0MTRhIi8+PHBhdGggZD0iTTU4MCA2NjF2MjIuMTIiIHN0cm9rZT0iIzNhNDE0YSIgZmlsbD0ibm9uZSIvPjxwYXRoIGQ9Ik01ODAuNSA2NjFoLTF2LS41aDF6IiBzdHJva2U9IiMzYTQxNGEiIHN0cm9rZS13aWR0aD0iLjA1IiBmaWxsPSIjM2E0MTRhIi8+PHBhdGggZD0iTTU4MCA2OTcuODhsLTQuNjMtMTQuMjZoOS4yNnoiIHN0cm9rZT0iIzNhNDE0YSIgZmlsbD0iIzNhNDE0YSIvPjxwYXRoIGQ9Ik01ODAgODIxdjYyLjEyIiBzdHJva2U9IiMzYTQxNGEiIGZpbGw9Im5vbmUiLz48cGF0aCBkPSJNNTgwLjUgODIxaC0xdi0uNWgxeiIgc3Ryb2tlPSIjM2E0MTRhIiBzdHJva2Utd2lkdGg9Ii4wNSIgZmlsbD0iIzNhNDE0YSIvPjxwYXRoIGQ9Ik01ODAgODk3Ljg4bC00LjYzLTE0LjI2aDkuMjZ6IiBzdHJva2U9IiMzYTQxNGEiIGZpbGw9IiMzYTQxNGEiLz48ZGVmcz48cGF0aCBmaWxsPSIjM2E0MTRhIiBkPSJNNzUtMTdjODcgMTMgMTM0LTE4IDEzNC0xMDMgMC03OC01MS0xMDYtMTM0LTEwMHYyMDN6bTE3MS0xMDJDMjQ2IDUgMTM5IDcgMTAgMHYtOWwzMS01di0yMDhsLTMxLTR2LTEwaDEwN2M4MiAwIDEyOSAzNSAxMjkgMTE3IiBpZD0iYWQiLz48cGF0aCBmaWxsPSIjM2E0MTRhIiBkPSJNODQtMTcwYzQ5IDAgNjYgMzMgNjMgODdINDZjLTggNjAgMzggODAgOTUgNjN2MTBDMTI4LTIgMTA4IDQgODggNCAzNCA0IDE0LTI5IDE0LTg0Yy0xLTU0IDIyLTg2IDcwLTg2em0zMyA3M2MxMi01Ny01Ny04Mi02OS0yNC0xIDctMiAxNS0yIDI0aDcxIiBpZD0iYWUiLz48cGF0aCBmaWxsPSIjM2E0MTRhIiBkPSJNMTI2LTExOGM0LTM3LTQyLTMyLTY4LTI1djEzMWwyNCA0djhIOEM1LTEzIDIxLTkgMjgtMTJ2LTE0MWMtNy0zLTIzIDEtMjAtMTJoNDhsMSAxM2MyMi0xNSA3Ny0zMCA5MiAyIDMyLTIyIDEwNC0zNiAxMDQgMjl2MTA5YzggMyAyNC0yIDIxIDEyaC03NXYtOGwyNS00di0xMDZjMy0zOS00NS0zMS03Mi0yNCA3IDM3IDEgODggMyAxMzBsMjUgNHY4aC03OHYtOGwyNC00di0xMDYiIGlkPSJhZiIvPjxwYXRoIGZpbGw9IiMzYTQxNGEiIGQ9Ik0xMjUtMTE4YzQtMzctNDEtMzQtNjgtMjZ2MTMybDIzIDR2OEg4QzUtMTMgMjEtOSAyOC0xMnYtMTQxYy03LTMtMjMgMS0yMC0xMmg0N2wyIDEzYzMxLTIzIDk4LTI5IDk4IDMxdjEwOWM3IDMgMjMtMSAyMCAxMmgtNzJ2LThsMjItNHYtMTA2IiBpZD0iYWciLz48cGF0aCBmaWxsPSIjM2E0MTRhIiBkPSJNNTQtMzhjLTEgMjUgMjQgMjYgNDQgMjB2MTJDNzEgMTAgMjUgOSAyNS0zNXYtMTE1SDRjLTItMTQgMTQtMTAgMjEtMTVsMTgtMzhoMTF2MzhoMzh2MTVINTR2MTEyIiBpZD0iYWgiLz48cGF0aCBmaWxsPSIjM2E0MTRhIiBkPSJNNDctMjAwYy0yMyAwLTI1LTM5IDAtMzggMTMgMCAxOCA3IDIwIDE5LTEgMTEtOCAxOS0yMCAxOXpNNjUtMTJsMjggNHY4SDh2LThsMjgtNHYtMTQxbC0yNC00di04aDUzdjE1MyIgaWQ9ImFpIi8+PHBhdGggZmlsbD0iIzNhNDE0YSIgZD0iTTMyLTE2M2M0MS0xMCAxMDItMTQgMTAyIDM5djExMmM4IDMgMjQtMiAyMSAxMmgtNDVsLTQtMTdDODMgMTMgMyAxMyAxMy00NmMtMi01MCA0NS01MCA5Mi01MSA0LTM2LTUtNzAtNDItNTYtNiAyLTEyIDQtMTYgNi00IDcgMCAyMy0xNSAyMHYtMzZ6TTQyLTQ3YzAgNDEgNDEgMzMgNjMgMjJ2LTU5Yy0zNCAxLTYzLTEtNjMgMzciIGlkPSJhaiIvPjxnIGlkPSJhIj48dXNlIHRyYW5zZm9ybT0ibWF0cml4KDAuMDYxNzI4Mzk1MDYxNzI4MzksMCwwLDAuMDYxNzI4Mzk1MDYxNzI4MzksMCwwKSIgeGxpbms6aHJlZj0iI2FkIi8+PHVzZSB0cmFuc2Zvcm09Im1hdHJpeCgwLjA2MTcyODM5NTA2MTcyODM5LDAsMCwwLjA2MTcyODM5NTA2MTcyODM5LDE1Ljk4NzY1NDMyMDk4NzY1MywwKSIgeGxpbms6aHJlZj0iI2FlIi8+PHVzZSB0cmFuc2Zvcm09Im1hdHJpeCgwLjA2MTcyODM5NTA2MTcyODM5LDAsMCwwLjA2MTcyODM5NTA2MTcyODM5LDI1LjgwMjQ2OTEzNTgwMjQ3LDApIiB4bGluazpocmVmPSIjYWYiLz48dXNlIHRyYW5zZm9ybT0ibWF0cml4KDAuMDYxNzI4Mzk1MDYxNzI4MzksMCwwLDAuMDYxNzI4Mzk1MDYxNzI4MzksNDMuMDg2NDE5NzUzMDg2NDIsMCkiIHhsaW5rOmhyZWY9IiNhZSIvPjx1c2UgdHJhbnNmb3JtPSJtYXRyaXgoMC4wNjE3MjgzOTUwNjE3MjgzOSwwLDAsMC4wNjE3MjgzOTUwNjE3MjgzOSw1Mi45MDEyMzQ1Njc5MDEyMzQsMCkiIHhsaW5rOmhyZWY9IiNhZyIvPjx1c2UgdHJhbnNmb3JtPSJtYXRyaXgoMC4wNjE3MjgzOTUwNjE3MjgzOSwwLDAsMC4wNjE3MjgzOTUwNjE3MjgzOSw2NC4wMTIzNDU2NzkwMTIzNCwwKSIgeGxpbms6aHJlZj0iI2FoIi8+PHVzZSB0cmFuc2Zvcm09Im1hdHJpeCgwLjA2MTcyODM5NTA2MTcyODM5LDAsMCwwLjA2MTcyODM5NTA2MTcyODM5LDcwLjE4NTE4NTE4NTE4NTE4LDApIiB4bGluazpocmVmPSIjYWkiLz48dXNlIHRyYW5zZm9ybT0ibWF0cml4KDAuMDYxNzI4Mzk1MDYxNzI4MzksMCwwLDAuMDYxNzI4Mzk1MDYxNzI4MzksNzYuMzU4MDI0NjkxMzU4MDEsMCkiIHhsaW5rOmhyZWY9IiNhaiIvPjwvZz48cGF0aCBmaWxsPSIjM2E0MTRhIiBkPSJNNDUtODRjMCA2NCA1MiA4MCAxMDQgNjMgMSAyNS0zMCAyNS01NSAyNS01NiAwLTgwLTMyLTgwLTg4IDAtNzYgNjItOTggMTMxLTgwdjQ2aC0xMGMtNS0xNS00LTMxLTIzLTM1LTQ3LTEwLTY3IDIxLTY3IDY5IiBpZD0iYWsiLz48cGF0aCBmaWxsPSIjM2E0MTRhIiBkPSJNOTAtMTcwYzUyIDAgNzYgMzIgNzYgODcgMCA1NC0yNCA4Ny03NyA4Ny01MSAwLTc1LTM0LTc1LTg3IDAtNTQgMjQtODcgNzYtODd6TTg5LTEwYzM5IDAgNDYtMzUgNDYtNzMgMC0zOS03LTczLTQ2LTczLTM5IDEtNDQgMzQtNDQgNzNzNiA3MiA0NCA3MyIgaWQ9ImFsIi8+PGcgaWQ9ImIiPjx1c2UgdHJhbnNmb3JtPSJtYXRyaXgoMC4wNjE3MjgzOTUwNjE3MjgzOSwwLDAsMC4wNjE3MjgzOTUwNjE3MjgzOSwwLDApIiB4bGluazpocmVmPSIjYWQiLz48dXNlIHRyYW5zZm9ybT0ibWF0cml4KDAuMDYxNzI4Mzk1MDYxNzI4MzksMCwwLDAuMDYxNzI4Mzk1MDYxNzI4MzksMTUuOTg3NjU0MzIwOTg3NjUzLDApIiB4bGluazpocmVmPSIjYWUiLz48dXNlIHRyYW5zZm9ybT0ibWF0cml4KDAuMDYxNzI4Mzk1MDYxNzI4MzksMCwwLDAuMDYxNzI4Mzk1MDYxNzI4MzksMjUuODAyNDY5MTM1ODAyNDcsMCkiIHhsaW5rOmhyZWY9IiNhaCIvPjx1c2UgdHJhbnNmb3JtPSJtYXRyaXgoMC4wNjE3MjgzOTUwNjE3MjgzOSwwLDAsMC4wNjE3MjgzOTUwNjE3MjgzOSwzMS45NzUzMDg2NDE5NzUzMDcsMCkiIHhsaW5rOmhyZWY9IiNhZSIvPjx1c2UgdHJhbnNmb3JtPSJtYXRyaXgoMC4wNjE3MjgzOTUwNjE3MjgzOSwwLDAsMC4wNjE3MjgzOTUwNjE3MjgzOSw0MS43OTAxMjM0NTY3OTAxMiwwKSIgeGxpbms6aHJlZj0iI2FrIi8+PHVzZSB0cmFuc2Zvcm09Im1hdHJpeCgwLjA2MTcyODM5NTA2MTcyODM5LDAsMCwwLjA2MTcyODM5NTA2MTcyODM5LDUxLjYwNDkzODI3MTYwNDk0LDApIiB4bGluazpocmVmPSIjYWgiLz48dXNlIHRyYW5zZm9ybT0ibWF0cml4KDAuMDYxNzI4Mzk1MDYxNzI4MzksMCwwLDAuMDYxNzI4Mzk1MDYxNzI4MzksNTcuNzc3Nzc3Nzc3Nzc3NzgsMCkiIHhsaW5rOmhyZWY9IiNhaSIvPjx1c2UgdHJhbnNmb3JtPSJtYXRyaXgoMC4wNjE3MjgzOTUwNjE3MjgzOSwwLDAsMC4wNjE3MjgzOTUwNjE3MjgzOSw2My45NTA2MTcyODM5NTA2MSwwKSIgeGxpbms6aHJlZj0iI2FsIi8+PHVzZSB0cmFuc2Zvcm09Im1hdHJpeCgwLjA2MTcyODM5NTA2MTcyODM5LDAsMCwwLjA2MTcyODM5NTA2MTcyODM5LDc1LjA2MTcyODM5NTA2MTczLDApIiB4bGluazpocmVmPSIjYWciLz48L2c+PHBhdGggZmlsbD0iIzNhNDE0YSIgZD0iTTE1MiAwaC03TDU5LTIwM3YxODlsMzIgNXY5SDEwdi05bDMxLTV2LTIwOGwtMzEtNHYtMTBoNzJsNzYgMTgwIDg0LTE4MGg2OHYxMGwtMzEgNHYyMDhsMzEgNXY5aC05NnYtOWwzMi01di0xODkiIGlkPSJhbSIvPjxwYXRoIGZpbGw9IiMzYTQxNGEiIGQ9Ik0xMy04MWMwLTcxIDQ2LTEwMSAxMTQtODVsLTEtNzItMjgtNHYtOGg1N3YyMzhjOCAzIDI0LTIgMjEgMTJoLTQ3bC0yLTEyQzgwIDIzIDEzLTEgMTMtODF6bTc3LTc0Yy0zNyAxLTQ0IDMzLTQ1IDc0IDAgMzggOSA2NiA0NSA2NiAxNCAwIDI3LTMgMzYtN3YtMTMwYy0xMC0xLTI0LTMtMzYtMyIgaWQ9ImFuIi8+PHBhdGggZmlsbD0iIzNhNDE0YSIgZD0iTTY1LTEybDI4IDR2OEg3di04bDI4LTR2LTIyNmwtMjgtNHYtOGg1OHYyMzgiIGlkPSJhbyIvPjxnIGlkPSJjIj48dXNlIHRyYW5zZm9ybT0ibWF0cml4KDAuMDYxNzI4Mzk1MDYxNzI4MzksMCwwLDAuMDYxNzI4Mzk1MDYxNzI4MzksMCwwKSIgeGxpbms6aHJlZj0iI2FtIi8+PHVzZSB0cmFuc2Zvcm09Im1hdHJpeCgwLjA2MTcyODM5NTA2MTcyODM5LDAsMCwwLjA2MTcyODM5NTA2MTcyODM5LDE5Ljc1MzA4NjQxOTc1MzA4NSwwKSIgeGxpbms6aHJlZj0iI2FsIi8+PHVzZSB0cmFuc2Zvcm09Im1hdHJpeCgwLjA2MTcyODM5NTA2MTcyODM5LDAsMCwwLjA2MTcyODM5NTA2MTcyODM5LDMwLjg2NDE5NzUzMDg2NDE5NiwwKSIgeGxpbms6aHJlZj0iI2FuIi8+PHVzZSB0cmFuc2Zvcm09Im1hdHJpeCgwLjA2MTcyODM5NTA2MTcyODM5LDAsMCwwLjA2MTcyODM5NTA2MTcyODM5LDQxLjk3NTMwODY0MTk3NTMsMCkiIHhsaW5rOmhyZWY9IiNhZSIvPjx1c2UgdHJhbnNmb3JtPSJtYXRyaXgoMC4wNjE3MjgzOTUwNjE3MjgzOSwwLDAsMC4wNjE3MjgzOTUwNjE3MjgzOSw1MS43OTAxMjM0NTY3OTAxMiwwKSIgeGxpbms6aHJlZj0iI2FvIi8+PC9nPjxwYXRoIGZpbGw9IiMzYTQxNGEiIGQ9Ik0xNzgtNjhjMCA3OS05NSA4Mi0xNTQgNTl2LTU0aDEyYzEgMzUgMjIgNTIgNjAgNTIgNTAgMCA2OS01OCAzMy04Mi0zOS0yNC0xMDUtMjEtMTA1LTg1IDAtNjcgODYtNjYgMTQyLTUzdjQ5aC0xMmwtNi0yOWMtMzEtMjctMTIxLTctODkgNDIgMjggNDMgMTE5IDI0IDExOSAxMDEiIGlkPSJhcCIvPjxwYXRoIGZpbGw9IiMzYTQxNGEiIGQ9Ik0xNjYtODVjMyA2Ny00NCAxMDItMTExIDg1bDEgNjQgMjkgNHY5SDZ2LTlsMjEtNHYtMjE3Yy03LTMtMjIgMS0xOS0xMmg0NmwxIDljMTEtOCAyNi0xNCA0NS0xNCA0NyAyIDY0IDM2IDY2IDg1ek01Ni0xM2M1MyAxNCA4My0xNCA3OC03MiA3LTUzLTMzLTc5LTc4LTYwdjEzMiIgaWQ9ImFxIi8+PHBhdGggZmlsbD0iIzNhNDE0YSIgZD0iTTEyNi0xMTljMy0zOC00Mi0zMS02OS0yNXYxMzJsMjMgNHY4SDd2LThsMjEtNHYtMjI2bC0yNC00di04aDUzbC0xIDk4YzMxLTIyIDk5LTMxIDk5IDMxdjEwOWM3IDMgMjMtMSAyMCAxMmgtNzF2LThsMjItNHYtMTA3IiBpZD0iYXIiLz48cGF0aCBmaWxsPSIjM2E0MTRhIiBkPSJNMTMtNzF2LTI3aDk0djI3SDEzIiBpZD0iYXMiLz48cGF0aCBmaWxsPSIjM2E0MTRhIiBkPSJNNTUgMHYtOWwzOC01di0yMDdjLTIyIDEtNTMgMC03MCA0bC01IDM3SDd2LTU2aDIwN3Y1NmgtMTJsLTUtMzctNzAtM3YyMDZsMzcgNXY5SDU1IiBpZD0iYXQiLz48cGF0aCBmaWxsPSIjM2E0MTRhIiBkPSJNMTU2LTEyYzcgMyAyMy0xIDIwIDEyaC03NXYtOGwyMi00LTM4LTU4LTQ1IDU4IDIzIDR2OEgzdi04bDE5LTMgNTUtNzEtNDgtNzFjLTctMy0yMyAxLTIwLTEyaDc1djhsLTIyIDQgMzIgNDggMzctNDgtMjMtNHYtOGg1OXY4bC0xOSAzLTQ2IDYwIiBpZD0iYXUiLz48ZyBpZD0iZCI+PHVzZSB0cmFuc2Zvcm09Im1hdHJpeCgwLjA2MTcyODM5NTA2MTcyODM5LDAsMCwwLjA2MTcyODM5NTA2MTcyODM5LDAsMCkiIHhsaW5rOmhyZWY9IiNhcCIvPjx1c2UgdHJhbnNmb3JtPSJtYXRyaXgoMC4wNjE3MjgzOTUwNjE3MjgzOSwwLDAsMC4wNjE3MjgzOTUwNjE3MjgzOSwxMi4zNDU2NzkwMTIzNDU2NzksMCkiIHhsaW5rOmhyZWY9IiNhcSIvPjx1c2UgdHJhbnNmb3JtPSJtYXRyaXgoMC4wNjE3MjgzOTUwNjE3MjgzOSwwLDAsMC4wNjE3MjgzOTUwNjE3MjgzOSwyMy40NTY3OTAxMjM0NTY3OSwwKSIgeGxpbms6aHJlZj0iI2FlIi8+PHVzZSB0cmFuc2Zvcm09Im1hdHJpeCgwLjA2MTcyODM5NTA2MTcyODM5LDAsMCwwLjA2MTcyODM5NTA2MTcyODM5LDMzLjI3MTYwNDkzODI3MTYxLDApIiB4bGluazpocmVmPSIjYWUiLz48dXNlIHRyYW5zZm9ybT0ibWF0cml4KDAuMDYxNzI4Mzk1MDYxNzI4MzksMCwwLDAuMDYxNzI4Mzk1MDYxNzI4MzksNDMuMDg2NDE5NzUzMDg2NDI1LDApIiB4bGluazpocmVmPSIjYWsiLz48dXNlIHRyYW5zZm9ybT0ibWF0cml4KDAuMDYxNzI4Mzk1MDYxNzI4MzksMCwwLDAuMDYxNzI4Mzk1MDYxNzI4MzksNTIuOTAxMjM0NTY3OTAxMjQsMCkiIHhsaW5rOmhyZWY9IiNhciIvPjx1c2UgdHJhbnNmb3JtPSJtYXRyaXgoMC4wNjE3MjgzOTUwNjE3MjgzOSwwLDAsMC4wNjE3MjgzOTUwNjE3MjgzOSw2NC4wMTIzNDU2NzkwMTIzNiwwKSIgeGxpbms6aHJlZj0iI2FzIi8+PHVzZSB0cmFuc2Zvcm09Im1hdHJpeCgwLjA2MTcyODM5NTA2MTcyODM5LDAsMCwwLjA2MTcyODM5NTA2MTcyODM5LDcxLjM1ODAyNDY5MTM1ODA0LDApIiB4bGluazpocmVmPSIjYWgiLz48dXNlIHRyYW5zZm9ybT0ibWF0cml4KDAuMDYxNzI4Mzk1MDYxNzI4MzksMCwwLDAuMDYxNzI4Mzk1MDYxNzI4MzksNzcuNTMwODY0MTk3NTMwODcsMCkiIHhsaW5rOmhyZWY9IiNhbCIvPjx1c2UgdHJhbnNmb3JtPSJtYXRyaXgoMC4wNjE3MjgzOTUwNjE3MjgzOSwwLDAsMC4wNjE3MjgzOTUwNjE3MjgzOSw4OC42NDE5NzUzMDg2NDE5OSwwKSIgeGxpbms6aHJlZj0iI2FzIi8+PHVzZSB0cmFuc2Zvcm09Im1hdHJpeCgwLjA2MTcyODM5NTA2MTcyODM5LDAsMCwwLjA2MTcyODM5NTA2MTcyODM5LDk1Ljk4NzY1NDMyMDk4NzY3LDApIiB4bGluazpocmVmPSIjYXQiLz48dXNlIHRyYW5zZm9ybT0ibWF0cml4KDAuMDYxNzI4Mzk1MDYxNzI4MzksMCwwLDAuMDYxNzI4Mzk1MDYxNzI4MzksMTA3Ljk2Mjk2Mjk2Mjk2Mjk4LDApIiB4bGluazpocmVmPSIjYWUiLz48dXNlIHRyYW5zZm9ybT0ibWF0cml4KDAuMDYxNzI4Mzk1MDYxNzI4MzksMCwwLDAuMDYxNzI4Mzk1MDYxNzI4MzksMTE3Ljc3Nzc3Nzc3Nzc3Nzc5LDApIiB4bGluazpocmVmPSIjYXUiLz48dXNlIHRyYW5zZm9ybT0ibWF0cml4KDAuMDYxNzI4Mzk1MDYxNzI4MzksMCwwLDAuMDYxNzI4Mzk1MDYxNzI4MzksMTI4Ljg4ODg4ODg4ODg4ODg5LDApIiB4bGluazpocmVmPSIjYWgiLz48L2c+PGcgaWQ9ImUiPjx1c2UgdHJhbnNmb3JtPSJtYXRyaXgoMC4wNjE3MjgzOTUwNjE3MjgzOSwwLDAsMC4wNjE3MjgzOTUwNjE3MjgzOSwwLDApIiB4bGluazpocmVmPSIjYXQiLz48dXNlIHRyYW5zZm9ybT0ibWF0cml4KDAuMDYxNzI4Mzk1MDYxNzI4MzksMCwwLDAuMDYxNzI4Mzk1MDYxNzI4MzksMTEuOTc1MzA4NjQxOTc1MzA3LDApIiB4bGluazpocmVmPSIjYWUiLz48dXNlIHRyYW5zZm9ybT0ibWF0cml4KDAuMDYxNzI4Mzk1MDYxNzI4MzksMCwwLDAuMDYxNzI4Mzk1MDYxNzI4MzksMjEuNzkwMTIzNDU2NzkwMTIsMCkiIHhsaW5rOmhyZWY9IiNhdSIvPjx1c2UgdHJhbnNmb3JtPSJtYXRyaXgoMC4wNjE3MjgzOTUwNjE3MjgzOSwwLDAsMC4wNjE3MjgzOTUwNjE3MjgzOSwzMi45MDEyMzQ1Njc5MDEyMywwKSIgeGxpbms6aHJlZj0iI2FoIi8+PHVzZSB0cmFuc2Zvcm09Im1hdHJpeCgwLjA2MTcyODM5NTA2MTcyODM5LDAsMCwwLjA2MTcyODM5NTA2MTcyODM5LDM5LjA3NDA3NDA3NDA3NDA3LDApIiB4bGluazpocmVmPSIjYXMiLz48dXNlIHRyYW5zZm9ybT0ibWF0cml4KDAuMDYxNzI4Mzk1MDYxNzI4MzksMCwwLDAuMDYxNzI4Mzk1MDYxNzI4MzksNDYuNDE5NzUzMDg2NDE5NzQ2LDApIiB4bGluazpocmVmPSIjYWgiLz48dXNlIHRyYW5zZm9ybT0ibWF0cml4KDAuMDYxNzI4Mzk1MDYxNzI4MzksMCwwLDAuMDYxNzI4Mzk1MDYxNzI4MzksNTIuNTkyNTkyNTkyNTkyNTksMCkiIHhsaW5rOmhyZWY9IiNhbCIvPjx1c2UgdHJhbnNmb3JtPSJtYXRyaXgoMC4wNjE3MjgzOTUwNjE3MjgzOSwwLDAsMC4wNjE3MjgzOTUwNjE3MjgzOSw2My43MDM3MDM3MDM3MDM3LDApIiB4bGluazpocmVmPSIjYXMiLz48dXNlIHRyYW5zZm9ybT0ibWF0cml4KDAuMDYxNzI4Mzk1MDYxNzI4MzksMCwwLDAuMDYxNzI4Mzk1MDYxNzI4MzksNzEuMDQ5MzgyNzE2MDQ5MzgsMCkiIHhsaW5rOmhyZWY9IiNhcCIvPjx1c2UgdHJhbnNmb3JtPSJtYXRyaXgoMC4wNjE3MjgzOTUwNjE3MjgzOSwwLDAsMC4wNjE3MjgzOTUwNjE3MjgzOSw4My4zOTUwNjE3MjgzOTUwNiwwKSIgeGxpbms6aHJlZj0iI2FxIi8+PHVzZSB0cmFuc2Zvcm09Im1hdHJpeCgwLjA2MTcyODM5NTA2MTcyODM5LDAsMCwwLjA2MTcyODM5NTA2MTcyODM5LDk0LjUwNjE3MjgzOTUwNjE4LDApIiB4bGluazpocmVmPSIjYWUiLz48dXNlIHRyYW5zZm9ybT0ibWF0cml4KDAuMDYxNzI4Mzk1MDYxNzI4MzksMCwwLDAuMDYxNzI4Mzk1MDYxNzI4MzksMTA0LjMyMDk4NzY1NDMyMDk5LDApIiB4bGluazpocmVmPSIjYWUiLz48dXNlIHRyYW5zZm9ybT0ibWF0cml4KDAuMDYxNzI4Mzk1MDYxNzI4MzksMCwwLDAuMDYxNzI4Mzk1MDYxNzI4MzksMTE0LjEzNTgwMjQ2OTEzNTgsMCkiIHhsaW5rOmhyZWY9IiNhayIvPjx1c2UgdHJhbnNmb3JtPSJtYXRyaXgoMC4wNjE3MjgzOTUwNjE3MjgzOSwwLDAsMC4wNjE3MjgzOTUwNjE3MjgzOSwxMjMuOTUwNjE3MjgzOTUwNiwwKSIgeGxpbms6aHJlZj0iI2FyIi8+PC9nPjxnIGlkPSJmIj48dXNlIHRyYW5zZm9ybT0ibWF0cml4KDAuMDYxNzI4Mzk1MDYxNzI4MzksMCwwLDAuMDYxNzI4Mzk1MDYxNzI4MzksMCwwKSIgeGxpbms6aHJlZj0iI2FwIi8+PHVzZSB0cmFuc2Zvcm09Im1hdHJpeCgwLjA2MTcyODM5NTA2MTcyODM5LDAsMCwwLjA2MTcyODM5NTA2MTcyODM5LDEyLjM0NTY3OTAxMjM0NTY3OSwwKSIgeGxpbms6aHJlZj0iI2FxIi8+PHVzZSB0cmFuc2Zvcm09Im1hdHJpeCgwLjA2MTcyODM5NTA2MTcyODM5LDAsMCwwLjA2MTcyODM5NTA2MTcyODM5LDIzLjQ1Njc5MDEyMzQ1Njc5LDApIiB4bGluazpocmVmPSIjYWUiLz48dXNlIHRyYW5zZm9ybT0ibWF0cml4KDAuMDYxNzI4Mzk1MDYxNzI4MzksMCwwLDAuMDYxNzI4Mzk1MDYxNzI4MzksMzMuMjcxNjA0OTM4MjcxNjEsMCkiIHhsaW5rOmhyZWY9IiNhZSIvPjx1c2UgdHJhbnNmb3JtPSJtYXRyaXgoMC4wNjE3MjgzOTUwNjE3MjgzOSwwLDAsMC4wNjE3MjgzOTUwNjE3MjgzOSw0My4wODY0MTk3NTMwODY0MjUsMCkiIHhsaW5rOmhyZWY9IiNhayIvPjx1c2UgdHJhbnNmb3JtPSJtYXRyaXgoMC4wNjE3MjgzOTUwNjE3MjgzOSwwLDAsMC4wNjE3MjgzOTUwNjE3MjgzOSw1Mi45MDEyMzQ1Njc5MDEyNCwwKSIgeGxpbms6aHJlZj0iI2FyIi8+PC9nPjxwYXRoIGZpbGw9IiMzYTQxNGEiIGQ9Ik0xMjQtMTNDODkgOCAyNiAxNSAyNi00NXYtMTA4Yy04LTMtMjQgMi0yMS0xMmg1MHYxMThjLTMgMzcgNDIgMzIgNjkgMjV2LTEzMWwtMjUtNHYtOGg1NHYxNTNjOCAzIDI0LTIgMjEgMTJoLTQ4IiBpZD0iYXYiLz48ZyBpZD0iZyI+PHVzZSB0cmFuc2Zvcm09Im1hdHJpeCgwLjA2MTcyODM5NTA2MTcyODM5LDAsMCwwLjA2MTcyODM5NTA2MTcyODM5LDAsMCkiIHhsaW5rOmhyZWY9IiNhaSIvPjx1c2UgdHJhbnNmb3JtPSJtYXRyaXgoMC4wNjE3MjgzOTUwNjE3MjgzOSwwLDAsMC4wNjE3MjgzOTUwNjE3MjgzOSw2LjE3MjgzOTUwNjE3MjgzOSwwKSIgeGxpbms6aHJlZj0iI2FnIi8+PHVzZSB0cmFuc2Zvcm09Im1hdHJpeCgwLjA2MTcyODM5NTA2MTcyODM5LDAsMCwwLjA2MTcyODM5NTA2MTcyODM5LDE3LjI4Mzk1MDYxNzI4Mzk1LDApIiB4bGluazpocmVmPSIjYXEiLz48dXNlIHRyYW5zZm9ybT0ibWF0cml4KDAuMDYxNzI4Mzk1MDYxNzI4MzksMCwwLDAuMDYxNzI4Mzk1MDYxNzI4MzksMjguMzk1MDYxNzI4Mzk1MDYsMCkiIHhsaW5rOmhyZWY9IiNhdiIvPjx1c2UgdHJhbnNmb3JtPSJtYXRyaXgoMC4wNjE3MjgzOTUwNjE3MjgzOSwwLDAsMC4wNjE3MjgzOTUwNjE3MjgzOSwzOS41MDYxNzI4Mzk1MDYxNywwKSIgeGxpbms6aHJlZj0iI2FoIi8+PC9nPjxnIGlkPSJoIj48dXNlIHRyYW5zZm9ybT0ibWF0cml4KDAuMDYxNzI4Mzk1MDYxNzI4MzksMCwwLDAuMDYxNzI4Mzk1MDYxNzI4MzksMCwwKSIgeGxpbms6aHJlZj0iI2FwIi8+PHVzZSB0cmFuc2Zvcm09Im1hdHJpeCgwLjA2MTcyODM5NTA2MTcyODM5LDAsMCwwLjA2MTcyODM5NTA2MTcyODM5LDEyLjM0NTY3OTAxMjM0NTY3OSwwKSIgeGxpbms6aHJlZj0iI2FxIi8+PHVzZSB0cmFuc2Zvcm09Im1hdHJpeCgwLjA2MTcyODM5NTA2MTcyODM5LDAsMCwwLjA2MTcyODM5NTA2MTcyODM5LDIzLjQ1Njc5MDEyMzQ1Njc5LDApIiB4bGluazpocmVmPSIjYWUiLz48dXNlIHRyYW5zZm9ybT0ibWF0cml4KDAuMDYxNzI4Mzk1MDYxNzI4MzksMCwwLDAuMDYxNzI4Mzk1MDYxNzI4MzksMzMuMjcxNjA0OTM4MjcxNjEsMCkiIHhsaW5rOmhyZWY9IiNhZSIvPjx1c2UgdHJhbnNmb3JtPSJtYXRyaXgoMC4wNjE3MjgzOTUwNjE3MjgzOSwwLDAsMC4wNjE3MjgzOTUwNjE3MjgzOSw0My4wODY0MTk3NTMwODY0MjUsMCkiIHhsaW5rOmhyZWY9IiNhayIvPjx1c2UgdHJhbnNmb3JtPSJtYXRyaXgoMC4wNjE3MjgzOTUwNjE3MjgzOSwwLDAsMC4wNjE3MjgzOTUwNjE3MjgzOSw1Mi45MDEyMzQ1Njc5MDEyNCwwKSIgeGxpbms6aHJlZj0iI2FyIi8+PC9nPjxnIGlkPSJpIj48dXNlIHRyYW5zZm9ybT0ibWF0cml4KDAuMDYxNzI4Mzk1MDYxNzI4MzksMCwwLDAuMDYxNzI4Mzk1MDYxNzI4MzksMCwwKSIgeGxpbms6aHJlZj0iI2FsIi8+PHVzZSB0cmFuc2Zvcm09Im1hdHJpeCgwLjA2MTcyODM5NTA2MTcyODM5LDAsMCwwLjA2MTcyODM5NTA2MTcyODM5LDExLjExMTExMTExMTExMTExLDApIiB4bGluazpocmVmPSIjYXYiLz48dXNlIHRyYW5zZm9ybT0ibWF0cml4KDAuMDYxNzI4Mzk1MDYxNzI4MzksMCwwLDAuMDYxNzI4Mzk1MDYxNzI4MzksMjIuMjIyMjIyMjIyMjIyMjIsMCkiIHhsaW5rOmhyZWY9IiNhaCIvPjx1c2UgdHJhbnNmb3JtPSJtYXRyaXgoMC4wNjE3MjgzOTUwNjE3MjgzOSwwLDAsMC4wNjE3MjgzOTUwNjE3MjgzOSwyOC4zOTUwNjE3MjgzOTUwNiwwKSIgeGxpbms6aHJlZj0iI2FxIi8+PHVzZSB0cmFuc2Zvcm09Im1hdHJpeCgwLjA2MTcyODM5NTA2MTcyODM5LDAsMCwwLjA2MTcyODM5NTA2MTcyODM5LDM5LjUwNjE3MjgzOTUwNjE3LDApIiB4bGluazpocmVmPSIjYXYiLz48dXNlIHRyYW5zZm9ybT0ibWF0cml4KDAuMDYxNzI4Mzk1MDYxNzI4MzksMCwwLDAuMDYxNzI4Mzk1MDYxNzI4MzksNTAuNjE3MjgzOTUwNjE3MjgsMCkiIHhsaW5rOmhyZWY9IiNhaCIvPjwvZz48cGF0aCBmaWxsPSIjM2E0MTRhIiBkPSJNMzUtMTgwSDI0di01NmgxNDZ2MTRMNjUgMEg0MmwxMDMtMjA5SDQxIiBpZD0iYXciLz48cGF0aCBmaWxsPSIjM2E0MTRhIiBkPSJNNzUtMTMxYzUwIDIgOTMgMyA5My00OCAwLTQ2LTQ4LTQxLTkzLTQxdjg5em0wIDExNWM1NSA0IDExMSA2IDExMS01MSAwLTUzLTU4LTQ4LTExMS00OHY5OXptMTQ4LTUyQzIyMyAyNCAxMDItMyAxMCAwdi05bDMxLTV2LTIwOGwtMzEtNHYtMTBjNzcgNiAxOTMtMjQgMTk0IDU2IDAgMzMtMjAgNDgtNDggNTQgMzYgNSA2NyAyMCA2NyA1OCIgaWQ9ImF4Ii8+PGcgaWQ9ImoiPjx1c2UgdHJhbnNmb3JtPSJtYXRyaXgoMC4wNjE3MjgzOTUwNjE3MjgzOSwwLDAsMC4wNjE3MjgzOTUwNjE3MjgzOSwwLDApIiB4bGluazpocmVmPSIjYXciLz48dXNlIHRyYW5zZm9ybT0ibWF0cml4KDAuMDYxNzI4Mzk1MDYxNzI4MzksMCwwLDAuMDYxNzI4Mzk1MDYxNzI4MzksMTEuMTExMTExMTExMTExMTEsMCkiIHhsaW5rOmhyZWY9IiNheCIvPjwvZz48cGF0aCBmaWxsPSIjM2E0MTRhIiBkPSJNMTExLTIyNmwtMzYgNHYyMDdjMzMtMSA3MyAyIDEwMS00bDExLTQ5aDExbC0zIDY4SDEwdi05bDMxLTV2LTIwOGwtMzEtNHYtMTBoMTAxdjEwIiBpZD0iYXkiLz48cGF0aCBmaWxsPSIjM2E0MTRhIiBkPSJNMjQtMjMxYzY2LTIxIDE1NiAyIDEyOCA4MUMxMzItOTIgNzgtNjYgMzktMjdoMTIxVjBIMTZ2LTI2bDU5LTU0YzI2LTI1IDQ3LTQ3IDQ3LTk3IDAtNDgtNDctNTctODEtMzdsLTYgMjlIMjR2LTQ2IiBpZD0iYXoiLz48ZyBpZD0iayI+PHVzZSB0cmFuc2Zvcm09Im1hdHJpeCgwLjA2MTcyODM5NTA2MTcyODM5LDAsMCwwLjA2MTcyODM5NTA2MTcyODM5LDAsMCkiIHhsaW5rOmhyZWY9IiNheSIvPjx1c2UgdHJhbnNmb3JtPSJtYXRyaXgoMC4wNjE3MjgzOTUwNjE3MjgzOSwwLDAsMC4wNjE3MjgzOTUwNjE3MjgzOSwxMy41MTg1MTg1MTg1MTg1MTcsMCkiIHhsaW5rOmhyZWY9IiNhbyIvPjx1c2UgdHJhbnNmb3JtPSJtYXRyaXgoMC4wNjE3MjgzOTUwNjE3MjgzOSwwLDAsMC4wNjE3MjgzOTUwNjE3MjgzOSwxOS42OTEzNTgwMjQ2OTEzNTgsMCkiIHhsaW5rOmhyZWY9IiNhaiIvPjx1c2UgdHJhbnNmb3JtPSJtYXRyaXgoMC4wNjE3MjgzOTUwNjE3MjgzOSwwLDAsMC4wNjE3MjgzOTUwNjE3MjgzOSwyOS41MDYxNzI4Mzk1MDYxNywwKSIgeGxpbms6aHJlZj0iI2FmIi8+PHVzZSB0cmFuc2Zvcm09Im1hdHJpeCgwLjA2MTcyODM5NTA2MTcyODM5LDAsMCwwLjA2MTcyODM5NTA2MTcyODM5LDQ2Ljc5MDEyMzQ1Njc5MDEyLDApIiB4bGluazpocmVmPSIjYWoiLz48dXNlIHRyYW5zZm9ybT0ibWF0cml4KDAuMDYxNzI4Mzk1MDYxNzI4MzksMCwwLDAuMDYxNzI4Mzk1MDYxNzI4MzksNTYuNjA0OTM4MjcxNjA0OTQsMCkiIHhsaW5rOmhyZWY9IiNhcyIvPjx1c2UgdHJhbnNmb3JtPSJtYXRyaXgoMC4wNjE3MjgzOTUwNjE3MjgzOSwwLDAsMC4wNjE3MjgzOTUwNjE3MjgzOSw2My45NTA2MTcyODM5NTA2MSwwKSIgeGxpbms6aHJlZj0iI2F6Ii8+PC9nPjxwYXRoIGZpbGw9IiMzMzMiIGQ9Ik0yMjItMTcwYzAgMzctMTggNTYtNDcgNjVsNjMgODcgMjUgNVYwaC03NmwtNjYtMTAwSDkydjgybDMwIDVWMEg4di0xM2wyOC01di0yMDBsLTMwLTV2LTEzYzg5IDUgMjE0LTI0IDIxNiA2NnpNOTItMTE5YzQ1IDIgNzUtMyA3NS01MHMtMzAtNDktNzUtNDd2OTciIGlkPSJhQSIvPjxwYXRoIGZpbGw9IiMzMzMiIGQ9Ik0xMi04M2MwLTU1IDIyLTg1IDc1LTg2IDUyLTEgNjYgMzMgNjMgODhINjRjLTEgMzcgNiA2NCA0NCA2MyAxNCAwIDI4LTQgMzktNiAzIDI4LTI4IDI1LTU1IDI3LTU3IDQtODAtMzEtODAtODZ6bTkwLTE3YzItMjYgMC02My0yNy00OC0xMCA5LTExIDI4LTExIDQ4aDM4IiBpZD0iYUIiLz48cGF0aCBmaWxsPSIjMzMzIiBkPSJNNzctMTZsMTggNFYwSDh2LTEybDE4LTR2LTEzM2wtMTctNXYtMTFoNjh2MTQ5ek01MS0xOTZjLTE2IDAtMjctMTAtMjctMjdzMTAtMjcgMjctMjcgMjcgMTEgMjcgMjdjMCAxNy0xMCAyNy0yNyAyNyIgaWQ9ImFDIi8+PHBhdGggZmlsbD0iIzMzMyIgZD0iTTEyNy0xMTRjMy0zMS0yNi0zOC01MC0yNXYxMjNsMTUgNFYwSDEwdi0xMmwxNi00di0xMzNsLTE2LTV2LTExaDY0bDIgMTRjMzEtMjMgMTAyLTMyIDEwMiAzMHYxMDVsMTcgNFYwaC04MnYtMTJsMTQtNHYtOTgiIGlkPSJhRCIvPjxwYXRoIGZpbGw9IiMzMzMiIGQ9Ik0xMDctMjMwYy0zMS0xMy0yOSAzMC0yOSA2NWgzNHYxOEg3OHYxMzFsMjcgNFYwSDEwdi0xMmwxOC00di0xMzFIM3YtMTJsMjUtN2MtOC02NiAzMS05OCA5NS04NHYzOWgtMTEiIGlkPSJhRSIvPjxwYXRoIGZpbGw9IiMzMzMiIGQ9Ik05MC0xNzBjNTQtMSA3NiAzMiA3NiA4NyAxIDU2LTIzIDg3LTc3IDg3LTUzIDAtNzUtMzItNzUtODdzMjMtODYgNzYtODd6TTg5LTE0YzI4LTIgMjYtMzggMjYtNjlzMy02OS0yNi02OWMtMjcgMC0yNCAzOS0yNCA2OXMtMyA2NiAyNCA2OSIgaWQ9ImFGIi8+PHBhdGggZmlsbD0iIzMzMyIgZD0iTTEzMi0xMzJjLTIxIDAtMzcgOS01MCAxNnYxMDBsMjYgNFYwSDEwdi0xMmwyMS00di0xMzNsLTIxLTV2LTExaDY5bDIgMzRjMTctMTggMzUtNDEgNzEtNDB2NjFjLTE3IDMtMTQtMTQtMjAtMjIiIGlkPSJhRyIvPjxwYXRoIGZpbGw9IiMzMzMiIGQ9Ik0xMDktMThjMTUgMCAzMS0yIDQyLTZ2MTRjLTExIDktMzEgMTMtNTEgMTMtNTkgMC04Ni0yOC04OC04Ni0zLTc1IDY2LTEwMSAxMzUtODB2NDhoLTEzYy0zLTIwLTctNDAtMzQtMzctNTEgNy01NSAxMzggOSAxMzQiIGlkPSJhSCIvPjxwYXRoIGZpbGw9IiMzMzMiIGQ9Ik0xMjYtMTE0YzMtMzEtMjctMzctNDktMjV2MTIzbDE1IDRWMEgxMHYtMTJsMTYtNHYtMTMzbC0xNi01di0xMWg2NGwyIDE0YzI0LTE2IDgxLTMzIDk2IDMgMzAtMjQgMTA1LTM5IDEwNSAyN3YxMDVsMTcgNFYwaC04MnYtMTJsMTQtNHYtOThjNC0zMy0yNy0zNy01MS0yNCA1IDM1IDAgODIgMiAxMjJsMTcgNFYwaC04M3YtMTJsMTUtNHYtOTgiIGlkPSJhSSIvPjxwYXRoIGZpbGw9IiMzMzMiIGQ9Ik03OC00MWMtMiAyNCAyMSAyNiA0MCAyMEMxMjIgMyA5OCAyIDc3IDQgNSAxMCAzMi04NCAyNy0xNDdINnYtMTFsMjUtNyAyMS0zOGgyNnYzOGgzNXYxOEg3OHYxMDYiIGlkPSJhSiIvPjxnIGlkPSJsIj48dXNlIHRyYW5zZm9ybT0ibWF0cml4KDAuMDQ5MzgyNzE2MDQ5MzgyNzIsMCwwLDAuMDQ5MzgyNzE2MDQ5MzgyNzIsMCwwKSIgeGxpbms6aHJlZj0iI2FBIi8+PHVzZSB0cmFuc2Zvcm09Im1hdHJpeCgwLjA0OTM4MjcxNjA0OTM4MjcyLDAsMCwwLjA0OTM4MjcxNjA0OTM4MjcyLDEyLjc5MDEyMzQ1Njc5MDEyNSwwKSIgeGxpbms6aHJlZj0iI2FCIi8+PHVzZSB0cmFuc2Zvcm09Im1hdHJpeCgwLjA0OTM4MjcxNjA0OTM4MjcyLDAsMCwwLjA0OTM4MjcxNjA0OTM4MjcyLDIwLjY0MTk3NTMwODY0MTk3OCwwKSIgeGxpbms6aHJlZj0iI2FDIi8+PHVzZSB0cmFuc2Zvcm09Im1hdHJpeCgwLjA0OTM4MjcxNjA0OTM4MjcyLDAsMCwwLjA0OTM4MjcxNjA0OTM4MjcyLDI1LjU4MDI0NjkxMzU4MDI1LDApIiB4bGluazpocmVmPSIjYUQiLz48dXNlIHRyYW5zZm9ybT0ibWF0cml4KDAuMDQ5MzgyNzE2MDQ5MzgyNzIsMCwwLDAuMDQ5MzgyNzE2MDQ5MzgyNzIsMzUuNDU2NzkwMTIzNDU2OCwwKSIgeGxpbms6aHJlZj0iI2FFIi8+PHVzZSB0cmFuc2Zvcm09Im1hdHJpeCgwLjA0OTM4MjcxNjA0OTM4MjcyLDAsMCwwLjA0OTM4MjcxNjA0OTM4MjcyLDQxLjMzMzMzMzMzMzMzMzM0LDApIiB4bGluazpocmVmPSIjYUYiLz48dXNlIHRyYW5zZm9ybT0ibWF0cml4KDAuMDQ5MzgyNzE2MDQ5MzgyNzIsMCwwLDAuMDQ5MzgyNzE2MDQ5MzgyNzIsNTAuMjIyMjIyMjIyMjIyMjMsMCkiIHhsaW5rOmhyZWY9IiNhRyIvPjx1c2UgdHJhbnNmb3JtPSJtYXRyaXgoMC4wNDkzODI3MTYwNDkzODI3MiwwLDAsMC4wNDkzODI3MTYwNDkzODI3Miw1Ny43MjgzOTUwNjE3Mjg0MSwwKSIgeGxpbms6aHJlZj0iI2FIIi8+PHVzZSB0cmFuc2Zvcm09Im1hdHJpeCgwLjA0OTM4MjcxNjA0OTM4MjcyLDAsMCwwLjA0OTM4MjcxNjA0OTM4MjcyLDY1LjU4MDI0NjkxMzU4MDI1LDApIiB4bGluazpocmVmPSIjYUIiLz48dXNlIHRyYW5zZm9ybT0ibWF0cml4KDAuMDQ5MzgyNzE2MDQ5MzgyNzIsMCwwLDAuMDQ5MzgyNzE2MDQ5MzgyNzIsNzMuNDMyMDk4NzY1NDMyMSwwKSIgeGxpbms6aHJlZj0iI2FJIi8+PHVzZSB0cmFuc2Zvcm09Im1hdHJpeCgwLjA0OTM4MjcxNjA0OTM4MjcyLDAsMCwwLjA0OTM4MjcxNjA0OTM4MjcyLDg4LjE5NzUzMDg2NDE5NzUzLDApIiB4bGluazpocmVmPSIjYUIiLz48dXNlIHRyYW5zZm9ybT0ibWF0cml4KDAuMDQ5MzgyNzE2MDQ5MzgyNzIsMCwwLDAuMDQ5MzgyNzE2MDQ5MzgyNzIsOTYuMDQ5MzgyNzE2MDQ5MzgsMCkiIHhsaW5rOmhyZWY9IiNhRCIvPjx1c2UgdHJhbnNmb3JtPSJtYXRyaXgoMC4wNDkzODI3MTYwNDkzODI3MiwwLDAsMC4wNDkzODI3MTYwNDkzODI3MiwxMDUuOTI1OTI1OTI1OTI1OTQsMCkiIHhsaW5rOmhyZWY9IiNhSiIvPjwvZz48cGF0aCBmaWxsPSIjMzMzIiBkPSJNMTI4LTIyM2wtMzYgNXYxOTlsMTAzLTMgMTQtNDloMTZsLTcgNzFINnYtMTNsMzAtNXYtMjAwbC0zMC01di0xM2gxMjJ2MTMiIGlkPSJhSyIvPjxwYXRoIGZpbGw9IiMzMzMiIGQ9Ik0zMS0xNjNjNTEtNSAxMjctMjAgMTI3IDQwdjEwN2wxNyA0VjBoLTYxbC00LTEzQzgyIDEzIDEyIDEyIDEyLTQ2YzAtNTEgNDYtNTIgOTUtNTMgOS00NS0yMi02OS01Ny00NGwtNyAyMEgzMXYtNDB6TTYyLTQ3YzAgMzAgMjYgMzQgNDUgMjN2LTU5Yy0yOCAwLTQ1IDYtNDUgMzYiIGlkPSJhTCIvPjxwYXRoIGZpbGw9IiMzMzMiIGQ9Ik05IDQxYzItMTggMTgtMjYgMzItMzNDMjkgMSAxNi05IDE2LTI4bDI5LTMzYy0yMS05LTMxLTI1LTMxLTUxLTItNTYgNjEtNjUgMTExLTUzbDM5LTIwYzEzIDEyLTkgMjQtMTQgMzYgMzUgNTQtMTcgMTE0LTkwIDkyLTE3IDM0IDI3IDI4IDU2IDI4IDM2LTEgNjEgMTIgNjAgNDYtMiA0Ni0zOSA2Mi05MSA2Mi0zOCAwLTcxLTYtNzYtMzh6bTM1LTNjNiAzNSA5NyAyOSA5NC05LTItMjgtNTAtMTQtNzgtMTctOCA3LTE1IDE0LTE2IDI2em0yMC0xNTBjMCAyMiA0IDQwIDIzIDQwIDIwIDAgMjQtMTcgMjQtNDAgMC0yNC00LTQwLTI0LTQwLTE5IDAtMjMgMTctMjMgNDAiIGlkPSJhTSIvPjxnIGlkPSJtIj48dXNlIHRyYW5zZm9ybT0ibWF0cml4KDAuMDQ5MzgyNzE2MDQ5MzgyNzIsMCwwLDAuMDQ5MzgyNzE2MDQ5MzgyNzIsMCwwKSIgeGxpbms6aHJlZj0iI2FLIi8+PHVzZSB0cmFuc2Zvcm09Im1hdHJpeCgwLjA0OTM4MjcxNjA0OTM4MjcyLDAsMCwwLjA0OTM4MjcxNjA0OTM4MjcyLDExLjg1MTg1MTg1MTg1MTg1MywwKSIgeGxpbms6aHJlZj0iI2FCIi8+PHVzZSB0cmFuc2Zvcm09Im1hdHJpeCgwLjA0OTM4MjcxNjA0OTM4MjcyLDAsMCwwLjA0OTM4MjcxNjA0OTM4MjcyLDE5LjcwMzcwMzcwMzcwMzcwNiwwKSIgeGxpbms6aHJlZj0iI2FMIi8+PHVzZSB0cmFuc2Zvcm09Im1hdHJpeCgwLjA0OTM4MjcxNjA0OTM4MjcyLDAsMCwwLjA0OTM4MjcxNjA0OTM4MjcyLDI4LjU5MjU5MjU5MjU5MjU5NSwwKSIgeGxpbms6aHJlZj0iI2FHIi8+PHVzZSB0cmFuc2Zvcm09Im1hdHJpeCgwLjA0OTM4MjcxNjA0OTM4MjcyLDAsMCwwLjA0OTM4MjcxNjA0OTM4MjcyLDM2LjQ0NDQ0NDQ0NDQ0NDQ1LDApIiB4bGluazpocmVmPSIjYUQiLz48dXNlIHRyYW5zZm9ybT0ibWF0cml4KDAuMDQ5MzgyNzE2MDQ5MzgyNzIsMCwwLDAuMDQ5MzgyNzE2MDQ5MzgyNzIsNDYuMzIwOTg3NjU0MzIwOTk0LDApIiB4bGluazpocmVmPSIjYUMiLz48dXNlIHRyYW5zZm9ybT0ibWF0cml4KDAuMDQ5MzgyNzE2MDQ5MzgyNzIsMCwwLDAuMDQ5MzgyNzE2MDQ5MzgyNzIsNTEuMjU5MjU5MjU5MjU5MjcsMCkiIHhsaW5rOmhyZWY9IiNhRCIvPjx1c2UgdHJhbnNmb3JtPSJtYXRyaXgoMC4wNDkzODI3MTYwNDkzODI3MiwwLDAsMC4wNDkzODI3MTYwNDkzODI3Miw2MS4xMzU4MDI0NjkxMzU4MSwwKSIgeGxpbms6aHJlZj0iI2FNIi8+PC9nPjxnIGlkPSJuIj48dXNlIHRyYW5zZm9ybT0ibWF0cml4KDAuMDQ5MzgyNzE2MDQ5MzgyNzIsMCwwLDAuMDQ5MzgyNzE2MDQ5MzgyNzIsMCwwKSIgeGxpbms6aHJlZj0iI2FKIi8+PHVzZSB0cmFuc2Zvcm09Im1hdHJpeCgwLjA0OTM4MjcxNjA0OTM4MjcyLDAsMCwwLjA0OTM4MjcxNjA0OTM4MjcyLDUuODc2NTQzMjA5ODc2NTQzNSwwKSIgeGxpbms6aHJlZj0iI2FHIi8+PHVzZSB0cmFuc2Zvcm09Im1hdHJpeCgwLjA0OTM4MjcxNjA0OTM4MjcyLDAsMCwwLjA0OTM4MjcxNjA0OTM4MjcyLDEzLjcyODM5NTA2MTcyODM5NiwwKSIgeGxpbms6aHJlZj0iI2FMIi8+PHVzZSB0cmFuc2Zvcm09Im1hdHJpeCgwLjA0OTM4MjcxNjA0OTM4MjcyLDAsMCwwLjA0OTM4MjcxNjA0OTM4MjcyLDIyLjYxNzI4Mzk1MDYxNzI4NSwwKSIgeGxpbms6aHJlZj0iI2FDIi8+PHVzZSB0cmFuc2Zvcm09Im1hdHJpeCgwLjA0OTM4MjcxNjA0OTM4MjcyLDAsMCwwLjA0OTM4MjcxNjA0OTM4MjcyLDI3LjU1NTU1NTU1NTU1NTU1NywwKSIgeGxpbms6aHJlZj0iI2FEIi8+PHVzZSB0cmFuc2Zvcm09Im1hdHJpeCgwLjA0OTM4MjcxNjA0OTM4MjcyLDAsMCwwLjA0OTM4MjcxNjA0OTM4MjcyLDM3LjQzMjA5ODc2NTQzMjEsMCkiIHhsaW5rOmhyZWY9IiNhQyIvPjx1c2UgdHJhbnNmb3JtPSJtYXRyaXgoMC4wNDkzODI3MTYwNDkzODI3MiwwLDAsMC4wNDkzODI3MTYwNDkzODI3Miw0Mi4zNzAzNzAzNzAzNzAzNzQsMCkiIHhsaW5rOmhyZWY9IiNhRCIvPjx1c2UgdHJhbnNmb3JtPSJtYXRyaXgoMC4wNDkzODI3MTYwNDkzODI3MiwwLDAsMC4wNDkzODI3MTYwNDkzODI3Miw1Mi4yNDY5MTM1ODAyNDY5MiwwKSIgeGxpbms6aHJlZj0iI2FNIi8+PC9nPjxwYXRoIGZpbGw9IiMzMzMiIGQ9Ik04MSA1TDE1LTE0OWMtNy0yLTEzLTUtMTEtMTZoODR2MTFsLTIwIDUgMzkgOTEgMzUtOTEtMTktNXYtMTFoNTNjMiAxMS00IDEzLTExIDE1QzEzNC04MSAxMTEtNSA3NSA1OCA2NSA3NyAzNCA4MyA4IDc0VjMyaDExYzAgMjQgMjkgMzUgNDMgMTIgNy0xMSAxMy0yNSAxOS0zOSIgaWQ9ImFOIi8+PHBhdGggZmlsbD0iIzMzMyIgZD0iTTc2LTE2bDE4IDRWMEg3di0xMmwxOC00di0yMThsLTE3LTR2LTEyaDY4djIzNCIgaWQ9ImFPIi8+PGcgaWQ9Im8iPjx1c2UgdHJhbnNmb3JtPSJtYXRyaXgoMC4wNDkzODI3MTYwNDkzODI3MiwwLDAsMC4wNDkzODI3MTYwNDkzODI3MiwwLDApIiB4bGluazpocmVmPSIjYUgiLz48dXNlIHRyYW5zZm9ybT0ibWF0cml4KDAuMDQ5MzgyNzE2MDQ5MzgyNzIsMCwwLDAuMDQ5MzgyNzE2MDQ5MzgyNzIsNy44NTE4NTE4NTE4NTE4NTIsMCkiIHhsaW5rOmhyZWY9IiNhTiIvPjx1c2UgdHJhbnNmb3JtPSJtYXRyaXgoMC4wNDkzODI3MTYwNDkzODI3MiwwLDAsMC4wNDkzODI3MTYwNDkzODI3MiwxNi43NDA3NDA3NDA3NDA3NCwwKSIgeGxpbms6aHJlZj0iI2FIIi8+PHVzZSB0cmFuc2Zvcm09Im1hdHJpeCgwLjA0OTM4MjcxNjA0OTM4MjcyLDAsMCwwLjA0OTM4MjcxNjA0OTM4MjcyLDI0LjU5MjU5MjU5MjU5MjU5LDApIiB4bGluazpocmVmPSIjYU8iLz48dXNlIHRyYW5zZm9ybT0ibWF0cml4KDAuMDQ5MzgyNzE2MDQ5MzgyNzIsMCwwLDAuMDQ5MzgyNzE2MDQ5MzgyNzIsMjkuNTMwODY0MTk3NTMwODYsMCkiIHhsaW5rOmhyZWY9IiNhQiIvPjwvZz48cGF0aCBmaWxsPSIjMzMzIiBkPSJNNzItMThjNDkgMTUgNjQtMjIgNjItNjktMS0zNC00LTYyLTM0LTYzLTEwLTEtMjMgMi0yOCA2djEyNnptMzMgMjJDNzcgNCA0OC0zIDIxLTh2LTIyNmwtMTYtNHYtMTJoNjdjLTEgMzEgMiA2Ni0yIDk0IDExLTggMjgtMTQgNDctMTQgNTEgMCA3MCAzMSA2OSA4My0xIDU1LTI2IDkxLTgxIDkxIiBpZD0iYVAiLz48cGF0aCBmaWxsPSIjMzMzIiBkPSJNMTAyLTE0MmMtMTQtMTctNjgtMTUtNTQgMTggMjQgMjYgODMgMTcgODMgNzIgMCA2Mi03MiA2Mi0xMjAgNDd2LTQ1aDEyYzQgMjMgMTYgMzcgNDMgMzcgMzUgMCAzOS0zNyA5LTQ2LTMxLTktNjUtMTktNjQtNjEgMC01MiA1OS01NSAxMDgtNDV2NDNoLTExIiBpZD0iYVEiLz48cGF0aCBmaWxsPSIjMzMzIiBkPSJNMTUtODJjLTQtNjkgNDctMTAxIDExMy04M2wtMS02OS0xNy00di0xMmg2OHYyMzRsMTggNFYwaC02M2wtNC05Qzc3IDIzIDUtOSAxNS04MnptMTEyLTY2Yy00My0xNi02NCAxNy02MSA2NSAyIDMzIDMgNjcgMzIgNjcgMTIgMCAyMi0zIDI5LTh2LTEyNCIgaWQ9ImFSIi8+PGcgaWQ9InAiPjx1c2UgdHJhbnNmb3JtPSJtYXRyaXgoMC4wNDkzODI3MTYwNDkzODI3MiwwLDAsMC4wNDkzODI3MTYwNDkzODI3MiwwLDApIiB4bGluazpocmVmPSIjYVAiLz48dXNlIHRyYW5zZm9ybT0ibWF0cml4KDAuMDQ5MzgyNzE2MDQ5MzgyNzIsMCwwLDAuMDQ5MzgyNzE2MDQ5MzgyNzIsOS44NzY1NDMyMDk4NzY1NDQsMCkiIHhsaW5rOmhyZWY9IiNhTCIvPjx1c2UgdHJhbnNmb3JtPSJtYXRyaXgoMC4wNDkzODI3MTYwNDkzODI3MiwwLDAsMC4wNDkzODI3MTYwNDkzODI3MiwxOC43NjU0MzIwOTg3NjU0MzQsMCkiIHhsaW5rOmhyZWY9IiNhUSIvPjx1c2UgdHJhbnNmb3JtPSJtYXRyaXgoMC4wNDkzODI3MTYwNDkzODI3MiwwLDAsMC4wNDkzODI3MTYwNDkzODI3MiwyNS42NzkwMTIzNDU2NzkwMTYsMCkiIHhsaW5rOmhyZWY9IiNhQiIvPjx1c2UgdHJhbnNmb3JtPSJtYXRyaXgoMC4wNDkzODI3MTYwNDkzODI3MiwwLDAsMC4wNDkzODI3MTYwNDkzODI3MiwzMy41MzA4NjQxOTc1MzA4NywwKSIgeGxpbms6aHJlZj0iI2FSIi8+PC9nPjxnIGlkPSJxIj48dXNlIHRyYW5zZm9ybT0ibWF0cml4KDAuMDQ5MzgyNzE2MDQ5MzgyNzIsMCwwLDAuMDQ5MzgyNzE2MDQ5MzgyNzIsMCwwKSIgeGxpbms6aHJlZj0iI2FGIi8+PHVzZSB0cmFuc2Zvcm09Im1hdHJpeCgwLjA0OTM4MjcxNjA0OTM4MjcyLDAsMCwwLjA0OTM4MjcxNjA0OTM4MjcyLDguODg4ODg4ODg4ODg4ODksMCkiIHhsaW5rOmhyZWY9IiNhRCIvPjwvZz48ZyBpZD0iciI+PHVzZSB0cmFuc2Zvcm09Im1hdHJpeCgwLjA0OTM4MjcxNjA0OTM4MjcyLDAsMCwwLjA0OTM4MjcxNjA0OTM4MjcyLDAsMCkiIHhsaW5rOmhyZWY9IiNhUSIvPjx1c2UgdHJhbnNmb3JtPSJtYXRyaXgoMC4wNDkzODI3MTYwNDkzODI3MiwwLDAsMC4wNDkzODI3MTYwNDkzODI3Miw2LjkxMzU4MDI0NjkxMzU4MSwwKSIgeGxpbms6aHJlZj0iI2FIIi8+PHVzZSB0cmFuc2Zvcm09Im1hdHJpeCgwLjA0OTM4MjcxNjA0OTM4MjcyLDAsMCwwLjA0OTM4MjcxNjA0OTM4MjcyLDE0Ljc2NTQzMjA5ODc2NTQzNCwwKSIgeGxpbms6aHJlZj0iI2FGIi8+PHVzZSB0cmFuc2Zvcm09Im1hdHJpeCgwLjA0OTM4MjcxNjA0OTM4MjcyLDAsMCwwLjA0OTM4MjcxNjA0OTM4MjcyLDIzLjY1NDMyMDk4NzY1NDMyMywwKSIgeGxpbms6aHJlZj0iI2FHIi8+PHVzZSB0cmFuc2Zvcm09Im1hdHJpeCgwLjA0OTM4MjcxNjA0OTM4MjcyLDAsMCwwLjA0OTM4MjcxNjA0OTM4MjcyLDMxLjE2MDQ5MzgyNzE2MDQ5LDApIiB4bGluazpocmVmPSIjYUIiLz48L2c+PGcgaWQ9InMiPjx1c2UgdHJhbnNmb3JtPSJtYXRyaXgoMC4wNjE3MjgzOTUwNjE3MjgzOSwwLDAsMC4wNjE3MjgzOTUwNjE3MjgzOSwwLDApIiB4bGluazpocmVmPSIjYW0iLz48dXNlIHRyYW5zZm9ybT0ibWF0cml4KDAuMDYxNzI4Mzk1MDYxNzI4MzksMCwwLDAuMDYxNzI4Mzk1MDYxNzI4MzksMTkuNzUzMDg2NDE5NzUzMDg1LDApIiB4bGluazpocmVmPSIjYWwiLz48dXNlIHRyYW5zZm9ybT0ibWF0cml4KDAuMDYxNzI4Mzk1MDYxNzI4MzksMCwwLDAuMDYxNzI4Mzk1MDYxNzI4MzksMzAuODY0MTk3NTMwODY0MTk2LDApIiB4bGluazpocmVmPSIjYW4iLz48dXNlIHRyYW5zZm9ybT0ibWF0cml4KDAuMDYxNzI4Mzk1MDYxNzI4MzksMCwwLDAuMDYxNzI4Mzk1MDYxNzI4MzksNDEuOTc1MzA4NjQxOTc1MywwKSIgeGxpbms6aHJlZj0iI2FlIi8+PHVzZSB0cmFuc2Zvcm09Im1hdHJpeCgwLjA2MTcyODM5NTA2MTcyODM5LDAsMCwwLjA2MTcyODM5NTA2MTcyODM5LDUxLjc5MDEyMzQ1Njc5MDEyLDApIiB4bGluazpocmVmPSIjYW8iLz48L2c+PHBhdGggZmlsbD0iIzNhNDE0YSIgZD0iTTQxLTEzMGM3IDQ4IDg2IDIzIDg2IDg0IDAgNTYtNjkgNTctMTEyIDQxdi00MGMyMCAwIDkgMjkgMzEgMzEgMzUgMTkgNzctMjYgNDEtNTAtMjctMTgtNzItMTMtNzItNTkgMC01MCA1OC01MiAxMDAtNDF2MzZjLTE5IDEtOC0yNS0yOC0yNS0yMS03LTUwLTEtNDYgMjMiIGlkPSJhUyIvPjxnIGlkPSJ0Ij48dXNlIHRyYW5zZm9ybT0ibWF0cml4KDAuMDYxNzI4Mzk1MDYxNzI4MzksMCwwLDAuMDYxNzI4Mzk1MDYxNzI4MzksMCwwKSIgeGxpbms6aHJlZj0iI2FuIi8+PHVzZSB0cmFuc2Zvcm09Im1hdHJpeCgwLjA2MTcyODM5NTA2MTcyODM5LDAsMCwwLjA2MTcyODM5NTA2MTcyODM5LDExLjExMTExMTExMTExMTExLDApIiB4bGluazpocmVmPSIjYWUiLz48dXNlIHRyYW5zZm9ybT0ibWF0cml4KDAuMDYxNzI4Mzk1MDYxNzI4MzksMCwwLDAuMDYxNzI4Mzk1MDYxNzI4MzksMjAuOTI1OTI1OTI1OTI1OTI0LDApIiB4bGluazpocmVmPSIjYWgiLz48dXNlIHRyYW5zZm9ybT0ibWF0cml4KDAuMDYxNzI4Mzk1MDYxNzI4MzksMCwwLDAuMDYxNzI4Mzk1MDYxNzI4MzksMjcuMDk4NzY1NDMyMDk4NzYyLDApIiB4bGluazpocmVmPSIjYWUiLz48dXNlIHRyYW5zZm9ybT0ibWF0cml4KDAuMDYxNzI4Mzk1MDYxNzI4MzksMCwwLDAuMDYxNzI4Mzk1MDYxNzI4MzksMzYuOTEzNTgwMjQ2OTEzNTc1LDApIiB4bGluazpocmVmPSIjYWsiLz48dXNlIHRyYW5zZm9ybT0ibWF0cml4KDAuMDYxNzI4Mzk1MDYxNzI4MzksMCwwLDAuMDYxNzI4Mzk1MDYxNzI4MzksNDYuNzI4Mzk1MDYxNzI4MzksMCkiIHhsaW5rOmhyZWY9IiNhaCIvPjx1c2UgdHJhbnNmb3JtPSJtYXRyaXgoMC4wNjE3MjgzOTUwNjE3MjgzOSwwLDAsMC4wNjE3MjgzOTUwNjE3MjgzOSw1Mi45MDEyMzQ1Njc5MDEyMzQsMCkiIHhsaW5rOmhyZWY9IiNhUyIvPjwvZz48cGF0aCBmaWxsPSIjM2E0MTRhIiBkPSJNMTktMjMxYzYxLTE5IDE0Ni0zIDEyMyA3Ni04IDI5LTMyIDQyLTYyIDQ4bC0zIDQ1SDYzbC00LTU4YzMzLTQgNTctMTUgNTQtNTYgNi00Ny00Mi01OC03Ny0zOWwtNiAyOUgxOXYtNDV6TTcyLTM3YzE0IDAgMjEgOSAyMSAyMVM4NCA1IDcyIDUgNTAtMiA1MS0xNmMwLTEzIDgtMjEgMjEtMjEiIGlkPSJhVCIvPjxnIGlkPSJ1Ij48dXNlIHRyYW5zZm9ybT0ibWF0cml4KDAuMDYxNzI4Mzk1MDYxNzI4MzksMCwwLDAuMDYxNzI4Mzk1MDYxNzI4MzksMCwwKSIgeGxpbms6aHJlZj0iI2FkIi8+PHVzZSB0cmFuc2Zvcm09Im1hdHJpeCgwLjA2MTcyODM5NTA2MTcyODM5LDAsMCwwLjA2MTcyODM5NTA2MTcyODM5LDE1Ljk4NzY1NDMyMDk4NzY1MywwKSIgeGxpbms6aHJlZj0iI2FlIi8+PHVzZSB0cmFuc2Zvcm09Im1hdHJpeCgwLjA2MTcyODM5NTA2MTcyODM5LDAsMCwwLjA2MTcyODM5NTA2MTcyODM5LDI1LjgwMjQ2OTEzNTgwMjQ3LDApIiB4bGluazpocmVmPSIjYWYiLz48dXNlIHRyYW5zZm9ybT0ibWF0cml4KDAuMDYxNzI4Mzk1MDYxNzI4MzksMCwwLDAuMDYxNzI4Mzk1MDYxNzI4MzksNDMuMDg2NDE5NzUzMDg2NDIsMCkiIHhsaW5rOmhyZWY9IiNhZSIvPjx1c2UgdHJhbnNmb3JtPSJtYXRyaXgoMC4wNjE3MjgzOTUwNjE3MjgzOSwwLDAsMC4wNjE3MjgzOTUwNjE3MjgzOSw1Mi45MDEyMzQ1Njc5MDEyMzQsMCkiIHhsaW5rOmhyZWY9IiNhZyIvPjx1c2UgdHJhbnNmb3JtPSJtYXRyaXgoMC4wNjE3MjgzOTUwNjE3MjgzOSwwLDAsMC4wNjE3MjgzOTUwNjE3MjgzOSw2NC4wMTIzNDU2NzkwMTIzNCwwKSIgeGxpbms6aHJlZj0iI2FoIi8+PHVzZSB0cmFuc2Zvcm09Im1hdHJpeCgwLjA2MTcyODM5NTA2MTcyODM5LDAsMCwwLjA2MTcyODM5NTA2MTcyODM5LDcwLjE4NTE4NTE4NTE4NTE4LDApIiB4bGluazpocmVmPSIjYWkiLz48dXNlIHRyYW5zZm9ybT0ibWF0cml4KDAuMDYxNzI4Mzk1MDYxNzI4MzksMCwwLDAuMDYxNzI4Mzk1MDYxNzI4MzksNzYuMzU4MDI0NjkxMzU4MDEsMCkiIHhsaW5rOmhyZWY9IiNhaiIvPjx1c2UgdHJhbnNmb3JtPSJtYXRyaXgoMC4wNjE3MjgzOTUwNjE3MjgzOSwwLDAsMC4wNjE3MjgzOTUwNjE3MjgzOSw4Ni4xNzI4Mzk1MDYxNzI4MiwwKSIgeGxpbms6aHJlZj0iI2FUIi8+PC9nPjxnIGlkPSJ2Ij48dXNlIHRyYW5zZm9ybT0ibWF0cml4KDAuMDYxNzI4Mzk1MDYxNzI4MzksMCwwLDAuMDYxNzI4Mzk1MDYxNzI4MzksMCwwKSIgeGxpbms6aHJlZj0iI2F0Ii8+PHVzZSB0cmFuc2Zvcm09Im1hdHJpeCgwLjA2MTcyODM5NTA2MTcyODM5LDAsMCwwLjA2MTcyODM5NTA2MTcyODM5LDExLjk3NTMwODY0MTk3NTMwNywwKSIgeGxpbms6aHJlZj0iI2FlIi8+PHVzZSB0cmFuc2Zvcm09Im1hdHJpeCgwLjA2MTcyODM5NTA2MTcyODM5LDAsMCwwLjA2MTcyODM5NTA2MTcyODM5LDIxLjc5MDEyMzQ1Njc5MDEyLDApIiB4bGluazpocmVmPSIjYXUiLz48dXNlIHRyYW5zZm9ybT0ibWF0cml4KDAuMDYxNzI4Mzk1MDYxNzI4MzksMCwwLDAuMDYxNzI4Mzk1MDYxNzI4MzksMzIuOTAxMjM0NTY3OTAxMjMsMCkiIHhsaW5rOmhyZWY9IiNhaCIvPjwvZz48cGF0aCBmaWxsPSIjM2E0MTRhIiBkPSJNNTctMTQ1YzE2LTEwIDM1LTI0IDYwLTI1djQ1Yy0xOSAxLTgtMzAtNDAtMTdsLTIwIDZ2MTI0bDI5IDR2OEg3di04bDIxLTR2LTE0MWMtOC0zLTI0IDItMjEtMTJoNDgiIGlkPSJhVSIvPjxwYXRoIGZpbGw9IiMzYTQxNGEiIGQ9Ik0xNDEtMTUyYzI4IDM5IDUgOTctNTQgOTctOSAwLTIwLTItMjctM0w0OS0zNWMyOSAyMiAxMzAtMTQgMTI0IDUyLTQgNDUtMzggNTctODggNjFDMjEgODMtOCAyNiA0NS0yIDMzLTYgMjItMTUgMjEtMzFsMjgtMzFjLTE5LTktMjgtMjYtMjgtNTEtMi01MSA1My02NSAxMDAtNTJsMzgtMjAgNyA4ek04NSA2NGMzNSAwIDYxLTExIDYxLTQyIDAtMzUtNTctMTctODktMjEtOSA4LTE2IDE5LTE3IDM0IDAgMjUgMTkgMjkgNDUgMjl6TTUyLTExM2MxIDI2IDcgNDYgMzUgNDQgMjgtMSAzNC0xNiAzNS00NCAwLTI2LTYtNDMtMzQtNDNzLTM2IDE3LTM2IDQzIiBpZD0iYVYiLz48ZyBpZD0idyI+PHVzZSB0cmFuc2Zvcm09Im1hdHJpeCgwLjA2MTcyODM5NTA2MTcyODM5LDAsMCwwLjA2MTcyODM5NTA2MTcyODM5LDAsMCkiIHhsaW5rOmhyZWY9IiNhcSIvPjx1c2UgdHJhbnNmb3JtPSJtYXRyaXgoMC4wNjE3MjgzOTUwNjE3MjgzOSwwLDAsMC4wNjE3MjgzOTUwNjE3MjgzOSwxMS4xMTExMTExMTExMTExMSwwKSIgeGxpbms6aHJlZj0iI2FVIi8+PHVzZSB0cmFuc2Zvcm09Im1hdHJpeCgwLjA2MTcyODM5NTA2MTcyODM5LDAsMCwwLjA2MTcyODM5NTA2MTcyODM5LDE4LjQ1Njc5MDEyMzQ1Njc5LDApIiB4bGluazpocmVmPSIjYWUiLz48dXNlIHRyYW5zZm9ybT0ibWF0cml4KDAuMDYxNzI4Mzk1MDYxNzI4MzksMCwwLDAuMDYxNzI4Mzk1MDYxNzI4MzksMjguMjcxNjA0OTM4MjcxNjA4LDApIiB4bGluazpocmVmPSIjYXEiLz48dXNlIHRyYW5zZm9ybT0ibWF0cml4KDAuMDYxNzI4Mzk1MDYxNzI4MzksMCwwLDAuMDYxNzI4Mzk1MDYxNzI4MzksMzkuMzgyNzE2MDQ5MzgyNzIsMCkiIHhsaW5rOmhyZWY9IiNhVSIvPjx1c2UgdHJhbnNmb3JtPSJtYXRyaXgoMC4wNjE3MjgzOTUwNjE3MjgzOSwwLDAsMC4wNjE3MjgzOTUwNjE3MjgzOSw0Ni43MjgzOTUwNjE3Mjg0LDApIiB4bGluazpocmVmPSIjYWwiLz48dXNlIHRyYW5zZm9ybT0ibWF0cml4KDAuMDYxNzI4Mzk1MDYxNzI4MzksMCwwLDAuMDYxNzI4Mzk1MDYxNzI4MzksNTcuODM5NTA2MTcyODM5NTA2LDApIiB4bGluazpocmVmPSIjYWsiLz48dXNlIHRyYW5zZm9ybT0ibWF0cml4KDAuMDYxNzI4Mzk1MDYxNzI4MzksMCwwLDAuMDYxNzI4Mzk1MDYxNzI4MzksNjcuNjU0MzIwOTg3NjU0MzIsMCkiIHhsaW5rOmhyZWY9IiNhZSIvPjx1c2UgdHJhbnNmb3JtPSJtYXRyaXgoMC4wNjE3MjgzOTUwNjE3MjgzOSwwLDAsMC4wNjE3MjgzOTUwNjE3MjgzOSw3Ny40NjkxMzU4MDI0NjkxMywwKSIgeGxpbms6aHJlZj0iI2FTIi8+PHVzZSB0cmFuc2Zvcm09Im1hdHJpeCgwLjA2MTcyODM5NTA2MTcyODM5LDAsMCwwLjA2MTcyODM5NTA2MTcyODM5LDg2LjExMTExMTExMTExMTEsMCkiIHhsaW5rOmhyZWY9IiNhUyIvPjx1c2UgdHJhbnNmb3JtPSJtYXRyaXgoMC4wNjE3MjgzOTUwNjE3MjgzOSwwLDAsMC4wNjE3MjgzOTUwNjE3MjgzOSw5NC43NTMwODY0MTk3NTMwNywwKSIgeGxpbms6aHJlZj0iI2FpIi8+PHVzZSB0cmFuc2Zvcm09Im1hdHJpeCgwLjA2MTcyODM5NTA2MTcyODM5LDAsMCwwLjA2MTcyODM5NTA2MTcyODM5LDEwMC45MjU5MjU5MjU5MjU5MSwwKSIgeGxpbms6aHJlZj0iI2FnIi8+PHVzZSB0cmFuc2Zvcm09Im1hdHJpeCgwLjA2MTcyODM5NTA2MTcyODM5LDAsMCwwLjA2MTcyODM5NTA2MTcyODM5LDExMi4wMzcwMzcwMzcwMzcwMiwwKSIgeGxpbms6aHJlZj0iI2FWIi8+PC9nPjxwYXRoIGZpbGw9IiMzMzMiIGQ9Ik0xNjAtOTN2NzVsMzggNVYwSDY3di0xM2wzOC01di03NEwzMy0yMThsLTI3LTV2LTEzaDEyMnYxM2wtMzIgNSA1NCA5OCA1Mi05OC0yOS01di0xM2g4MHYxM2wtMjUgNSIgaWQ9ImFXIi8+PGcgaWQ9IngiPjx1c2UgdHJhbnNmb3JtPSJtYXRyaXgoMC4wNDkzODI3MTYwNDkzODI3MiwwLDAsMC4wNDkzODI3MTYwNDkzODI3MiwwLDApIiB4bGluazpocmVmPSIjYVciLz48dXNlIHRyYW5zZm9ybT0ibWF0cml4KDAuMDQ5MzgyNzE2MDQ5MzgyNzIsMCwwLDAuMDQ5MzgyNzE2MDQ5MzgyNzIsMTAuODE0ODE0ODE0ODE0ODE3LDApIiB4bGluazpocmVmPSIjYUIiLz48dXNlIHRyYW5zZm9ybT0ibWF0cml4KDAuMDQ5MzgyNzE2MDQ5MzgyNzIsMCwwLDAuMDQ5MzgyNzE2MDQ5MzgyNzIsMTguNjY2NjY2NjY2NjY2NjY4LDApIiB4bGluazpocmVmPSIjYVEiLz48L2c+PGcgaWQ9InkiPjx1c2UgdHJhbnNmb3JtPSJtYXRyaXgoMC4wNjE3MjgzOTUwNjE3MjgzOSwwLDAsMC4wNjE3MjgzOTUwNjE3MjgzOSwwLDApIiB4bGluazpocmVmPSIjYWQiLz48dXNlIHRyYW5zZm9ybT0ibWF0cml4KDAuMDYxNzI4Mzk1MDYxNzI4MzksMCwwLDAuMDYxNzI4Mzk1MDYxNzI4MzksMTUuOTg3NjU0MzIwOTg3NjUzLDApIiB4bGluazpocmVmPSIjYWoiLz48dXNlIHRyYW5zZm9ybT0ibWF0cml4KDAuMDYxNzI4Mzk1MDYxNzI4MzksMCwwLDAuMDYxNzI4Mzk1MDYxNzI4MzksMjUuODAyNDY5MTM1ODAyNDcsMCkiIHhsaW5rOmhyZWY9IiNhaCIvPjx1c2UgdHJhbnNmb3JtPSJtYXRyaXgoMC4wNjE3MjgzOTUwNjE3MjgzOSwwLDAsMC4wNjE3MjgzOTUwNjE3MjgzOSwzMS45NzUzMDg2NDE5NzUzMDcsMCkiIHhsaW5rOmhyZWY9IiNhaiIvPjwvZz48cGF0aCBmaWxsPSIjM2E0MTRhIiBkPSJNMTYxLTE1NEw4NSAzN0M3NSA2NiA0OSA4NiA4IDc1VjM5YzE4LTIgNiAyNCAyOSAyMSAzMC00IDM4LTMyIDQ3LTU4TDIxLTE1M2MtNy0zLTIwIDAtMTctMTJoNzd2OGwtMjYgNCA0NSAxMTYgNDMtMTE2LTI2LTR2LThoNjJ2OCIgaWQ9ImFYIi8+PHBhdGggZmlsbD0iIzNhNDE0YSIgZD0iTTEwIDB2LThsOTAtMTQzYy0yMyAyLTU0LTQtNzAgNi01IDggMSAyNi0xNCAyNHYtNDRoMTIydjhMNDctMTRjMjktMiA2NSAzIDg2LThsOS0zNWg4bC01IDU3SDEwIiBpZD0iYVkiLz48ZyBpZD0ieiI+PHVzZSB0cmFuc2Zvcm09Im1hdHJpeCgwLjA2MTcyODM5NTA2MTcyODM5LDAsMCwwLjA2MTcyODM5NTA2MTcyODM5LDAsMCkiIHhsaW5rOmhyZWY9IiNhaiIvPjx1c2UgdHJhbnNmb3JtPSJtYXRyaXgoMC4wNjE3MjgzOTUwNjE3MjgzOSwwLDAsMC4wNjE3MjgzOTUwNjE3MjgzOSw5LjgxNDgxNDgxNDgxNDgxNSwwKSIgeGxpbms6aHJlZj0iI2FnIi8+PHVzZSB0cmFuc2Zvcm09Im1hdHJpeCgwLjA2MTcyODM5NTA2MTcyODM5LDAsMCwwLjA2MTcyODM5NTA2MTcyODM5LDIwLjkyNTkyNTkyNTkyNTkyNCwwKSIgeGxpbms6aHJlZj0iI2FsIi8+PHVzZSB0cmFuc2Zvcm09Im1hdHJpeCgwLjA2MTcyODM5NTA2MTcyODM5LDAsMCwwLjA2MTcyODM5NTA2MTcyODM5LDMyLjAzNzAzNzAzNzAzNzA0LDApIiB4bGluazpocmVmPSIjYWciLz48dXNlIHRyYW5zZm9ybT0ibWF0cml4KDAuMDYxNzI4Mzk1MDYxNzI4MzksMCwwLDAuMDYxNzI4Mzk1MDYxNzI4MzksNDMuMTQ4MTQ4MTQ4MTQ4MTUsMCkiIHhsaW5rOmhyZWY9IiNhWCIvPjx1c2UgdHJhbnNmb3JtPSJtYXRyaXgoMC4wNjE3MjgzOTUwNjE3MjgzOSwwLDAsMC4wNjE3MjgzOTUwNjE3MjgzOSw1NC4yNTkyNTkyNTkyNTkyNywwKSIgeGxpbms6aHJlZj0iI2FmIi8+PHVzZSB0cmFuc2Zvcm09Im1hdHJpeCgwLjA2MTcyODM5NTA2MTcyODM5LDAsMCwwLjA2MTcyODM5NTA2MTcyODM5LDcxLjU0MzIwOTg3NjU0MzIyLDApIiB4bGluazpocmVmPSIjYWkiLz48dXNlIHRyYW5zZm9ybT0ibWF0cml4KDAuMDYxNzI4Mzk1MDYxNzI4MzksMCwwLDAuMDYxNzI4Mzk1MDYxNzI4MzksNzcuNzE2MDQ5MzgyNzE2MDUsMCkiIHhsaW5rOmhyZWY9IiNhWSIvPjx1c2UgdHJhbnNmb3JtPSJtYXRyaXgoMC4wNjE3MjgzOTUwNjE3MjgzOSwwLDAsMC4wNjE3MjgzOTUwNjE3MjgzOSw4Ny41MzA4NjQxOTc1MzA4NiwwKSIgeGxpbms6aHJlZj0iI2FqIi8+PHVzZSB0cmFuc2Zvcm09Im1hdHJpeCgwLjA2MTcyODM5NTA2MTcyODM5LDAsMCwwLjA2MTcyODM5NTA2MTcyODM5LDk3LjM0NTY3OTAxMjM0NTY3LDApIiB4bGluazpocmVmPSIjYWgiLz48dXNlIHRyYW5zZm9ybT0ibWF0cml4KDAuMDYxNzI4Mzk1MDYxNzI4MzksMCwwLDAuMDYxNzI4Mzk1MDYxNzI4MzksMTAzLjUxODUxODUxODUxODUsMCkiIHhsaW5rOmhyZWY9IiNhaSIvPjx1c2UgdHJhbnNmb3JtPSJtYXRyaXgoMC4wNjE3MjgzOTUwNjE3MjgzOSwwLDAsMC4wNjE3MjgzOTUwNjE3MjgzOSwxMDkuNjkxMzU4MDI0NjkxMzQsMCkiIHhsaW5rOmhyZWY9IiNhbCIvPjx1c2UgdHJhbnNmb3JtPSJtYXRyaXgoMC4wNjE3MjgzOTUwNjE3MjgzOSwwLDAsMC4wNjE3MjgzOTUwNjE3MjgzOSwxMjAuODAyNDY5MTM1ODAyNDUsMCkiIHhsaW5rOmhyZWY9IiNhZyIvPjwvZz48cGF0aCBmaWxsPSIjM2E0MTRhIiBkPSJNNzctMTRsMzAgNXY5SDEzdi05bDMwLTV2LTIwOGwtMzAtNHYtMTBoOTR2MTBsLTMwIDR2MjA4IiBpZD0iYVoiLz48ZyBpZD0iQSI+PHVzZSB0cmFuc2Zvcm09Im1hdHJpeCgwLjA2MTcyODM5NTA2MTcyODM5LDAsMCwwLjA2MTcyODM5NTA2MTcyODM5LDAsMCkiIHhsaW5rOmhyZWY9IiNhWiIvPjx1c2UgdHJhbnNmb3JtPSJtYXRyaXgoMC4wNjE3MjgzOTUwNjE3MjgzOSwwLDAsMC4wNjE3MjgzOTUwNjE3MjgzOSw3LjM0NTY3OTAxMjM0NTY3OSwwKSIgeGxpbms6aHJlZj0iI2FnIi8+PHVzZSB0cmFuc2Zvcm09Im1hdHJpeCgwLjA2MTcyODM5NTA2MTcyODM5LDAsMCwwLjA2MTcyODM5NTA2MTcyODM5LDE4LjQ1Njc5MDEyMzQ1Njc5LDApIiB4bGluazpocmVmPSIjYXEiLz48dXNlIHRyYW5zZm9ybT0ibWF0cml4KDAuMDYxNzI4Mzk1MDYxNzI4MzksMCwwLDAuMDYxNzI4Mzk1MDYxNzI4MzksMjkuNTY3OTAxMjM0NTY3OTAyLDApIiB4bGluazpocmVmPSIjYXYiLz48dXNlIHRyYW5zZm9ybT0ibWF0cml4KDAuMDYxNzI4Mzk1MDYxNzI4MzksMCwwLDAuMDYxNzI4Mzk1MDYxNzI4MzksNDAuNjc5MDEyMzQ1Njc5MDEsMCkiIHhsaW5rOmhyZWY9IiNhaCIvPjwvZz48ZyBpZD0iQiI+PHVzZSB0cmFuc2Zvcm09Im1hdHJpeCgwLjA2MTcyODM5NTA2MTcyODM5LDAsMCwwLjA2MTcyODM5NTA2MTcyODM5LDAsMCkiIHhsaW5rOmhyZWY9IiNhaiIvPjx1c2UgdHJhbnNmb3JtPSJtYXRyaXgoMC4wNjE3MjgzOTUwNjE3MjgzOSwwLDAsMC4wNjE3MjgzOTUwNjE3MjgzOSw5LjgxNDgxNDgxNDgxNDgxNSwwKSIgeGxpbms6aHJlZj0iI2FnIi8+PHVzZSB0cmFuc2Zvcm09Im1hdHJpeCgwLjA2MTcyODM5NTA2MTcyODM5LDAsMCwwLjA2MTcyODM5NTA2MTcyODM5LDIwLjkyNTkyNTkyNTkyNTkyNCwwKSIgeGxpbms6aHJlZj0iI2FuIi8+PC9nPjxnIGlkPSJDIj48dXNlIHRyYW5zZm9ybT0ibWF0cml4KDAuMDYxNzI4Mzk1MDYxNzI4MzksMCwwLDAuMDYxNzI4Mzk1MDYxNzI4MzksMCwwKSIgeGxpbms6aHJlZj0iI2FWIi8+PHVzZSB0cmFuc2Zvcm09Im1hdHJpeCgwLjA2MTcyODM5NTA2MTcyODM5LDAsMCwwLjA2MTcyODM5NTA2MTcyODM5LDExLjExMTExMTExMTExMTExLDApIiB4bGluazpocmVmPSIjYWUiLz48dXNlIHRyYW5zZm9ybT0ibWF0cml4KDAuMDYxNzI4Mzk1MDYxNzI4MzksMCwwLDAuMDYxNzI4Mzk1MDYxNzI4MzksMjAuOTI1OTI1OTI1OTI1OTI0LDApIiB4bGluazpocmVmPSIjYWciLz48dXNlIHRyYW5zZm9ybT0ibWF0cml4KDAuMDYxNzI4Mzk1MDYxNzI4MzksMCwwLDAuMDYxNzI4Mzk1MDYxNzI4MzksMzIuMDM3MDM3MDM3MDM3MDQsMCkiIHhsaW5rOmhyZWY9IiNhZSIvPjx1c2UgdHJhbnNmb3JtPSJtYXRyaXgoMC4wNjE3MjgzOTUwNjE3MjgzOSwwLDAsMC4wNjE3MjgzOTUwNjE3MjgzOSw0MS44NTE4NTE4NTE4NTE4NTUsMCkiIHhsaW5rOmhyZWY9IiNhVSIvPjx1c2UgdHJhbnNmb3JtPSJtYXRyaXgoMC4wNjE3MjgzOTUwNjE3MjgzOSwwLDAsMC4wNjE3MjgzOTUwNjE3MjgzOSw0OS4xOTc1MzA4NjQxOTc1MywwKSIgeGxpbms6aHJlZj0iI2FqIi8+PHVzZSB0cmFuc2Zvcm09Im1hdHJpeCgwLjA2MTcyODM5NTA2MTcyODM5LDAsMCwwLjA2MTcyODM5NTA2MTcyODM5LDU5LjAxMjM0NTY3OTAxMjM1LDApIiB4bGluazpocmVmPSIjYWgiLz48dXNlIHRyYW5zZm9ybT0ibWF0cml4KDAuMDYxNzI4Mzk1MDYxNzI4MzksMCwwLDAuMDYxNzI4Mzk1MDYxNzI4MzksNjUuMTg1MTg1MTg1MTg1MTksMCkiIHhsaW5rOmhyZWY9IiNhZSIvPjx1c2UgdHJhbnNmb3JtPSJtYXRyaXgoMC4wNjE3MjgzOTUwNjE3MjgzOSwwLDAsMC4wNjE3MjgzOTUwNjE3MjgzOSw3NSwwKSIgeGxpbms6aHJlZj0iI2FuIi8+PC9nPjxnIGlkPSJEIj48dXNlIHRyYW5zZm9ybT0ibWF0cml4KDAuMDYxNzI4Mzk1MDYxNzI4MzksMCwwLDAuMDYxNzI4Mzk1MDYxNzI4MzksMCwwKSIgeGxpbms6aHJlZj0iI2FoIi8+PHVzZSB0cmFuc2Zvcm09Im1hdHJpeCgwLjA2MTcyODM5NTA2MTcyODM5LDAsMCwwLjA2MTcyODM5NTA2MTcyODM5LDYuMTcyODM5NTA2MTcyODM5LDApIiB4bGluazpocmVmPSIjYWUiLz48dXNlIHRyYW5zZm9ybT0ibWF0cml4KDAuMDYxNzI4Mzk1MDYxNzI4MzksMCwwLDAuMDYxNzI4Mzk1MDYxNzI4MzksMTUuOTg3NjU0MzIwOTg3NjUzLDApIiB4bGluazpocmVmPSIjYXUiLz48dXNlIHRyYW5zZm9ybT0ibWF0cml4KDAuMDYxNzI4Mzk1MDYxNzI4MzksMCwwLDAuMDYxNzI4Mzk1MDYxNzI4MzksMjcuMDk4NzY1NDMyMDk4NzY2LDApIiB4bGluazpocmVmPSIjYWgiLz48L2c+PGcgaWQ9IkUiPjx1c2UgdHJhbnNmb3JtPSJtYXRyaXgoMC4wNjE3MjgzOTUwNjE3MjgzOSwwLDAsMC4wNjE3MjgzOTUwNjE3MjgzOSwwLDApIiB4bGluazpocmVmPSIjYW4iLz48dXNlIHRyYW5zZm9ybT0ibWF0cml4KDAuMDYxNzI4Mzk1MDYxNzI4MzksMCwwLDAuMDYxNzI4Mzk1MDYxNzI4MzksMTEuMTExMTExMTExMTExMTEsMCkiIHhsaW5rOmhyZWY9IiNhaiIvPjx1c2UgdHJhbnNmb3JtPSJtYXRyaXgoMC4wNjE3MjgzOTUwNjE3MjgzOSwwLDAsMC4wNjE3MjgzOTUwNjE3MjgzOSwyMC45MjU5MjU5MjU5MjU5MjQsMCkiIHhsaW5rOmhyZWY9IiNhaCIvPjx1c2UgdHJhbnNmb3JtPSJtYXRyaXgoMC4wNjE3MjgzOTUwNjE3MjgzOSwwLDAsMC4wNjE3MjgzOTUwNjE3MjgzOSwyNy4wOTg3NjU0MzIwOTg3NjIsMCkiIHhsaW5rOmhyZWY9IiNhaiIvPjwvZz48cGF0aCBmaWxsPSIjM2E0MTRhIiBkPSJNNzUtMTA4YzQ4IDMgNzYtMTIgNzYtNThzLTI4LTU3LTc2LTU0djExMnptMTExLTU4Yy0xIDYwLTQ2IDc4LTExMSA3NHY3OGwzNyA1djlIMTN2LTlsMjgtNXYtMjA4bC0zMS00di0xMGM4MSAxIDE3OC0xNCAxNzYgNzAiIGlkPSJiYSIvPjxnIGlkPSJGIj48dXNlIHRyYW5zZm9ybT0ibWF0cml4KDAuMDYxNzI4Mzk1MDYxNzI4MzksMCwwLDAuMDYxNzI4Mzk1MDYxNzI4MzksMCwwKSIgeGxpbms6aHJlZj0iI2JhIi8+PHVzZSB0cmFuc2Zvcm09Im1hdHJpeCgwLjA2MTcyODM5NTA2MTcyODM5LDAsMCwwLjA2MTcyODM5NTA2MTcyODM5LDEyLjM0NTY3OTAxMjM0NTY3OSwwKSIgeGxpbms6aHJlZj0iI2FsIi8+PHVzZSB0cmFuc2Zvcm09Im1hdHJpeCgwLjA2MTcyODM5NTA2MTcyODM5LDAsMCwwLjA2MTcyODM5NTA2MTcyODM5LDIzLjQ1Njc5MDEyMzQ1Njc5LDApIiB4bGluazpocmVmPSIjYW8iLz48dXNlIHRyYW5zZm9ybT0ibWF0cml4KDAuMDYxNzI4Mzk1MDYxNzI4MzksMCwwLDAuMDYxNzI4Mzk1MDYxNzI4MzksMjkuNjI5NjI5NjI5NjI5NjMsMCkiIHhsaW5rOmhyZWY9IiNhaSIvPjx1c2UgdHJhbnNmb3JtPSJtYXRyaXgoMC4wNjE3MjgzOTUwNjE3MjgzOSwwLDAsMC4wNjE3MjgzOTUwNjE3MjgzOSwzNS44MDI0NjkxMzU4MDI0NywwKSIgeGxpbms6aHJlZj0iI2FrIi8+PHVzZSB0cmFuc2Zvcm09Im1hdHJpeCgwLjA2MTcyODM5NTA2MTcyODM5LDAsMCwwLjA2MTcyODM5NTA2MTcyODM5LDQ1LjYxNzI4Mzk1MDYxNzI4NSwwKSIgeGxpbms6aHJlZj0iI2FYIi8+PC9nPjxnIGlkPSJHIj48dXNlIHRyYW5zZm9ybT0ibWF0cml4KDAuMDYxNzI4Mzk1MDYxNzI4MzksMCwwLDAuMDYxNzI4Mzk1MDYxNzI4MzksMCwwKSIgeGxpbms6aHJlZj0iI2FmIi8+PHVzZSB0cmFuc2Zvcm09Im1hdHJpeCgwLjA2MTcyODM5NTA2MTcyODM5LDAsMCwwLjA2MTcyODM5NTA2MTcyODM5LDE3LjI4Mzk1MDYxNzI4Mzk1LDApIiB4bGluazpocmVmPSIjYWwiLz48dXNlIHRyYW5zZm9ybT0ibWF0cml4KDAuMDYxNzI4Mzk1MDYxNzI4MzksMCwwLDAuMDYxNzI4Mzk1MDYxNzI4MzksMjguMzk1MDYxNzI4Mzk1MDYsMCkiIHhsaW5rOmhyZWY9IiNhbiIvPjx1c2UgdHJhbnNmb3JtPSJtYXRyaXgoMC4wNjE3MjgzOTUwNjE3MjgzOSwwLDAsMC4wNjE3MjgzOTUwNjE3MjgzOSwzOS41MDYxNzI4Mzk1MDYxNywwKSIgeGxpbms6aHJlZj0iI2FlIi8+PHVzZSB0cmFuc2Zvcm09Im1hdHJpeCgwLjA2MTcyODM5NTA2MTcyODM5LDAsMCwwLjA2MTcyODM5NTA2MTcyODM5LDQ5LjMyMDk4NzY1NDMyMDk5LDApIiB4bGluazpocmVmPSIjYW8iLz48L2c+PHBhdGggZmlsbD0iIzNhNDE0YSIgZD0iTTEwMy0yMzZjLTM5LTE1LTM1IDMyLTM0IDcxaDQ0djE1SDY5djEzNmwzNSA2djhIMTV2LThsMjUtNnYtMTM2SDExdi05bDI5LTdjLTYtNTkgMjMtMTAwIDgwLTg0djM2Yy0xNSAyLTEyLTE0LTE3LTIyIiBpZD0iYmIiLz48ZyBpZD0iSCI+PHVzZSB0cmFuc2Zvcm09Im1hdHJpeCgwLjA2MTcyODM5NTA2MTcyODM5LDAsMCwwLjA2MTcyODM5NTA2MTcyODM5LDAsMCkiIHhsaW5rOmhyZWY9IiNiYiIvPjx1c2UgdHJhbnNmb3JtPSJtYXRyaXgoMC4wNjE3MjgzOTUwNjE3MjgzOSwwLDAsMC4wNjE3MjgzOTUwNjE3MjgzOSw3LjM0NTY3OTAxMjM0NTY3OSwwKSIgeGxpbms6aHJlZj0iI2FsIi8+PHVzZSB0cmFuc2Zvcm09Im1hdHJpeCgwLjA2MTcyODM5NTA2MTcyODM5LDAsMCwwLjA2MTcyODM5NTA2MTcyODM5LDE4LjQ1Njc5MDEyMzQ1Njc5LDApIiB4bGluazpocmVmPSIjYVUiLz48L2c+PGcgaWQ9IkkiPjx1c2UgdHJhbnNmb3JtPSJtYXRyaXgoMC4wNjE3MjgzOTUwNjE3MjgzOSwwLDAsMC4wNjE3MjgzOTUwNjE3MjgzOSwwLDApIiB4bGluazpocmVmPSIjYVMiLz48dXNlIHRyYW5zZm9ybT0ibWF0cml4KDAuMDYxNzI4Mzk1MDYxNzI4MzksMCwwLDAuMDYxNzI4Mzk1MDYxNzI4MzksOC42NDE5NzUzMDg2NDE5NzUsMCkiIHhsaW5rOmhyZWY9IiNhaiIvPjx1c2UgdHJhbnNmb3JtPSJtYXRyaXgoMC4wNjE3MjgzOTUwNjE3MjgzOSwwLDAsMC4wNjE3MjgzOTUwNjE3MjgzOSwxOC40NTY3OTAxMjM0NTY3OSwwKSIgeGxpbms6aHJlZj0iI2FoIi8+PHVzZSB0cmFuc2Zvcm09Im1hdHJpeCgwLjA2MTcyODM5NTA2MTcyODM5LDAsMCwwLjA2MTcyODM5NTA2MTcyODM5LDI0LjYyOTYyOTYyOTYyOTYzLDApIiB4bGluazpocmVmPSIjYWkiLz48dXNlIHRyYW5zZm9ybT0ibWF0cml4KDAuMDYxNzI4Mzk1MDYxNzI4MzksMCwwLDAuMDYxNzI4Mzk1MDYxNzI4MzksMzAuODAyNDY5MTM1ODAyNDcsMCkiIHhsaW5rOmhyZWY9IiNhUyIvPjx1c2UgdHJhbnNmb3JtPSJtYXRyaXgoMC4wNjE3MjgzOTUwNjE3MjgzOSwwLDAsMC4wNjE3MjgzOTUwNjE3MjgzOSwzOS40NDQ0NDQ0NDQ0NDQ0NCwwKSIgeGxpbms6aHJlZj0iI2JiIi8+PHVzZSB0cmFuc2Zvcm09Im1hdHJpeCgwLjA2MTcyODM5NTA2MTcyODM5LDAsMCwwLjA2MTcyODM5NTA2MTcyODM5LDQ2Ljc5MDEyMzQ1Njc5MDEyLDApIiB4bGluazpocmVmPSIjYWoiLz48dXNlIHRyYW5zZm9ybT0ibWF0cml4KDAuMDYxNzI4Mzk1MDYxNzI4MzksMCwwLDAuMDYxNzI4Mzk1MDYxNzI4MzksNTYuNjA0OTM4MjcxNjA0OTQsMCkiIHhsaW5rOmhyZWY9IiNhayIvPjx1c2UgdHJhbnNmb3JtPSJtYXRyaXgoMC4wNjE3MjgzOTUwNjE3MjgzOSwwLDAsMC4wNjE3MjgzOTUwNjE3MjgzOSw2Ni40MTk3NTMwODY0MTk3NSwwKSIgeGxpbms6aHJlZj0iI2FoIi8+PHVzZSB0cmFuc2Zvcm09Im1hdHJpeCgwLjA2MTcyODM5NTA2MTcyODM5LDAsMCwwLjA2MTcyODM5NTA2MTcyODM5LDcyLjU5MjU5MjU5MjU5MjU4LDApIiB4bGluazpocmVmPSIjYWkiLz48dXNlIHRyYW5zZm9ybT0ibWF0cml4KDAuMDYxNzI4Mzk1MDYxNzI4MzksMCwwLDAuMDYxNzI4Mzk1MDYxNzI4MzksNzguNzY1NDMyMDk4NzY1NDIsMCkiIHhsaW5rOmhyZWY9IiNhbCIvPjx1c2UgdHJhbnNmb3JtPSJtYXRyaXgoMC4wNjE3MjgzOTUwNjE3MjgzOSwwLDAsMC4wNjE3MjgzOTUwNjE3MjgzOSw4OS44NzY1NDMyMDk4NzY1MywwKSIgeGxpbms6aHJlZj0iI2FnIi8+PC9nPjxnIGlkPSJKIj48dXNlIHRyYW5zZm9ybT0ibWF0cml4KDAuMDYxNzI4Mzk1MDYxNzI4MzksMCwwLDAuMDYxNzI4Mzk1MDYxNzI4MzksMCwwKSIgeGxpbms6aHJlZj0iI2FTIi8+PHVzZSB0cmFuc2Zvcm09Im1hdHJpeCgwLjA2MTcyODM5NTA2MTcyODM5LDAsMCwwLjA2MTcyODM5NTA2MTcyODM5LDguNjQxOTc1MzA4NjQxOTc1LDApIiB4bGluazpocmVmPSIjYWUiLz48dXNlIHRyYW5zZm9ybT0ibWF0cml4KDAuMDYxNzI4Mzk1MDYxNzI4MzksMCwwLDAuMDYxNzI4Mzk1MDYxNzI4MzksMTguNDU2NzkwMTIzNDU2NzksMCkiIHhsaW5rOmhyZWY9IiNhZyIvPjx1c2UgdHJhbnNmb3JtPSJtYXRyaXgoMC4wNjE3MjgzOTUwNjE3MjgzOSwwLDAsMC4wNjE3MjgzOTUwNjE3MjgzOSwyOS41Njc5MDEyMzQ1Njc5MDIsMCkiIHhsaW5rOmhyZWY9IiNhaCIvPjx1c2UgdHJhbnNmb3JtPSJtYXRyaXgoMC4wNjE3MjgzOTUwNjE3MjgzOSwwLDAsMC4wNjE3MjgzOTUwNjE3MjgzOSwzNS43NDA3NDA3NDA3NDA3NCwwKSIgeGxpbms6aHJlZj0iI2FpIi8+PHVzZSB0cmFuc2Zvcm09Im1hdHJpeCgwLjA2MTcyODM5NTA2MTcyODM5LDAsMCwwLjA2MTcyODM5NTA2MTcyODM5LDQxLjkxMzU4MDI0NjkxMzU4LDApIiB4bGluazpocmVmPSIjYWYiLz48dXNlIHRyYW5zZm9ybT0ibWF0cml4KDAuMDYxNzI4Mzk1MDYxNzI4MzksMCwwLDAuMDYxNzI4Mzk1MDYxNzI4MzksNTkuMTk3NTMwODY0MTk3NTMsMCkiIHhsaW5rOmhyZWY9IiNhZSIvPjx1c2UgdHJhbnNmb3JtPSJtYXRyaXgoMC4wNjE3MjgzOTUwNjE3MjgzOSwwLDAsMC4wNjE3MjgzOTUwNjE3MjgzOSw2OS4wMTIzNDU2NzkwMTIzNCwwKSIgeGxpbms6aHJlZj0iI2FnIi8+PHVzZSB0cmFuc2Zvcm09Im1hdHJpeCgwLjA2MTcyODM5NTA2MTcyODM5LDAsMCwwLjA2MTcyODM5NTA2MTcyODM5LDgwLjEyMzQ1Njc5MDEyMzQ2LDApIiB4bGluazpocmVmPSIjYWgiLz48L2c+PHBhdGggZmlsbD0iIzNhNDE0YSIgZD0iTTUzLTE0YzU4IDEyIDgyLTE1IDgyLTczIDAtNTItMzUtNzctODItNTh2MTMxek04OSA0QzY0IDQgNDItMiAyNC05di0yMjlsLTI0LTR2LThoNTNsLTEgOTRjNDgtMzMgMTE0LTQgMTE0IDY5IDAgNTctMjMgOTEtNzcgOTEiIGlkPSJiYyIvPjxnIGlkPSJLIj48dXNlIHRyYW5zZm9ybT0ibWF0cml4KDAuMDYxNzI4Mzk1MDYxNzI4MzksMCwwLDAuMDYxNzI4Mzk1MDYxNzI4MzksMCwwKSIgeGxpbms6aHJlZj0iI2FkIi8+PHVzZSB0cmFuc2Zvcm09Im1hdHJpeCgwLjA2MTcyODM5NTA2MTcyODM5LDAsMCwwLjA2MTcyODM5NTA2MTcyODM5LDE1Ljk4NzY1NDMyMDk4NzY1MywwKSIgeGxpbms6aHJlZj0iI2FqIi8+PHVzZSB0cmFuc2Zvcm09Im1hdHJpeCgwLjA2MTcyODM5NTA2MTcyODM5LDAsMCwwLjA2MTcyODM5NTA2MTcyODM5LDI1LjgwMjQ2OTEzNTgwMjQ3LDApIiB4bGluazpocmVmPSIjYWgiLz48dXNlIHRyYW5zZm9ybT0ibWF0cml4KDAuMDYxNzI4Mzk1MDYxNzI4MzksMCwwLDAuMDYxNzI4Mzk1MDYxNzI4MzksMzEuOTc1MzA4NjQxOTc1MzA3LDApIiB4bGluazpocmVmPSIjYWoiLz48dXNlIHRyYW5zZm9ybT0ibWF0cml4KDAuMDYxNzI4Mzk1MDYxNzI4MzksMCwwLDAuMDYxNzI4Mzk1MDYxNzI4MzksNDEuNzkwMTIzNDU2NzkwMTIsMCkiIHhsaW5rOmhyZWY9IiNiYyIvPjx1c2UgdHJhbnNmb3JtPSJtYXRyaXgoMC4wNjE3MjgzOTUwNjE3MjgzOSwwLDAsMC4wNjE3MjgzOTUwNjE3MjgzOSw1Mi45MDEyMzQ1Njc5MDEyMywwKSIgeGxpbms6aHJlZj0iI2FqIi8+PHVzZSB0cmFuc2Zvcm09Im1hdHJpeCgwLjA2MTcyODM5NTA2MTcyODM5LDAsMCwwLjA2MTcyODM5NTA2MTcyODM5LDYyLjcxNjA0OTM4MjcxNjA0NCwwKSIgeGxpbms6aHJlZj0iI2FTIi8+PHVzZSB0cmFuc2Zvcm09Im1hdHJpeCgwLjA2MTcyODM5NTA2MTcyODM5LDAsMCwwLjA2MTcyODM5NTA2MTcyODM5LDcxLjM1ODAyNDY5MTM1ODAzLDApIiB4bGluazpocmVmPSIjYWUiLz48L2c+PHBhdGggZmlsbD0iIzNhNDE0YSIgZD0iTTUyLTExNWMwIDkzIDgwIDEzMCAxNTAgODdsNy0zNWgxMWwtMSA1NWMtMjMgNy01MiAxMi04MyAxMkM2MCA0IDE5LTM3IDE1LTExNWMtNS0xMTMgOTctMTQxIDIwMS0xMTRsMSA1MWgtMTJsLTUtMzBjLTE1LTktMzktMTYtNjItMTYtNjYgMC04NiA0MS04NiAxMDkiIGlkPSJiZCIvPjxnIGlkPSJMIj48dXNlIHRyYW5zZm9ybT0ibWF0cml4KDAuMDg2NDE5NzUzMDg2NDE5NzMsMCwwLDAuMDg2NDE5NzUzMDg2NDE5NzMsMCwwKSIgeGxpbms6aHJlZj0iI2JkIi8+PHVzZSB0cmFuc2Zvcm09Im1hdHJpeCgwLjA4NjQxOTc1MzA4NjQxOTczLDAsMCwwLjA4NjQxOTc1MzA4NjQxOTczLDIwLjc0MDc0MDc0MDc0MDczNywwKSIgeGxpbms6aHJlZj0iI2FvIi8+PHVzZSB0cmFuc2Zvcm09Im1hdHJpeCgwLjA4NjQxOTc1MzA4NjQxOTczLDAsMCwwLjA4NjQxOTc1MzA4NjQxOTczLDI5LjM4MjcxNjA0OTM4MjcwOCwwKSIgeGxpbms6aHJlZj0iI2FsIi8+PHVzZSB0cmFuc2Zvcm09Im1hdHJpeCgwLjA4NjQxOTc1MzA4NjQxOTczLDAsMCwwLjA4NjQxOTc1MzA4NjQxOTczLDQ0LjkzODI3MTYwNDkzODI2NSwwKSIgeGxpbms6aHJlZj0iI2F2Ii8+PHVzZSB0cmFuc2Zvcm09Im1hdHJpeCgwLjA4NjQxOTc1MzA4NjQxOTczLDAsMCwwLjA4NjQxOTc1MzA4NjQxOTczLDYwLjQ5MzgyNzE2MDQ5MzgsMCkiIHhsaW5rOmhyZWY9IiNhbiIvPjwvZz48ZyBpZD0iTSI+PHVzZSB0cmFuc2Zvcm09Im1hdHJpeCgwLjEyOTYyOTYyOTYyOTYyOTU3LDAsMCwwLjEyOTYyOTYyOTYyOTYyOTU3LDAsMCkiIHhsaW5rOmhyZWY9IiNhWiIvPjx1c2UgdHJhbnNmb3JtPSJtYXRyaXgoMC4xMjk2Mjk2Mjk2Mjk2Mjk1NywwLDAsMC4xMjk2Mjk2Mjk2Mjk2Mjk1NywxNS40MjU5MjU5MjU5MjU5MTgsMCkiIHhsaW5rOmhyZWY9IiNhZyIvPjx1c2UgdHJhbnNmb3JtPSJtYXRyaXgoMC4xMjk2Mjk2Mjk2Mjk2Mjk1NywwLDAsMC4xMjk2Mjk2Mjk2Mjk2Mjk1NywzOC43NTkyNTkyNTkyNTkyNCwwKSIgeGxpbms6aHJlZj0iI2FoIi8+PHVzZSB0cmFuc2Zvcm09Im1hdHJpeCgwLjEyOTYyOTYyOTYyOTYyOTU3LDAsMCwwLjEyOTYyOTYyOTYyOTYyOTU3LDUxLjcyMjIyMjIyMjIyMjE5LDApIiB4bGluazpocmVmPSIjYWUiLz48dXNlIHRyYW5zZm9ybT0ibWF0cml4KDAuMTI5NjI5NjI5NjI5NjI5NTcsMCwwLDAuMTI5NjI5NjI5NjI5NjI5NTcsNzIuMzMzMzMzMzMzMzMzMjksMCkiIHhsaW5rOmhyZWY9IiNhbyIvPjx1c2UgdHJhbnNmb3JtPSJtYXRyaXgoMC4xMjk2Mjk2Mjk2Mjk2Mjk1NywwLDAsMC4xMjk2Mjk2Mjk2Mjk2Mjk1Nyw4NS4yOTYyOTYyOTYyOTYyNiwwKSIgeGxpbms6aHJlZj0iI2FvIi8+PHVzZSB0cmFuc2Zvcm09Im1hdHJpeCgwLjEyOTYyOTYyOTYyOTYyOTU3LDAsMCwwLjEyOTYyOTYyOTYyOTYyOTU3LDk4LjI1OTI1OTI1OTI1OTIxLDApIiB4bGluazpocmVmPSIjYWkiLz48dXNlIHRyYW5zZm9ybT0ibWF0cml4KDAuMTI5NjI5NjI5NjI5NjI5NTcsMCwwLDAuMTI5NjI5NjI5NjI5NjI5NTcsMTExLjIyMjIyMjIyMjIyMjE3LDApIiB4bGluazpocmVmPSIjYWQiLz48dXNlIHRyYW5zZm9ybT0ibWF0cml4KDAuMTI5NjI5NjI5NjI5NjI5NTcsMCwwLDAuMTI5NjI5NjI5NjI5NjI5NTcsMTQ0Ljc5NjI5NjI5NjI5NjIyLDApIiB4bGluazpocmVmPSIjYWwiLz48dXNlIHRyYW5zZm9ybT0ibWF0cml4KDAuMTI5NjI5NjI5NjI5NjI5NTcsMCwwLDAuMTI5NjI5NjI5NjI5NjI5NTcsMTY4LjEyOTYyOTYyOTYyOTU2LDApIiB4bGluazpocmVmPSIjYW8iLz48dXNlIHRyYW5zZm9ybT0ibWF0cml4KDAuMTI5NjI5NjI5NjI5NjI5NTcsMCwwLDAuMTI5NjI5NjI5NjI5NjI5NTcsMTgxLjA5MjU5MjU5MjU5MjUsMCkiIHhsaW5rOmhyZWY9IiNhbyIvPjwvZz48cGF0aCBmaWxsPSIjM2E0MTRhIiBkPSJNMjQwLTE1NEwxODUgNGgtMTRsLTQxLTEwOUw5MCA0SDc3TDIwLTE1M2MtNy0zLTIzIDEtMjAtMTJoNzl2OGwtMjcgNEw5MS00MWw0MC0xMDhoMTRsNDAgMTA5IDM4LTExMy0yOC00di04aDYzdjgiIGlkPSJiZSIvPjxnIGlkPSJOIj48dXNlIHRyYW5zZm9ybT0ibWF0cml4KDAuMTI5NjI5NjI5NjI5NjI5NTcsMCwwLDAuMTI5NjI5NjI5NjI5NjI5NTcsMCwwKSIgeGxpbms6aHJlZj0iI2FkIi8+PHVzZSB0cmFuc2Zvcm09Im1hdHJpeCgwLjEyOTYyOTYyOTYyOTYyOTU3LDAsMCwwLjEyOTYyOTYyOTYyOTYyOTU3LDMzLjU3NDA3NDA3NDA3NDA1NSwwKSIgeGxpbms6aHJlZj0iI2FqIi8+PHVzZSB0cmFuc2Zvcm09Im1hdHJpeCgwLjEyOTYyOTYyOTYyOTYyOTU3LDAsMCwwLjEyOTYyOTYyOTYyOTYyOTU3LDU0LjE4NTE4NTE4NTE4NTE1NSwwKSIgeGxpbms6aHJlZj0iI2FoIi8+PHVzZSB0cmFuc2Zvcm09Im1hdHJpeCgwLjEyOTYyOTYyOTYyOTYyOTU3LDAsMCwwLjEyOTYyOTYyOTYyOTYyOTU3LDY3LjE0ODE0ODE0ODE0ODExLDApIiB4bGluazpocmVmPSIjYWoiLz48dXNlIHRyYW5zZm9ybT0ibWF0cml4KDAuMTI5NjI5NjI5NjI5NjI5NTcsMCwwLDAuMTI5NjI5NjI5NjI5NjI5NTcsODcuNzU5MjU5MjU5MjU5MjEsMCkiIHhsaW5rOmhyZWY9IiNiYiIvPjx1c2UgdHJhbnNmb3JtPSJtYXRyaXgoMC4xMjk2Mjk2Mjk2Mjk2Mjk1NywwLDAsMC4xMjk2Mjk2Mjk2Mjk2Mjk1NywxMDMuMTg1MTg1MTg1MTg1MTMsMCkiIHhsaW5rOmhyZWY9IiNhbyIvPjx1c2UgdHJhbnNmb3JtPSJtYXRyaXgoMC4xMjk2Mjk2Mjk2Mjk2Mjk1NywwLDAsMC4xMjk2Mjk2Mjk2Mjk2Mjk1NywxMTYuMTQ4MTQ4MTQ4MTQ4MSwwKSIgeGxpbms6aHJlZj0iI2FsIi8+PHVzZSB0cmFuc2Zvcm09Im1hdHJpeCgwLjEyOTYyOTYyOTYyOTYyOTU3LDAsMCwwLjEyOTYyOTYyOTYyOTYyOTU3LDEzOS40ODE0ODE0ODE0ODE0LDApIiB4bGluazpocmVmPSIjYmUiLz48L2c+PGcgaWQ9Ik8iPjx1c2UgdHJhbnNmb3JtPSJtYXRyaXgoMC4wNjE3MjgzOTUwNjE3MjgzOSwwLDAsMC4wNjE3MjgzOTUwNjE3MjgzOSwwLDApIiB4bGluazpocmVmPSIjYXQiLz48dXNlIHRyYW5zZm9ybT0ibWF0cml4KDAuMDYxNzI4Mzk1MDYxNzI4MzksMCwwLDAuMDYxNzI4Mzk1MDYxNzI4MzksMTIuNzE2MDQ5MzgyNzE2MDQ3LDApIiB4bGluazpocmVmPSIjYVUiLz48dXNlIHRyYW5zZm9ybT0ibWF0cml4KDAuMDYxNzI4Mzk1MDYxNzI4MzksMCwwLDAuMDYxNzI4Mzk1MDYxNzI4MzksMjAuMDYxNzI4Mzk1MDYxNzI4LDApIiB4bGluazpocmVmPSIjYWoiLz48dXNlIHRyYW5zZm9ybT0ibWF0cml4KDAuMDYxNzI4Mzk1MDYxNzI4MzksMCwwLDAuMDYxNzI4Mzk1MDYxNzI4MzksMjkuODc2NTQzMjA5ODc2NTQ0LDApIiB4bGluazpocmVmPSIjYWciLz48dXNlIHRyYW5zZm9ybT0ibWF0cml4KDAuMDYxNzI4Mzk1MDYxNzI4MzksMCwwLDAuMDYxNzI4Mzk1MDYxNzI4MzksNDAuOTg3NjU0MzIwOTg3NjYsMCkiIHhsaW5rOmhyZWY9IiNhUyIvPjx1c2UgdHJhbnNmb3JtPSJtYXRyaXgoMC4wNjE3MjgzOTUwNjE3MjgzOSwwLDAsMC4wNjE3MjgzOTUwNjE3MjgzOSw0OS42Mjk2Mjk2Mjk2Mjk2MywwKSIgeGxpbms6aHJlZj0iI2FvIi8+PHVzZSB0cmFuc2Zvcm09Im1hdHJpeCgwLjA2MTcyODM5NTA2MTcyODM5LDAsMCwwLjA2MTcyODM5NTA2MTcyODM5LDU1LjgwMjQ2OTEzNTgwMjQ3NSwwKSIgeGxpbms6aHJlZj0iI2FqIi8+PHVzZSB0cmFuc2Zvcm09Im1hdHJpeCgwLjA2MTcyODM5NTA2MTcyODM5LDAsMCwwLjA2MTcyODM5NTA2MTcyODM5LDY1LjYxNzI4Mzk1MDYxNzI5LDApIiB4bGluazpocmVmPSIjYWgiLz48dXNlIHRyYW5zZm9ybT0ibWF0cml4KDAuMDYxNzI4Mzk1MDYxNzI4MzksMCwwLDAuMDYxNzI4Mzk1MDYxNzI4MzksNzEuNzkwMTIzNDU2NzkwMTMsMCkiIHhsaW5rOmhyZWY9IiNhaSIvPjx1c2UgdHJhbnNmb3JtPSJtYXRyaXgoMC4wNjE3MjgzOTUwNjE3MjgzOSwwLDAsMC4wNjE3MjgzOTUwNjE3MjgzOSw3Ny45NjI5NjI5NjI5NjI5NiwwKSIgeGxpbms6aHJlZj0iI2FsIi8+PHVzZSB0cmFuc2Zvcm09Im1hdHJpeCgwLjA2MTcyODM5NTA2MTcyODM5LDAsMCwwLjA2MTcyODM5NTA2MTcyODM5LDg5LjA3NDA3NDA3NDA3NDA4LDApIiB4bGluazpocmVmPSIjYWciLz48L2c+PGcgaWQ9IlAiPjx1c2UgdHJhbnNmb3JtPSJtYXRyaXgoMC4wNjE3MjgzOTUwNjE3MjgzOSwwLDAsMC4wNjE3MjgzOTUwNjE3MjgzOSwwLDApIiB4bGluazpocmVmPSIjYWkiLz48dXNlIHRyYW5zZm9ybT0ibWF0cml4KDAuMDYxNzI4Mzk1MDYxNzI4MzksMCwwLDAuMDYxNzI4Mzk1MDYxNzI4MzksNi4xNzI4Mzk1MDYxNzI4MzksMCkiIHhsaW5rOmhyZWY9IiNiYiIvPjwvZz48ZyBpZD0iUSI+PHVzZSB0cmFuc2Zvcm09Im1hdHJpeCgwLjA2MTcyODM5NTA2MTcyODM5LDAsMCwwLjA2MTcyODM5NTA2MTcyODM5LDAsMCkiIHhsaW5rOmhyZWY9IiNhaiIvPjx1c2UgdHJhbnNmb3JtPSJtYXRyaXgoMC4wNjE3MjgzOTUwNjE3MjgzOSwwLDAsMC4wNjE3MjgzOTUwNjE3MjgzOSw5LjgxNDgxNDgxNDgxNDgxNSwwKSIgeGxpbms6aHJlZj0iI2FxIi8+PHVzZSB0cmFuc2Zvcm09Im1hdHJpeCgwLjA2MTcyODM5NTA2MTcyODM5LDAsMCwwLjA2MTcyODM5NTA2MTcyODM5LDIwLjkyNTkyNTkyNTkyNTkyNCwwKSIgeGxpbms6aHJlZj0iI2FxIi8+PHVzZSB0cmFuc2Zvcm09Im1hdHJpeCgwLjA2MTcyODM5NTA2MTcyODM5LDAsMCwwLjA2MTcyODM5NTA2MTcyODM5LDMyLjAzNzAzNzAzNzAzNzA0LDApIiB4bGluazpocmVmPSIjYW8iLz48dXNlIHRyYW5zZm9ybT0ibWF0cml4KDAuMDYxNzI4Mzk1MDYxNzI4MzksMCwwLDAuMDYxNzI4Mzk1MDYxNzI4MzksMzguMjA5ODc2NTQzMjA5ODgsMCkiIHhsaW5rOmhyZWY9IiNhaSIvPjx1c2UgdHJhbnNmb3JtPSJtYXRyaXgoMC4wNjE3MjgzOTUwNjE3MjgzOSwwLDAsMC4wNjE3MjgzOTUwNjE3MjgzOSw0NC4zODI3MTYwNDkzODI3MiwwKSIgeGxpbms6aHJlZj0iI2FrIi8+PHVzZSB0cmFuc2Zvcm09Im1hdHJpeCgwLjA2MTcyODM5NTA2MTcyODM5LDAsMCwwLjA2MTcyODM5NTA2MTcyODM5LDU0LjE5NzUzMDg2NDE5NzU0LDApIiB4bGluazpocmVmPSIjYWoiLz48dXNlIHRyYW5zZm9ybT0ibWF0cml4KDAuMDYxNzI4Mzk1MDYxNzI4MzksMCwwLDAuMDYxNzI4Mzk1MDYxNzI4MzksNjQuMDEyMzQ1Njc5MDEyMzYsMCkiIHhsaW5rOmhyZWY9IiNiYyIvPjx1c2UgdHJhbnNmb3JtPSJtYXRyaXgoMC4wNjE3MjgzOTUwNjE3MjgzOSwwLDAsMC4wNjE3MjgzOTUwNjE3MjgzOSw3NS4xMjM0NTY3OTAxMjM0NywwKSIgeGxpbms6aHJlZj0iI2FvIi8+PHVzZSB0cmFuc2Zvcm09Im1hdHJpeCgwLjA2MTcyODM5NTA2MTcyODM5LDAsMCwwLjA2MTcyODM5NTA2MTcyODM5LDgxLjI5NjI5NjI5NjI5NjMsMCkiIHhsaW5rOmhyZWY9IiNhZSIvPjwvZz48ZyBpZD0iUiI+PHVzZSB0cmFuc2Zvcm09Im1hdHJpeCgwLjA2MTcyODM5NTA2MTcyODM5LDAsMCwwLjA2MTcyODM5NTA2MTcyODM5LDAsMCkiIHhsaW5rOmhyZWY9IiNhcCIvPjx1c2UgdHJhbnNmb3JtPSJtYXRyaXgoMC4wNjE3MjgzOTUwNjE3MjgzOSwwLDAsMC4wNjE3MjgzOTUwNjE3MjgzOSwxMi4zNDU2NzkwMTIzNDU2NzksMCkiIHhsaW5rOmhyZWY9IiNhaiIvPjx1c2UgdHJhbnNmb3JtPSJtYXRyaXgoMC4wNjE3MjgzOTUwNjE3MjgzOSwwLDAsMC4wNjE3MjgzOTUwNjE3MjgzOSwyMi4xNjA0OTM4MjcxNjA0OTQsMCkiIHhsaW5rOmhyZWY9IiNiYiIvPjx1c2UgdHJhbnNmb3JtPSJtYXRyaXgoMC4wNjE3MjgzOTUwNjE3MjgzOSwwLDAsMC4wNjE3MjgzOTUwNjE3MjgzOSwyOS41MDYxNzI4Mzk1MDYxNywwKSIgeGxpbms6aHJlZj0iI2FlIi8+PHVzZSB0cmFuc2Zvcm09Im1hdHJpeCgwLjA2MTcyODM5NTA2MTcyODM5LDAsMCwwLjA2MTcyODM5NTA2MTcyODM5LDM5LjMyMDk4NzY1NDMyMDk5LDApIiB4bGluazpocmVmPSIjYWgiLz48dXNlIHRyYW5zZm9ybT0ibWF0cml4KDAuMDYxNzI4Mzk1MDYxNzI4MzksMCwwLDAuMDYxNzI4Mzk1MDYxNzI4MzksNDUuNDkzODI3MTYwNDkzODMsMCkiIHhsaW5rOmhyZWY9IiNhWCIvPjwvZz48ZyBpZD0iUyI+PHVzZSB0cmFuc2Zvcm09Im1hdHJpeCgwLjA2MTcyODM5NTA2MTcyODM5LDAsMCwwLjA2MTcyODM5NTA2MTcyODM5LDAsMCkiIHhsaW5rOmhyZWY9IiNiYiIvPjx1c2UgdHJhbnNmb3JtPSJtYXRyaXgoMC4wNjE3MjgzOTUwNjE3MjgzOSwwLDAsMC4wNjE3MjgzOTUwNjE3MjgzOSw3LjM0NTY3OTAxMjM0NTY3OSwwKSIgeGxpbms6aHJlZj0iI2FpIi8+PHVzZSB0cmFuc2Zvcm09Im1hdHJpeCgwLjA2MTcyODM5NTA2MTcyODM5LDAsMCwwLjA2MTcyODM5NTA2MTcyODM5LDEzLjUxODUxODUxODUxODUxOSwwKSIgeGxpbms6aHJlZj0iI2FvIi8+PHVzZSB0cmFuc2Zvcm09Im1hdHJpeCgwLjA2MTcyODM5NTA2MTcyODM5LDAsMCwwLjA2MTcyODM5NTA2MTcyODM5LDE5LjY5MTM1ODAyNDY5MTM1OCwwKSIgeGxpbms6aHJlZj0iI2FoIi8+PHVzZSB0cmFuc2Zvcm09Im1hdHJpeCgwLjA2MTcyODM5NTA2MTcyODM5LDAsMCwwLjA2MTcyODM5NTA2MTcyODM5LDI1Ljg2NDE5NzUzMDg2NDE5NiwwKSIgeGxpbms6aHJlZj0iI2FlIi8+PHVzZSB0cmFuc2Zvcm09Im1hdHJpeCgwLjA2MTcyODM5NTA2MTcyODM5LDAsMCwwLjA2MTcyODM5NTA2MTcyODM5LDM1LjY3OTAxMjM0NTY3OTAxLDApIiB4bGluazpocmVmPSIjYVUiLz48L2c+PGcgaWQ9IlQiPjx1c2UgdHJhbnNmb3JtPSJtYXRyaXgoMC4wNjE3MjgzOTUwNjE3MjgzOSwwLDAsMC4wNjE3MjgzOTUwNjE3MjgzOSwwLDApIiB4bGluazpocmVmPSIjYWYiLz48dXNlIHRyYW5zZm9ybT0ibWF0cml4KDAuMDYxNzI4Mzk1MDYxNzI4MzksMCwwLDAuMDYxNzI4Mzk1MDYxNzI4MzksMTcuMjgzOTUwNjE3MjgzOTUsMCkiIHhsaW5rOmhyZWY9IiNhbCIvPjx1c2UgdHJhbnNmb3JtPSJtYXRyaXgoMC4wNjE3MjgzOTUwNjE3MjgzOSwwLDAsMC4wNjE3MjgzOTUwNjE3MjgzOSwyOC4zOTUwNjE3MjgzOTUwNiwwKSIgeGxpbms6aHJlZj0iI2FuIi8+PHVzZSB0cmFuc2Zvcm09Im1hdHJpeCgwLjA2MTcyODM5NTA2MTcyODM5LDAsMCwwLjA2MTcyODM5NTA2MTcyODM5LDM5LjUwNjE3MjgzOTUwNjE3LDApIiB4bGluazpocmVmPSIjYWUiLz48dXNlIHRyYW5zZm9ybT0ibWF0cml4KDAuMDYxNzI4Mzk1MDYxNzI4MzksMCwwLDAuMDYxNzI4Mzk1MDYxNzI4MzksNDkuMzIwOTg3NjU0MzIwOTksMCkiIHhsaW5rOmhyZWY9IiNhbyIvPjwvZz48cGF0aCBmaWxsPSIjMzMzIiBkPSJNNzYtMTE2YzAgODYgNzEgMTI2IDEzNSA4NGw2LTM5aDE2bC0xIDYwQzEzOCAyMSAxOCAxIDE4LTExNWMwLTExNyAxMDYtMTQxIDIxMC0xMTJsMSA1N2gtMTZsLTUtMzRjLTEzLTktMzItMTYtNTQtMTYtNjAgMC03OCA0Mi03OCAxMDQiIGlkPSJiZiIvPjxwYXRoIGZpbGw9IiMzMzMiIGQ9Ik0xNjgtMTUwTDEwMiA0SDgxTDEyLTE0OWMtNy0yLTE1LTQtMTItMTZoODV2MTFsLTIwIDUgNDIgOTQgMzgtOTQtMTktNXYtMTFoNTR2MTEiIGlkPSJiZyIvPjxnIGlkPSJVIj48dXNlIHRyYW5zZm9ybT0ibWF0cml4KDAuMDQ5MzgyNzE2MDQ5MzgyNzIsMCwwLDAuMDQ5MzgyNzE2MDQ5MzgyNzIsMCwwKSIgeGxpbms6aHJlZj0iI2JmIi8+PHVzZSB0cmFuc2Zvcm09Im1hdHJpeCgwLjA0OTM4MjcxNjA0OTM4MjcyLDAsMCwwLjA0OTM4MjcxNjA0OTM4MjcyLDEyLjc5MDEyMzQ1Njc5MDEyNSwwKSIgeGxpbms6aHJlZj0iI2FGIi8+PHVzZSB0cmFuc2Zvcm09Im1hdHJpeCgwLjA0OTM4MjcxNjA0OTM4MjcyLDAsMCwwLjA0OTM4MjcxNjA0OTM4MjcyLDIxLjY3OTAxMjM0NTY3OTAxMywwKSIgeGxpbms6aHJlZj0iI2FEIi8+PHVzZSB0cmFuc2Zvcm09Im1hdHJpeCgwLjA0OTM4MjcxNjA0OTM4MjcyLDAsMCwwLjA0OTM4MjcxNjA0OTM4MjcyLDMxLjU1NTU1NTU1NTU1NTU1NywwKSIgeGxpbms6aHJlZj0iI2JnIi8+PHVzZSB0cmFuc2Zvcm09Im1hdHJpeCgwLjA0OTM4MjcxNjA0OTM4MjcyLDAsMCwwLjA0OTM4MjcxNjA0OTM4MjcyLDQwLjQ0NDQ0NDQ0NDQ0NDQ0LDApIiB4bGluazpocmVmPSIjYUIiLz48dXNlIHRyYW5zZm9ybT0ibWF0cml4KDAuMDQ5MzgyNzE2MDQ5MzgyNzIsMCwwLDAuMDQ5MzgyNzE2MDQ5MzgyNzIsNDguMjk2Mjk2Mjk2Mjk2MywwKSIgeGxpbms6aHJlZj0iI2FHIi8+PHVzZSB0cmFuc2Zvcm09Im1hdHJpeCgwLjA0OTM4MjcxNjA0OTM4MjcyLDAsMCwwLjA0OTM4MjcxNjA0OTM4MjcyLDU2LjE0ODE0ODE0ODE0ODE1LDApIiB4bGluazpocmVmPSIjYVEiLz48dXNlIHRyYW5zZm9ybT0ibWF0cml4KDAuMDQ5MzgyNzE2MDQ5MzgyNzIsMCwwLDAuMDQ5MzgyNzE2MDQ5MzgyNzIsNjMuMDYxNzI4Mzk1MDYxNzM1LDApIiB4bGluazpocmVmPSIjYUwiLz48dXNlIHRyYW5zZm9ybT0ibWF0cml4KDAuMDQ5MzgyNzE2MDQ5MzgyNzIsMCwwLDAuMDQ5MzgyNzE2MDQ5MzgyNzIsNzEuOTUwNjE3MjgzOTUwNjIsMCkiIHhsaW5rOmhyZWY9IiNhSiIvPjx1c2UgdHJhbnNmb3JtPSJtYXRyaXgoMC4wNDkzODI3MTYwNDkzODI3MiwwLDAsMC4wNDkzODI3MTYwNDkzODI3Miw3Ny44MjcxNjA0OTM4MjcxNywwKSIgeGxpbms6aHJlZj0iI2FDIi8+PHVzZSB0cmFuc2Zvcm09Im1hdHJpeCgwLjA0OTM4MjcxNjA0OTM4MjcyLDAsMCwwLjA0OTM4MjcxNjA0OTM4MjcyLDgyLjc2NTQzMjA5ODc2NTQ0LDApIiB4bGluazpocmVmPSIjYUYiLz48dXNlIHRyYW5zZm9ybT0ibWF0cml4KDAuMDQ5MzgyNzE2MDQ5MzgyNzIsMCwwLDAuMDQ5MzgyNzE2MDQ5MzgyNzIsOTEuNjU0MzIwOTg3NjU0MzMsMCkiIHhsaW5rOmhyZWY9IiNhRCIvPjx1c2UgdHJhbnNmb3JtPSJtYXRyaXgoMC4wNDkzODI3MTYwNDkzODI3MiwwLDAsMC4wNDkzODI3MTYwNDkzODI3MiwxMDEuNTMwODY0MTk3NTMwODcsMCkiIHhsaW5rOmhyZWY9IiNhTCIvPjx1c2UgdHJhbnNmb3JtPSJtYXRyaXgoMC4wNDkzODI3MTYwNDkzODI3MiwwLDAsMC4wNDkzODI3MTYwNDkzODI3MiwxMTAuNDE5NzUzMDg2NDE5NzYsMCkiIHhsaW5rOmhyZWY9IiNhTyIvPjwvZz48cGF0aCBmaWxsPSIjMzMzIiBkPSJNNS0xNTR2LTExaDg5djExbC0xOSA1IDI0IDM3IDMyLTM3LTE2LTV2LTExaDU2djExbC0xNSA0LTQ2IDU0IDUyIDgxIDE2IDRWMEg5MHYtMTFsMTgtNC0yOS00NS0zOCA0NSAxNyA0VjBIMXYtMTFsMTUtMyA1My02Mi00OC03MyIgaWQ9ImJoIi8+PGcgaWQ9IlYiPjx1c2UgdHJhbnNmb3JtPSJtYXRyaXgoMC4wNDkzODI3MTYwNDkzODI3MiwwLDAsMC4wNDkzODI3MTYwNDkzODI3MiwwLDApIiB4bGluazpocmVmPSIjYUgiLz48dXNlIHRyYW5zZm9ybT0ibWF0cml4KDAuMDQ5MzgyNzE2MDQ5MzgyNzIsMCwwLDAuMDQ5MzgyNzE2MDQ5MzgyNzIsNy44NTE4NTE4NTE4NTE4NTIsMCkiIHhsaW5rOmhyZWY9IiNhRiIvPjx1c2UgdHJhbnNmb3JtPSJtYXRyaXgoMC4wNDkzODI3MTYwNDkzODI3MiwwLDAsMC4wNDkzODI3MTYwNDkzODI3MiwxNi43NDA3NDA3NDA3NDA3NCwwKSIgeGxpbms6aHJlZj0iI2FEIi8+PHVzZSB0cmFuc2Zvcm09Im1hdHJpeCgwLjA0OTM4MjcxNjA0OTM4MjcyLDAsMCwwLjA0OTM4MjcxNjA0OTM4MjcyLDI2LjYxNzI4Mzk1MDYxNzI4NSwwKSIgeGxpbms6aHJlZj0iI2FKIi8+PHVzZSB0cmFuc2Zvcm09Im1hdHJpeCgwLjA0OTM4MjcxNjA0OTM4MjcyLDAsMCwwLjA0OTM4MjcxNjA0OTM4MjcyLDMyLjQ5MzgyNzE2MDQ5MzgzLDApIiB4bGluazpocmVmPSIjYUIiLz48dXNlIHRyYW5zZm9ybT0ibWF0cml4KDAuMDQ5MzgyNzE2MDQ5MzgyNzIsMCwwLDAuMDQ5MzgyNzE2MDQ5MzgyNzIsNDAuMzQ1Njc5MDEyMzQ1Njg0LDApIiB4bGluazpocmVmPSIjYmgiLz48dXNlIHRyYW5zZm9ybT0ibWF0cml4KDAuMDQ5MzgyNzE2MDQ5MzgyNzIsMCwwLDAuMDQ5MzgyNzE2MDQ5MzgyNzIsNDkuMjM0NTY3OTAxMjM0NTcsMCkiIHhsaW5rOmhyZWY9IiNhSiIvPjwvZz48cGF0aCBmaWxsPSIjM2E0MTRhIiBkPSJNMTk5LTE3M2MtMSAzNi0yMSA1Ni00OSA2NWw2NCA5NCAyNiA1djloLTU3bC02Ni0xMDNINzV2ODlsMzUgNXY5SDEzdi05bDI4LTV2LTIwOGwtMzEtNHYtMTBjODAgNCAxOTAtMjAgMTg5IDYzek03NS0xMTljNTAgMiA4OS0xIDg5LTUxIDAtNDktMzktNTItODktNTB2MTAxIiBpZD0iYmkiLz48cGF0aCBmaWxsPSIjM2E0MTRhIiBkPSJNNDItMzdjNDMgMCAyMyA3NC00IDgxLTcgNC0xNCA4LTI0IDExVjQyYzE3LTUgMjktMTQgMzEtMzBDNDItMiAyMCAxIDIxLTE4YzAtMTIgOS0xOSAyMS0xOSIgaWQ9ImJqIi8+PGcgaWQ9IlciPjx1c2UgdHJhbnNmb3JtPSJtYXRyaXgoMC4wNjE3MjgzOTUwNjE3MjgzOSwwLDAsMC4wNjE3MjgzOTUwNjE3MjgzOSwwLDApIiB4bGluazpocmVmPSIjYmkiLz48dXNlIHRyYW5zZm9ybT0ibWF0cml4KDAuMDYxNzI4Mzk1MDYxNzI4MzksMCwwLDAuMDYxNzI4Mzk1MDYxNzI4MzksMTQuODE0ODE0ODE0ODE0ODEzLDApIiB4bGluazpocmVmPSIjYWUiLz48dXNlIHRyYW5zZm9ybT0ibWF0cml4KDAuMDYxNzI4Mzk1MDYxNzI4MzksMCwwLDAuMDYxNzI4Mzk1MDYxNzI4MzksMjQuNjI5NjI5NjI5NjI5NjI2LDApIiB4bGluazpocmVmPSIjYWYiLz48dXNlIHRyYW5zZm9ybT0ibWF0cml4KDAuMDYxNzI4Mzk1MDYxNzI4MzksMCwwLDAuMDYxNzI4Mzk1MDYxNzI4MzksNDEuOTEzNTgwMjQ2OTEzNTc1LDApIiB4bGluazpocmVmPSIjYWkiLz48dXNlIHRyYW5zZm9ybT0ibWF0cml4KDAuMDYxNzI4Mzk1MDYxNzI4MzksMCwwLDAuMDYxNzI4Mzk1MDYxNzI4MzksNDguMDg2NDE5NzUzMDg2NDIsMCkiIHhsaW5rOmhyZWY9IiNhZyIvPjx1c2UgdHJhbnNmb3JtPSJtYXRyaXgoMC4wNjE3MjgzOTUwNjE3MjgzOSwwLDAsMC4wNjE3MjgzOTUwNjE3MjgzOSw1OS4xOTc1MzA4NjQxOTc1MywwKSIgeGxpbms6aHJlZj0iI2FuIi8+PHVzZSB0cmFuc2Zvcm09Im1hdHJpeCgwLjA2MTcyODM5NTA2MTcyODM5LDAsMCwwLjA2MTcyODM5NTA2MTcyODM5LDcwLjMwODY0MTk3NTMwODY1LDApIiB4bGluazpocmVmPSIjYWUiLz48dXNlIHRyYW5zZm9ybT0ibWF0cml4KDAuMDYxNzI4Mzk1MDYxNzI4MzksMCwwLDAuMDYxNzI4Mzk1MDYxNzI4MzksODAuMTIzNDU2NzkwMTIzNDYsMCkiIHhsaW5rOmhyZWY9IiNhVSIvPjx1c2UgdHJhbnNmb3JtPSJtYXRyaXgoMC4wNjE3MjgzOTUwNjE3MjgzOSwwLDAsMC4wNjE3MjgzOTUwNjE3MjgzOSw4Ny40NjkxMzU4MDI0NjkxNCwwKSIgeGxpbms6aHJlZj0iI2FTIi8+PHVzZSB0cmFuc2Zvcm09Im1hdHJpeCgwLjA2MTcyODM5NTA2MTcyODM5LDAsMCwwLjA2MTcyODM5NTA2MTcyODM5LDk2LjExMTExMTExMTExMTExLDApIiB4bGluazpocmVmPSIjYmoiLz48L2c+PGcgaWQ9IlgiPjx1c2UgdHJhbnNmb3JtPSJtYXRyaXgoMC4wNjE3MjgzOTUwNjE3MjgzOSwwLDAsMC4wNjE3MjgzOTUwNjE3MjgzOSwwLDApIiB4bGluazpocmVmPSIjYVoiLz48dXNlIHRyYW5zZm9ybT0ibWF0cml4KDAuMDYxNzI4Mzk1MDYxNzI4MzksMCwwLDAuMDYxNzI4Mzk1MDYxNzI4MzksNy4zNDU2NzkwMTIzNDU2NzksMCkiIHhsaW5rOmhyZWY9IiNhZyIvPjx1c2UgdHJhbnNmb3JtPSJtYXRyaXgoMC4wNjE3MjgzOTUwNjE3MjgzOSwwLDAsMC4wNjE3MjgzOTUwNjE3MjgzOSwxOC40NTY3OTAxMjM0NTY3OSwwKSIgeGxpbms6aHJlZj0iI2FoIi8+PHVzZSB0cmFuc2Zvcm09Im1hdHJpeCgwLjA2MTcyODM5NTA2MTcyODM5LDAsMCwwLjA2MTcyODM5NTA2MTcyODM5LDI0LjYyOTYyOTYyOTYyOTYzLDApIiB4bGluazpocmVmPSIjYWUiLz48dXNlIHRyYW5zZm9ybT0ibWF0cml4KDAuMDYxNzI4Mzk1MDYxNzI4MzksMCwwLDAuMDYxNzI4Mzk1MDYxNzI4MzksMzQuNDQ0NDQ0NDQ0NDQ0NDQsMCkiIHhsaW5rOmhyZWY9IiNhVSIvPjx1c2UgdHJhbnNmb3JtPSJtYXRyaXgoMC4wNjE3MjgzOTUwNjE3MjgzOSwwLDAsMC4wNjE3MjgzOTUwNjE3MjgzOSw0MS43OTAxMjM0NTY3OTAxMiwwKSIgeGxpbms6aHJlZj0iI2F2Ii8+PHVzZSB0cmFuc2Zvcm09Im1hdHJpeCgwLjA2MTcyODM5NTA2MTcyODM5LDAsMCwwLjA2MTcyODM5NTA2MTcyODM5LDUyLjkwMTIzNDU2NzkwMTIzLDApIiB4bGluazpocmVmPSIjYXEiLz48dXNlIHRyYW5zZm9ybT0ibWF0cml4KDAuMDYxNzI4Mzk1MDYxNzI4MzksMCwwLDAuMDYxNzI4Mzk1MDYxNzI4MzksNjQuMDEyMzQ1Njc5MDEyMzQsMCkiIHhsaW5rOmhyZWY9IiNhcSIvPjx1c2UgdHJhbnNmb3JtPSJtYXRyaXgoMC4wNjE3MjgzOTUwNjE3MjgzOSwwLDAsMC4wNjE3MjgzOTUwNjE3MjgzOSw3NS4xMjM0NTY3OTAxMjM0NiwwKSIgeGxpbms6aHJlZj0iI2FoIi8+PHVzZSB0cmFuc2Zvcm09Im1hdHJpeCgwLjA2MTcyODM5NTA2MTcyODM5LDAsMCwwLjA2MTcyODM5NTA2MTcyODM5LDgxLjI5NjI5NjI5NjI5NjI5LDApIiB4bGluazpocmVmPSIjYVMiLz48L2c+PHBhdGggZmlsbD0iIzNhNDE0YSIgZD0iTTQ1LTM3YzEzIDAgMjEgOCAyMSAyMUM2Ny0yIDU3IDQgNDUgNSAzMyA0IDIzLTIgMjQtMTZjMC0xMyA4LTIxIDIxLTIxIiBpZD0iYmsiLz48ZyBpZD0iWSI+PHVzZSB0cmFuc2Zvcm09Im1hdHJpeCgwLjA2MTcyODM5NTA2MTcyODM5LDAsMCwwLjA2MTcyODM5NTA2MTcyODM5LDAsMCkiIHhsaW5rOmhyZWY9IiNhZSIvPjx1c2UgdHJhbnNmb3JtPSJtYXRyaXgoMC4wNjE3MjgzOTUwNjE3MjgzOSwwLDAsMC4wNjE3MjgzOTUwNjE3MjgzOSw5LjgxNDgxNDgxNDgxNDgxNSwwKSIgeGxpbms6aHJlZj0iI2FoIi8+PHVzZSB0cmFuc2Zvcm09Im1hdHJpeCgwLjA2MTcyODM5NTA2MTcyODM5LDAsMCwwLjA2MTcyODM5NTA2MTcyODM5LDE1Ljk4NzY1NDMyMDk4NzY1MywwKSIgeGxpbms6aHJlZj0iI2FrIi8+PHVzZSB0cmFuc2Zvcm09Im1hdHJpeCgwLjA2MTcyODM5NTA2MTcyODM5LDAsMCwwLjA2MTcyODM5NTA2MTcyODM5LDI1LjgwMjQ2OTEzNTgwMjQ3LDApIiB4bGluazpocmVmPSIjYmsiLz48L2c+PGcgaWQ9IloiPjx1c2UgdHJhbnNmb3JtPSJtYXRyaXgoMC4wNjE3MjgzOTUwNjE3MjgzOSwwLDAsMC4wNjE3MjgzOTUwNjE3MjgzOSwwLDApIiB4bGluazpocmVmPSIjYmQiLz48dXNlIHRyYW5zZm9ybT0ibWF0cml4KDAuMDYxNzI4Mzk1MDYxNzI4MzksMCwwLDAuMDYxNzI4Mzk1MDYxNzI4MzksMTQuODE0ODE0ODE0ODE0ODEzLDApIiB4bGluazpocmVmPSIjYXIiLz48dXNlIHRyYW5zZm9ybT0ibWF0cml4KDAuMDYxNzI4Mzk1MDYxNzI4MzksMCwwLDAuMDYxNzI4Mzk1MDYxNzI4MzksMjUuOTI1OTI1OTI1OTI1OTI0LDApIiB4bGluazpocmVmPSIjYWoiLz48dXNlIHRyYW5zZm9ybT0ibWF0cml4KDAuMDYxNzI4Mzk1MDYxNzI4MzksMCwwLDAuMDYxNzI4Mzk1MDYxNzI4MzksMzUuNzQwNzQwNzQwNzQwNzQsMCkiIHhsaW5rOmhyZWY9IiNhVSIvPjx1c2UgdHJhbnNmb3JtPSJtYXRyaXgoMC4wNjE3MjgzOTUwNjE3MjgzOSwwLDAsMC4wNjE3MjgzOTUwNjE3MjgzOSw0My4wODY0MTk3NTMwODY0MiwwKSIgeGxpbms6aHJlZj0iI2FqIi8+PHVzZSB0cmFuc2Zvcm09Im1hdHJpeCgwLjA2MTcyODM5NTA2MTcyODM5LDAsMCwwLjA2MTcyODM5NTA2MTcyODM5LDUyLjkwMTIzNDU2NzkwMTIzNCwwKSIgeGxpbms6aHJlZj0iI2FrIi8+PHVzZSB0cmFuc2Zvcm09Im1hdHJpeCgwLjA2MTcyODM5NTA2MTcyODM5LDAsMCwwLjA2MTcyODM5NTA2MTcyODM5LDYyLjcxNjA0OTM4MjcxNjA1LDApIiB4bGluazpocmVmPSIjYWgiLz48dXNlIHRyYW5zZm9ybT0ibWF0cml4KDAuMDYxNzI4Mzk1MDYxNzI4MzksMCwwLDAuMDYxNzI4Mzk1MDYxNzI4MzksNjguODg4ODg4ODg4ODg4ODksMCkiIHhsaW5rOmhyZWY9IiNhZSIvPjx1c2UgdHJhbnNmb3JtPSJtYXRyaXgoMC4wNjE3MjgzOTUwNjE3MjgzOSwwLDAsMC4wNjE3MjgzOTUwNjE3MjgzOSw3OC43MDM3MDM3MDM3MDM3LDApIiB4bGluazpocmVmPSIjYVUiLz48L2c+PGcgaWQ9ImFhIj48dXNlIHRyYW5zZm9ybT0ibWF0cml4KDAuMDYxNzI4Mzk1MDYxNzI4MzksMCwwLDAuMDYxNzI4Mzk1MDYxNzI4MzksMCwwKSIgeGxpbms6aHJlZj0iI2FxIi8+PHVzZSB0cmFuc2Zvcm09Im1hdHJpeCgwLjA2MTcyODM5NTA2MTcyODM5LDAsMCwwLjA2MTcyODM5NTA2MTcyODM5LDExLjExMTExMTExMTExMTExLDApIiB4bGluazpocmVmPSIjYVUiLz48dXNlIHRyYW5zZm9ybT0ibWF0cml4KDAuMDYxNzI4Mzk1MDYxNzI4MzksMCwwLDAuMDYxNzI4Mzk1MDYxNzI4MzksMTguNDU2NzkwMTIzNDU2NzksMCkiIHhsaW5rOmhyZWY9IiNhbCIvPjx1c2UgdHJhbnNmb3JtPSJtYXRyaXgoMC4wNjE3MjgzOTUwNjE3MjgzOSwwLDAsMC4wNjE3MjgzOTUwNjE3MjgzOSwyOS41Njc5MDEyMzQ1Njc5MDIsMCkiIHhsaW5rOmhyZWY9IiNhZiIvPjx1c2UgdHJhbnNmb3JtPSJtYXRyaXgoMC4wNjE3MjgzOTUwNjE3MjgzOSwwLDAsMC4wNjE3MjgzOTUwNjE3MjgzOSw0Ni44NTE4NTE4NTE4NTE4NSwwKSIgeGxpbms6aHJlZj0iI2FxIi8+PHVzZSB0cmFuc2Zvcm09Im1hdHJpeCgwLjA2MTcyODM5NTA2MTcyODM5LDAsMCwwLjA2MTcyODM5NTA2MTcyODM5LDU3Ljk2Mjk2Mjk2Mjk2Mjk2LDApIiB4bGluazpocmVmPSIjYWgiLz48L2c+PGcgaWQ9ImFiIj48dXNlIHRyYW5zZm9ybT0ibWF0cml4KDAuMDQ5MzgyNzE2MDQ5MzgyNzIsMCwwLDAuMDQ5MzgyNzE2MDQ5MzgyNzIsMCwwKSIgeGxpbms6aHJlZj0iI2JmIi8+PHVzZSB0cmFuc2Zvcm09Im1hdHJpeCgwLjA0OTM4MjcxNjA0OTM4MjcyLDAsMCwwLjA0OTM4MjcxNjA0OTM4MjcyLDEyLjc5MDEyMzQ1Njc5MDEyNSwwKSIgeGxpbms6aHJlZj0iI2FGIi8+PHVzZSB0cmFuc2Zvcm09Im1hdHJpeCgwLjA0OTM4MjcxNjA0OTM4MjcyLDAsMCwwLjA0OTM4MjcxNjA0OTM4MjcyLDIxLjY3OTAxMjM0NTY3OTAxMywwKSIgeGxpbms6aHJlZj0iI2FEIi8+PHVzZSB0cmFuc2Zvcm09Im1hdHJpeCgwLjA0OTM4MjcxNjA0OTM4MjcyLDAsMCwwLjA0OTM4MjcxNjA0OTM4MjcyLDMxLjU1NTU1NTU1NTU1NTU1NywwKSIgeGxpbms6aHJlZj0iI2JnIi8+PHVzZSB0cmFuc2Zvcm09Im1hdHJpeCgwLjA0OTM4MjcxNjA0OTM4MjcyLDAsMCwwLjA0OTM4MjcxNjA0OTM4MjcyLDQwLjQ0NDQ0NDQ0NDQ0NDQ0LDApIiB4bGluazpocmVmPSIjYUIiLz48dXNlIHRyYW5zZm9ybT0ibWF0cml4KDAuMDQ5MzgyNzE2MDQ5MzgyNzIsMCwwLDAuMDQ5MzgyNzE2MDQ5MzgyNzIsNDguMjk2Mjk2Mjk2Mjk2MywwKSIgeGxpbms6aHJlZj0iI2FHIi8+PHVzZSB0cmFuc2Zvcm09Im1hdHJpeCgwLjA0OTM4MjcxNjA0OTM4MjcyLDAsMCwwLjA0OTM4MjcxNjA0OTM4MjcyLDU2LjE0ODE0ODE0ODE0ODE1LDApIiB4bGluazpocmVmPSIjYVEiLz48dXNlIHRyYW5zZm9ybT0ibWF0cml4KDAuMDQ5MzgyNzE2MDQ5MzgyNzIsMCwwLDAuMDQ5MzgyNzE2MDQ5MzgyNzIsNjMuMDYxNzI4Mzk1MDYxNzM1LDApIiB4bGluazpocmVmPSIjYUwiLz48dXNlIHRyYW5zZm9ybT0ibWF0cml4KDAuMDQ5MzgyNzE2MDQ5MzgyNzIsMCwwLDAuMDQ5MzgyNzE2MDQ5MzgyNzIsNzEuOTUwNjE3MjgzOTUwNjIsMCkiIHhsaW5rOmhyZWY9IiNhSiIvPjx1c2UgdHJhbnNmb3JtPSJtYXRyaXgoMC4wNDkzODI3MTYwNDkzODI3MiwwLDAsMC4wNDkzODI3MTYwNDkzODI3Miw3Ny44MjcxNjA0OTM4MjcxNywwKSIgeGxpbms6aHJlZj0iI2FDIi8+PHVzZSB0cmFuc2Zvcm09Im1hdHJpeCgwLjA0OTM4MjcxNjA0OTM4MjcyLDAsMCwwLjA0OTM4MjcxNjA0OTM4MjcyLDgyLjc2NTQzMjA5ODc2NTQ0LDApIiB4bGluazpocmVmPSIjYUYiLz48dXNlIHRyYW5zZm9ybT0ibWF0cml4KDAuMDQ5MzgyNzE2MDQ5MzgyNzIsMCwwLDAuMDQ5MzgyNzE2MDQ5MzgyNzIsOTEuNjU0MzIwOTg3NjU0MzMsMCkiIHhsaW5rOmhyZWY9IiNhRCIvPjwvZz48ZyBpZD0iYWMiPjx1c2UgdHJhbnNmb3JtPSJtYXRyaXgoMC4wNDkzODI3MTYwNDkzODI3MiwwLDAsMC4wNDkzODI3MTYwNDkzODI3MiwwLDApIiB4bGluazpocmVmPSIjYUMiLz48dXNlIHRyYW5zZm9ybT0ibWF0cml4KDAuMDQ5MzgyNzE2MDQ5MzgyNzIsMCwwLDAuMDQ5MzgyNzE2MDQ5MzgyNzIsNC45MzgyNzE2MDQ5MzgyNzIsMCkiIHhsaW5rOmhyZWY9IiNhRCIvPjx1c2UgdHJhbnNmb3JtPSJtYXRyaXgoMC4wNDkzODI3MTYwNDkzODI3MiwwLDAsMC4wNDkzODI3MTYwNDkzODI3MiwxNC44MTQ4MTQ4MTQ4MTQ4MTcsMCkiIHhsaW5rOmhyZWY9IiNhQyIvPjx1c2UgdHJhbnNmb3JtPSJtYXRyaXgoMC4wNDkzODI3MTYwNDkzODI3MiwwLDAsMC4wNDkzODI3MTYwNDkzODI3MiwxOS43NTMwODY0MTk3NTMwOSwwKSIgeGxpbms6aHJlZj0iI2FMIi8+PHVzZSB0cmFuc2Zvcm09Im1hdHJpeCgwLjA0OTM4MjcxNjA0OTM4MjcyLDAsMCwwLjA0OTM4MjcxNjA0OTM4MjcyLDI4LjY0MTk3NTMwODY0MTk3OCwwKSIgeGxpbms6aHJlZj0iI2FPIi8+PHVzZSB0cmFuc2Zvcm09Im1hdHJpeCgwLjA0OTM4MjcxNjA0OTM4MjcyLDAsMCwwLjA0OTM4MjcxNjA0OTM4MjcyLDMzLjU4MDI0NjkxMzU4MDI1NCwwKSIgeGxpbms6aHJlZj0iI2FDIi8+PHVzZSB0cmFuc2Zvcm09Im1hdHJpeCgwLjA0OTM4MjcxNjA0OTM4MjcyLDAsMCwwLjA0OTM4MjcxNjA0OTM4MjcyLDM4LjUxODUxODUxODUxODUyNiwwKSIgeGxpbms6aHJlZj0iI2FRIi8+PHVzZSB0cmFuc2Zvcm09Im1hdHJpeCgwLjA0OTM4MjcxNjA0OTM4MjcyLDAsMCwwLjA0OTM4MjcxNjA0OTM4MjcyLDQ1LjQzMjA5ODc2NTQzMjExLDApIiB4bGluazpocmVmPSIjYUwiLz48dXNlIHRyYW5zZm9ybT0ibWF0cml4KDAuMDQ5MzgyNzE2MDQ5MzgyNzIsMCwwLDAuMDQ5MzgyNzE2MDQ5MzgyNzIsNTQuMzIwOTg3NjU0MzIxLDApIiB4bGluazpocmVmPSIjYUoiLz48dXNlIHRyYW5zZm9ybT0ibWF0cml4KDAuMDQ5MzgyNzE2MDQ5MzgyNzIsMCwwLDAuMDQ5MzgyNzE2MDQ5MzgyNzIsNjAuMTk3NTMwODY0MTk3NTQ2LDApIiB4bGluazpocmVmPSIjYUMiLz48dXNlIHRyYW5zZm9ybT0ibWF0cml4KDAuMDQ5MzgyNzE2MDQ5MzgyNzIsMCwwLDAuMDQ5MzgyNzE2MDQ5MzgyNzIsNjUuMTM1ODAyNDY5MTM1ODMsMCkiIHhsaW5rOmhyZWY9IiNhRiIvPjx1c2UgdHJhbnNmb3JtPSJtYXRyaXgoMC4wNDkzODI3MTYwNDkzODI3MiwwLDAsMC4wNDkzODI3MTYwNDkzODI3Miw3NC4wMjQ2OTEzNTgwMjQ3MSwwKSIgeGxpbms6aHJlZj0iI2FEIi8+PC9nPjwvZGVmcz48L2c+PC9zdmc+;" vertex="1" parent="1">
          <mxGeometry x="190" y="340" width="2094.19" height="2150" as="geometry" />
        </mxCell>
      </root>
    </mxGraphModel>
  </diagram>
</mxfile>
